<svg version="1.1" viewBox="0.0 0.0 960.0 540.0" fill="none" stroke="none" stroke-linecap="square" stroke-miterlimit="10" xmlns:xlink="http://www.w3.org/1999/xlink" xmlns="http://www.w3.org/2000/svg"><clipPath id="p.0"><path d="m0 0l960.0 0l0 540.0l-960.0 0l0 -540.0z" clip-rule="nonzero"/></clipPath><g clip-path="url(#p.0)"><path fill="#292929" d="m0 0l960.0 0l0 540.0l-960.0 0z" fill-rule="evenodd"/><path fill="#000000" fill-opacity="0.0" d="m48.0 48.2231l852.0 0l0 443.02362l-852.0 0z" fill-rule="evenodd"/><path stroke="#2596c3" stroke-width="4.0" stroke-linejoin="round" stroke-linecap="butt" d="m48.0 48.2231l852.0 0l0 443.02362l-852.0 0z" fill-rule="evenodd"/><path fill="#000000" fill-opacity="0.0" d="m165.85826 127.25984l628.28345 0l0 285.4803l-628.28345 0z" fill-rule="evenodd"/><path fill="#eaebed" d="m295.18307 133.16751q0.234375 -0.28125 0.5625 -0.28125l3.65625 0q0.484375 0 0.484375 0.46875l0 32.640625q0 0.484375 -0.484375 0.484375l-3.65625 0q-0.46875 0 -0.46875 -0.484375l0 -24.578125q0 -0.140625 -0.109375 -0.1875q-0.09375 -0.046875 -0.140625 0.09375l-6.859375 10.46875q-0.1875 0.28125 -0.578125 0.28125l-1.828125 0q-0.328125 0 -0.5625 -0.28125l-6.921875 -10.375q-0.046875 -0.140625 -0.140625 -0.09375q-0.09375 0.046875 -0.09375 0.203125l0 24.46875q0 0.484375 -0.484375 0.484375l-3.640625 0q-0.484375 0 -0.484375 -0.484375l0 -32.640625q0 -0.46875 0.484375 -0.46875l3.640625 0q0.390625 0 0.578125 0.28125l8.40625 12.578125q0.046875 0.046875 0.140625 0.046875q0.09375 0 0.140625 -0.046875l8.359375 -12.578125zm20.913818 8.5q2.9375 0 5.109375 1.03125q2.1875 1.03125 3.359375 2.875q1.1875 1.84375 1.1875 4.203125l0 16.21875q0 0.484375 -0.484375 0.484375l-3.640625 0q-0.484375 0 -0.484375 -0.484375l0 -1.71875q0 -0.25 -0.234375 -0.09375q-1.25 1.28125 -3.0625 1.984375q-1.796875 0.703125 -4.0 0.703125q-3.546875 0 -5.875 -1.796875q-2.328125 -1.8125 -2.328125 -5.453125q0 -3.75 2.609375 -5.875q2.625 -2.140625 7.328125 -2.140625l5.375 0q0.1875 0 0.1875 -0.203125l0 -1.296875q0 -2.109375 -1.234375 -3.28125q-1.21875 -1.171875 -3.703125 -1.171875q-2.015625 0 -3.296875 0.796875q-1.265625 0.78125 -1.5625 2.125q-0.140625 0.484375 -0.578125 0.4375l-3.875 -0.53125q-0.484375 -0.09375 -0.4375 -0.390625q0.390625 -2.828125 3.015625 -4.625q2.640625 -1.796875 6.625 -1.796875zm-1.234375 21.3125q2.53125 0 4.40625 -1.34375q1.875 -1.34375 1.875 -3.40625l0 -2.84375q0 -0.1875 -0.1875 -0.1875l-4.515625 0q-2.828125 0 -4.515625 1.109375q-1.671875 1.09375 -1.671875 3.0625q0 1.78125 1.265625 2.703125q1.265625 0.90625 3.34375 0.90625zm15.394196 3.5q-0.28125 0 -0.375 -0.171875q-0.09375 -0.171875 0.046875 -0.40625l7.96875 -11.46875q0.09375 -0.140625 0 -0.296875l-7.96875 -11.515625l-0.09375 -0.234375q0 -0.34375 0.421875 -0.34375l3.890625 0q0.390625 0 0.578125 0.296875l5.625 8.203125q0.046875 0.046875 0.140625 0.046875q0.09375 0 0.140625 -0.046875l5.5625 -8.203125q0.203125 -0.296875 0.578125 -0.296875l4.171875 0q0.296875 0 0.390625 0.171875q0.09375 0.171875 -0.046875 0.40625l-7.96875 11.515625q-0.046875 0.15625 0 0.296875l7.96875 11.46875l0.09375 0.234375q0 0.34375 -0.4375 0.34375l-3.921875 0q-0.390625 0 -0.578125 -0.28125l-5.578125 -8.21875q-0.046875 -0.09375 -0.140625 -0.09375q-0.09375 0 -0.140625 0.09375l-5.609375 8.21875q-0.203125 0.28125 -0.578125 0.28125l-4.140625 0zm28.467651 -28.265625q-1.34375 0 -2.203125 -0.859375q-0.859375 -0.875 -0.859375 -2.21875q0 -1.34375 0.859375 -2.203125q0.859375 -0.875 2.203125 -0.875q1.34375 0 2.203125 0.875q0.875 0.859375 0.875 2.203125q0 1.34375 -0.875 2.21875q-0.859375 0.859375 -2.203125 0.859375zm-1.921875 28.21875q-0.46875 0 -0.46875 -0.484375l0 -23.421875q0 -0.484375 0.46875 -0.484375l3.65625 0q0.484375 0 0.484375 0.484375l0 23.421875q0 0.484375 -0.484375 0.484375l-3.65625 0zm36.77127 -24.71875q3.65625 0 5.765625 2.1875q2.109375 2.171875 2.109375 6.0625l0 16.03125q0 0.484375 -0.484375 0.484375l-3.59375 0q-0.484375 0 -0.484375 -0.484375l0 -15.0625q0 -2.40625 -1.328125 -3.8125q-1.3125 -1.421875 -3.515625 -1.421875q-2.203125 0 -3.609375 1.390625q-1.390625 1.390625 -1.390625 3.75l0 15.15625q0 0.484375 -0.46875 0.484375l-3.609375 0q-0.484375 0 -0.484375 -0.484375l0 -15.0625q0 -2.40625 -1.3125 -3.8125q-1.3125 -1.421875 -3.53125 -1.421875q-2.203125 0 -3.53125 1.390625q-1.3125 1.390625 -1.3125 3.75l0 15.15625q0 0.484375 -0.484375 0.484375l-3.640625 0q-0.484375 0 -0.484375 -0.484375l0 -23.46875q0 -0.484375 0.484375 -0.484375l3.640625 0q0.484375 0 0.484375 0.484375l0 1.640625q0 0.09375 0.0625 0.140625q0.078125 0.046875 0.171875 -0.046875q2.109375 -2.546875 6.15625 -2.546875q2.4375 0 4.15625 0.9375q1.734375 0.9375 2.703125 2.75q0.140625 0.203125 0.28125 0q1.15625 -1.859375 3.046875 -2.765625q1.90625 -0.921875 4.203125 -0.921875zm17.038727 -3.5q-1.34375 0 -2.203125 -0.859375q-0.859375 -0.875 -0.859375 -2.21875q0 -1.34375 0.859375 -2.203125q0.859375 -0.875 2.203125 -0.875q1.34375 0 2.203125 0.875q0.875 0.859375 0.875 2.203125q0 1.34375 -0.875 2.21875q-0.859375 0.859375 -2.203125 0.859375zm-1.921875 28.21875q-0.46875 0 -0.46875 -0.484375l0 -23.421875q0 -0.484375 0.46875 -0.484375l3.65625 0q0.484375 0 0.484375 0.484375l0 23.421875q0 0.484375 -0.484375 0.484375l-3.65625 0zm9.943146 0.046875q-0.484375 0 -0.484375 -0.484375l0 -3.359375q0 -0.328125 0.1875 -0.578125l12.734375 -15.546875q0.09375 -0.09375 0.046875 -0.15625q-0.046875 -0.078125 -0.15625 -0.078125l-12.09375 0q-0.46875 0 -0.46875 -0.484375l0 -3.265625q0 -0.484375 0.46875 -0.484375l17.328125 0q0.484375 0 0.484375 0.484375l0 3.40625q0 0.34375 -0.1875 0.578125l-12.921875 15.546875q-0.09375 0.109375 -0.046875 0.1875q0.046875 0.0625 0.140625 0.0625l12.578125 0q0.484375 0 0.484375 0.46875l0 3.21875q0 0.484375 -0.484375 0.484375l-17.609375 0zm25.86679 -28.265625q-1.34375 0 -2.203125 -0.859375q-0.859375 -0.875 -0.859375 -2.21875q0 -1.34375 0.859375 -2.203125q0.859375 -0.875 2.203125 -0.875q1.34375 0 2.203125 0.875q0.875 0.859375 0.875 2.203125q0 1.34375 -0.875 2.21875q-0.859375 0.859375 -2.203125 0.859375zm-1.921875 28.21875q-0.46875 0 -0.46875 -0.484375l0 -23.421875q0 -0.484375 0.46875 -0.484375l3.65625 0q0.484375 0 0.484375 0.484375l0 23.421875q0 0.484375 -0.484375 0.484375l-3.65625 0zm22.27127 -24.71875q3.9375 0 6.234375 2.28125q2.3125 2.28125 2.3125 6.171875l0 15.828125q0 0.484375 -0.484375 0.484375l-3.640625 0q-0.484375 0 -0.484375 -0.484375l0 -14.921875q0 -2.40625 -1.390625 -3.890625q-1.390625 -1.484375 -3.6875 -1.484375q-2.265625 0 -3.703125 1.484375q-1.4375 1.484375 -1.4375 3.84375l0 14.96875q0 0.484375 -0.484375 0.484375l-3.640625 0q-0.484375 0 -0.484375 -0.484375l0 -23.46875q0 -0.484375 0.484375 -0.484375l3.640625 0q0.484375 0 0.484375 0.484375l0 1.734375q0 0.09375 0.0625 0.140625q0.078125 0.046875 0.125 -0.046875q2.0625 -2.640625 6.09375 -2.640625zm30.156677 0.8125q0 -0.484375 0.46875 -0.484375l3.65625 0q0.46875 0 0.46875 0.484375l0 22.703125q0 5.8125 -3.28125 8.296875q-3.28125 2.5 -8.8125 2.5q-0.765625 0 -2.390625 -0.09375q-0.484375 -0.046875 -0.484375 -0.53125l0.140625 -3.3125q0 -0.1875 0.140625 -0.328125q0.15625 -0.140625 0.390625 -0.09375q0.671875 0.046875 1.96875 0.046875q4.078125 0 5.90625 -1.515625q1.828125 -1.515625 1.828125 -5.109375l0 -0.859375q0 -0.109375 -0.078125 -0.15625q-0.078125 -0.046875 -0.171875 0.046875q-2.015625 2.359375 -5.90625 2.359375q-3.109375 0 -5.640625 -1.625q-2.515625 -1.640625 -3.46875 -4.8125q-0.625 -2.109375 -0.625 -5.84375q0 -3.984375 0.71875 -6.15625q0.90625 -2.875 3.234375 -4.625q2.328125 -1.75 5.5 -1.75q3.9375 0 6.1875 2.390625q0.09375 0.109375 0.171875 0.078125q0.078125 -0.03125 0.078125 -0.125l0 -1.484375zm-0.296875 16.125q0.140625 -0.765625 0.21875 -1.625q0.078125 -0.859375 0.078125 -2.890625q0 -2.015625 -0.078125 -2.84375q-0.078125 -0.84375 -0.265625 -1.609375q-0.390625 -1.78125 -1.734375 -2.90625q-1.34375 -1.125 -3.359375 -1.125q-2.015625 0 -3.359375 1.125q-1.34375 1.125 -1.90625 2.90625q-0.53125 1.4375 -0.53125 4.453125q0 3.3125 0.46875 4.515625q0.484375 1.78125 1.890625 2.90625q1.421875 1.125 3.4375 1.125q2.125 0 3.4375 -1.125q1.328125 -1.125 1.703125 -2.90625zm32.304718 8.265625q-3.453125 0 -6.125 -1.359375q-2.65625 -1.375 -4.125 -3.890625q-1.453125 -2.53125 -1.453125 -5.796875l0 -12.4375q0 -3.25 1.453125 -5.71875q1.46875 -2.484375 4.125 -3.84375q2.671875 -1.375 6.125 -1.375q3.453125 0 6.09375 1.328125q2.640625 1.3125 4.109375 3.71875q1.46875 2.390625 1.46875 5.5625l0 0.046875q0 0.234375 -0.15625 0.390625q-0.140625 0.140625 -0.328125 0.140625l-3.65625 0.1875q-0.46875 0 -0.46875 -0.4375l0 -0.140625q0 -3.0625 -1.921875 -4.9375q-1.921875 -1.875 -5.140625 -1.875q-3.21875 0 -5.171875 1.875q-1.9375 1.875 -1.9375 4.9375l0 12.765625q0 3.078125 1.9375 4.953125q1.953125 1.875 5.171875 1.875q3.21875 0 5.140625 -1.875q1.921875 -1.875 1.921875 -4.953125l0 -0.09375q0 -0.421875 0.46875 -0.421875l3.65625 0.1875q0.484375 0 0.484375 0.484375q0 3.15625 -1.46875 5.59375q-1.46875 2.421875 -4.109375 3.765625q-2.640625 1.34375 -6.09375 1.34375zm17.042297 9.109375q-0.34375 0 -0.34375 -0.46875l0 -2.84375q0 -0.46875 0.484375 -0.46875l0.09375 0q1.921875 -0.046875 3.03125 -0.484375q1.109375 -0.4375 1.828125 -1.609375q0.71875 -1.171875 1.390625 -3.53125q0.046875 -0.046875 0.015625 -0.15625q-0.015625 -0.125 -0.015625 -0.125l-8.015625 -23.765625l-0.046875 -0.1875q0 -0.34375 0.421875 -0.34375l3.890625 0q0.4375 0 0.578125 0.390625l5.421875 18.09375q0.046875 0.09375 0.140625 0.09375q0.09375 0 0.140625 -0.09375l5.390625 -18.09375q0.140625 -0.390625 0.5625 -0.390625l3.796875 0q0.53125 0 0.390625 0.53125l-8.734375 25.59375q-1.109375 3.296875 -2.21875 4.90625q-1.09375 1.609375 -2.875 2.28125q-1.78125 0.671875 -5.0 0.671875l-0.328125 0zm32.30768 -9.15625q-3.65625 0 -6.25 -1.84375q-2.59375 -1.859375 -3.546875 -5.03125q-0.71875 -2.203125 -0.71875 -5.796875q0 -3.3125 0.71875 -5.8125q0.953125 -3.078125 3.5625 -4.890625q2.625 -1.828125 6.234375 -1.828125q3.59375 0 6.28125 1.828125q2.6875 1.8125 3.5 4.59375q0.296875 0.78125 0.390625 1.59375q0 0.375 -0.4375 0.484375l-3.59375 0.515625l-0.09375 0q-0.34375 0 -0.484375 -0.421875l-0.140625 -0.765625q-0.390625 -1.640625 -1.875 -2.734375q-1.484375 -1.109375 -3.59375 -1.109375q-2.0625 0 -3.515625 1.109375q-1.4375 1.09375 -1.859375 2.921875q-0.4375 1.71875 -0.4375 4.5625q0 2.78125 0.4375 4.5q0.46875 1.921875 1.890625 3.03125q1.421875 1.109375 3.484375 1.109375q2.109375 0 3.609375 -1.109375q1.515625 -1.109375 1.90625 -2.875q0.046875 -0.046875 0.015625 -0.125q-0.015625 -0.078125 0.03125 -0.125l0 -0.1875q0.140625 -0.390625 0.53125 -0.28125l3.59375 0.5625q0.390625 0.109375 0.390625 0.390625l0 0.1875q0 0.4375 -0.25 1.0625q-0.8125 2.921875 -3.5 4.703125q-2.6875 1.78125 -6.28125 1.78125zm15.935547 -0.390625q-0.484375 0 -0.484375 -0.484375l0 -32.640625q0 -0.46875 0.484375 -0.46875l3.640625 0q0.484375 0 0.484375 0.46875l0 32.640625q0 0.484375 -0.484375 0.484375l-3.640625 0zm13.576904 -28.265625q-1.34375 0 -2.203125 -0.859375q-0.859375 -0.875 -0.859375 -2.21875q0 -1.34375 0.859375 -2.203125q0.859375 -0.875 2.203125 -0.875q1.34375 0 2.203125 0.875q0.875 0.859375 0.875 2.203125q0 1.34375 -0.875 2.21875q-0.859375 0.859375 -2.203125 0.859375zm-1.921875 28.21875q-0.46875 0 -0.46875 -0.484375l0 -23.421875q0 -0.484375 0.46875 -0.484375l3.65625 0q0.484375 0 0.484375 0.484375l0 23.421875q0 0.484375 -0.484375 0.484375l-3.65625 0zm19.974365 0.328125q-2.875 0 -5.0625 -0.859375q-2.1875 -0.859375 -3.390625 -2.375q-1.203125 -1.515625 -1.203125 -3.328125l0 -0.53125q0 -0.484375 0.484375 -0.484375l3.453125 0q0.484375 0 0.484375 0.484375l0 0.234375q0 1.34375 1.453125 2.359375q1.46875 1.0 3.734375 1.0q2.15625 0 3.5 -0.9375q1.34375 -0.9375 1.34375 -2.375q0 -1.390625 -1.25 -2.078125q-1.25 -0.703125 -4.03125 -1.46875q-2.734375 -0.765625 -4.578125 -1.5625q-1.84375 -0.796875 -3.125 -2.25q-1.265625 -1.46875 -1.265625 -3.765625q0 -3.21875 2.515625 -5.109375q2.515625 -1.90625 6.703125 -1.90625q2.78125 0 4.90625 0.890625q2.140625 0.890625 3.296875 2.46875q1.15625 1.578125 1.15625 3.546875l0 0.15625q0 0.46875 -0.484375 0.46875l-3.359375 0q-0.484375 0 -0.484375 -0.46875l0 -0.15625q0 -1.390625 -1.375 -2.328125q-1.359375 -0.9375 -3.71875 -0.9375q-2.109375 0 -3.4375 0.828125q-1.3125 0.8125 -1.3125 2.203125q0 1.390625 1.265625 2.109375q1.28125 0.71875 4.109375 1.53125q2.796875 0.78125 4.640625 1.53125q1.84375 0.734375 3.140625 2.203125q1.296875 1.453125 1.296875 3.8125q0 3.265625 -2.578125 5.1875q-2.5625 1.90625 -6.828125 1.90625zm26.781189 -21.40625q0 0.484375 -0.484375 0.484375l-5.171875 0q-0.203125 0 -0.203125 0.1875l0 12.71875q0 2.015625 0.90625 2.90625q0.921875 0.890625 2.84375 0.890625l1.390625 0q0.484375 0 0.484375 0.484375l0 2.96875q0 0.484375 -0.484375 0.484375q-1.53125 0.09375 -2.203125 0.09375q-3.65625 0 -5.5 -1.3125q-1.84375 -1.328125 -1.84375 -4.875l0 -14.359375q0 -0.1875 -0.203125 -0.1875l-2.921875 0q-0.484375 0 -0.484375 -0.484375l0 -2.828125q0 -0.484375 0.484375 -0.484375l2.921875 0q0.203125 0 0.203125 -0.1875l0 -5.65625q0 -0.484375 0.46875 -0.484375l3.46875 0q0.46875 0 0.46875 0.484375l0 5.65625q0 0.1875 0.203125 0.1875l5.171875 0q0.484375 0 0.484375 0.484375l0 2.828125zm8.446411 -7.140625q-1.34375 0 -2.203125 -0.859375q-0.859375 -0.875 -0.859375 -2.21875q0 -1.34375 0.859375 -2.203125q0.859375 -0.875 2.203125 -0.875q1.34375 0 2.203125 0.875q0.875 0.859375 0.875 2.203125q0 1.34375 -0.875 2.21875q-0.859375 0.859375 -2.203125 0.859375zm-1.921875 28.21875q-0.46875 0 -0.46875 -0.484375l0 -23.421875q0 -0.484375 0.46875 -0.484375l3.65625 0q0.484375 0 0.484375 0.484375l0 23.421875q0 0.484375 -0.484375 0.484375l-3.65625 0zm21.17749 0.4375q-3.65625 0 -6.25 -1.84375q-2.59375 -1.859375 -3.546875 -5.03125q-0.71875 -2.203125 -0.71875 -5.796875q0 -3.3125 0.71875 -5.8125q0.953125 -3.078125 3.5625 -4.890625q2.625 -1.828125 6.234375 -1.828125q3.59375 0 6.28125 1.828125q2.6875 1.8125 3.5 4.59375q0.296875 0.78125 0.390625 1.59375q0 0.375 -0.4375 0.484375l-3.59375 0.515625l-0.09375 0q-0.34375 0 -0.484375 -0.421875l-0.140625 -0.765625q-0.390625 -1.640625 -1.875 -2.734375q-1.484375 -1.109375 -3.59375 -1.109375q-2.0625 0 -3.515625 1.109375q-1.4375 1.09375 -1.859375 2.921875q-0.4375 1.71875 -0.4375 4.5625q0 2.78125 0.4375 4.5q0.46875 1.921875 1.890625 3.03125q1.421875 1.109375 3.484375 1.109375q2.109375 0 3.609375 -1.109375q1.515625 -1.109375 1.90625 -2.875q0.046875 -0.046875 0.015625 -0.125q-0.015625 -0.078125 0.03125 -0.125l0 -0.1875q0.140625 -0.390625 0.53125 -0.28125l3.59375 0.5625q0.390625 0.109375 0.390625 0.390625l0 0.1875q0 0.4375 -0.25 1.0625q-0.8125 2.921875 -3.5 4.703125q-2.6875 1.78125 -6.28125 1.78125z" fill-rule="nonzero"/><path fill="#eaebed" d="m270.55902 190.7675q0.234375 -0.28125 0.5625 -0.28125l3.65625 0q0.484375 0 0.484375 0.46875l0 32.640625q0 0.484375 -0.484375 0.484375l-3.65625 0q-0.46875 0 -0.46875 -0.484375l0 -24.578125q0 -0.140625 -0.109375 -0.1875q-0.09375 -0.046875 -0.140625 0.09375l-6.859375 10.46875q-0.1875 0.28125 -0.578125 0.28125l-1.828125 0q-0.328125 0 -0.5625 -0.28125l-6.9218903 -10.375q-0.046875 -0.140625 -0.140625 -0.09375q-0.09375 0.046875 -0.09375 0.203125l0 24.46875q0 0.484375 -0.484375 0.484375l-3.640625 0q-0.484375 0 -0.484375 -0.484375l0 -32.640625q0 -0.46875 0.484375 -0.46875l3.640625 0q0.390625 0 0.578125 0.28125l8.406265 12.578125q0.046875 0.046875 0.140625 0.046875q0.09375 0 0.140625 -0.046875l8.359375 -12.578125zm31.773193 18.046875q0.1875 1.96875 0.140625 4.421875q0 0.46875 -0.484375 0.46875l-15.3125 0q-0.1875 0 -0.1875 0.203125q0 1.625 0.28125 2.484375q0.53125 1.921875 2.140625 3.015625q1.609375 1.078125 4.0625 1.078125q3.546875 0 5.46875 -2.9375q0.234375 -0.484375 0.625 -0.140625l2.734375 1.828125q0.328125 0.28125 0.140625 0.625q-1.34375 2.15625 -3.8125 3.40625q-2.46875 1.25 -5.59375 1.25q-3.5 0 -5.90625 -1.53125q-2.390625 -1.546875 -3.59375 -4.375q-1.15625 -2.828125 -1.15625 -6.875q0 -3.5 0.53125 -5.3125q0.859375 -3.3125 3.453125 -5.234375q2.59375 -1.921875 6.28125 -1.921875q4.859375 0 7.25 2.421875q2.40625 2.421875 2.9375 7.125zm-10.1875 -5.5625q-2.0625 0 -3.40625 1.03125q-1.34375 1.03125 -1.8125 2.75q-0.34375 1.0625 -0.4375 2.6875q0 0.203125 0.1875 0.203125l11.0 0q0.1875 0 0.1875 -0.203125q-0.09375 -1.578125 -0.28125 -2.34375q-0.484375 -1.875 -1.90625 -3.0q-1.40625 -1.125 -3.53125 -1.125zm41.524933 -3.9375q3.65625 0 5.765625 2.1875q2.109375 2.171875 2.109375 6.0625l0 16.03125q0 0.484375 -0.484375 0.484375l-3.59375 0q-0.484375 0 -0.484375 -0.484375l0 -15.0625q0 -2.40625 -1.328125 -3.8125q-1.3125 -1.421875 -3.515625 -1.421875q-2.203125 0 -3.609375 1.390625q-1.390625 1.390625 -1.390625 3.75l0 15.15625q0 0.484375 -0.46875 0.484375l-3.609375 0q-0.484375 0 -0.484375 -0.484375l0 -15.0625q0 -2.40625 -1.3125 -3.8125q-1.3125 -1.421875 -3.53125 -1.421875q-2.203125 0 -3.53125 1.390625q-1.3125 1.390625 -1.3125 3.75l0 15.15625q0 0.484375 -0.484375 0.484375l-3.640625 0q-0.484375 0 -0.484375 -0.484375l0 -23.46875q0 -0.484375 0.484375 -0.484375l3.640625 0q0.484375 0 0.484375 0.484375l0 1.640625q0 0.09375 0.0625 0.140625q0.078125 0.046875 0.171875 -0.046875q2.109375 -2.546875 6.15625 -2.546875q2.4375 0 4.15625 0.9375q1.734375 0.9375 2.703125 2.75q0.140625 0.203125 0.28125 0q1.15625 -1.859375 3.046875 -2.765625q1.90625 -0.921875 4.203125 -0.921875zm33.943817 6.671875q0.765625 2.453125 0.765625 5.8125q0 3.59375 -0.921875 6.140625q-1.046875 3.109375 -3.328125 4.828125q-2.28125 1.703125 -5.734375 1.703125q-1.6875 0 -3.125 -0.671875q-1.4375 -0.671875 -2.5 -1.875q-0.09375 -0.09375 -0.171875 -0.046875q-0.0625 0.046875 -0.0625 0.140625l0 1.578125q0 0.484375 -0.484375 0.484375l-3.640625 0q-0.484375 0 -0.484375 -0.484375l0 -32.640625q0 -0.46875 0.484375 -0.46875l3.640625 0q0.484375 0 0.484375 0.46875l0 10.703125q0 0.109375 0.0625 0.15625q0.078125 0.046875 0.171875 -0.046875q1.0625 -1.203125 2.515625 -1.84375q1.46875 -0.65625 3.109375 -0.65625q3.59375 0 5.890625 1.78125q2.3125 1.765625 3.328125 4.9375zm-5.09375 11.859375q1.203125 -2.265625 1.203125 -5.953125q0 -3.9375 -1.546875 -6.34375q-1.390625 -2.296875 -4.265625 -2.296875q-2.6875 0 -4.078125 2.4375q-1.25 2.21875 -1.25 6.15625q0 3.9375 1.15625 6.046875q1.4375 2.59375 4.21875 2.59375q3.171875 0 4.5625 -2.640625zm31.396667 -9.03125q0.1875 1.96875 0.140625 4.421875q0 0.46875 -0.484375 0.46875l-15.3125 0q-0.1875 0 -0.1875 0.203125q0 1.625 0.28125 2.484375q0.53125 1.921875 2.140625 3.015625q1.609375 1.078125 4.0625 1.078125q3.546875 0 5.46875 -2.9375q0.234375 -0.484375 0.625 -0.140625l2.734375 1.828125q0.328125 0.28125 0.140625 0.625q-1.34375 2.15625 -3.8125 3.40625q-2.46875 1.25 -5.59375 1.25q-3.5 0 -5.90625 -1.53125q-2.390625 -1.546875 -3.59375 -4.375q-1.15625 -2.828125 -1.15625 -6.875q0 -3.5 0.53125 -5.3125q0.859375 -3.3125 3.453125 -5.234375q2.59375 -1.921875 6.28125 -1.921875q4.859375 0 7.25 2.421875q2.40625 2.421875 2.9375 7.125zm-10.1875 -5.5625q-2.0625 0 -3.40625 1.03125q-1.34375 1.03125 -1.8125 2.75q-0.34375 1.0625 -0.4375 2.6875q0 0.203125 0.1875 0.203125l11.0 0q0.1875 0 0.1875 -0.203125q-0.09375 -1.578125 -0.28125 -2.34375q-0.484375 -1.875 -1.90625 -3.0q-1.40625 -1.125 -3.53125 -1.125zm26.837433 -3.84375q1.53125 0 2.78125 0.625q0.34375 0.140625 0.25 0.578125l-0.78125 3.59375q-0.046875 0.4375 -0.5625 0.296875q-0.828125 -0.34375 -1.921875 -0.34375l-0.671875 0.046875q-2.265625 0.09375 -3.734375 1.5625q-1.453125 1.46875 -1.453125 3.8125l0 14.015625q0 0.484375 -0.484375 0.484375l-3.640625 0q-0.484375 0 -0.484375 -0.484375l0 -23.46875q0 -0.484375 0.484375 -0.484375l3.640625 0q0.484375 0 0.484375 0.484375l0 2.546875q0 0.140625 0.0625 0.171875q0.078125 0.015625 0.125 -0.078125q2.15625 -3.359375 5.90625 -3.359375zm15.458649 24.953125q-2.875 0 -5.0625 -0.859375q-2.1875 -0.859375 -3.390625 -2.375q-1.203125 -1.515625 -1.203125 -3.328125l0 -0.53125q0 -0.484375 0.484375 -0.484375l3.453125 0q0.484375 0 0.484375 0.484375l0 0.234375q0 1.34375 1.453125 2.359375q1.46875 1.0 3.734375 1.0q2.15625 0 3.5 -0.9375q1.34375 -0.9375 1.34375 -2.375q0 -1.390625 -1.25 -2.078125q-1.25 -0.703125 -4.03125 -1.46875q-2.734375 -0.765625 -4.578125 -1.5625q-1.84375 -0.796875 -3.125 -2.25q-1.265625 -1.46875 -1.265625 -3.765625q0 -3.21875 2.515625 -5.109375q2.515625 -1.90625 6.703125 -1.90625q2.78125 0 4.90625 0.890625q2.140625 0.890625 3.296875 2.46875q1.15625 1.578125 1.15625 3.546875l0 0.15625q0 0.46875 -0.484375 0.46875l-3.359375 0q-0.484375 0 -0.484375 -0.46875l0 -0.15625q0 -1.390625 -1.375 -2.328125q-1.359375 -0.9375 -3.71875 -0.9375q-2.109375 0 -3.4375 0.828125q-1.3125 0.8125 -1.3125 2.203125q0 1.390625 1.265625 2.109375q1.28125 0.71875 4.109375 1.53125q2.796875 0.78125 4.640625 1.53125q1.84375 0.734375 3.140625 2.203125q1.296875 1.453125 1.296875 3.8125q0 3.265625 -2.578125 5.1875q-2.5625 1.90625 -6.828125 1.90625zm44.1167 -18.375q0.765625 2.453125 0.765625 5.8125q0 3.59375 -0.921875 6.140625q-1.046875 3.109375 -3.328125 4.828125q-2.28125 1.703125 -5.734375 1.703125q-1.6875 0 -3.125 -0.671875q-1.4375 -0.671875 -2.5 -1.875q-0.09375 -0.09375 -0.171875 -0.046875q-0.0625 0.046875 -0.0625 0.140625l0 1.578125q0 0.484375 -0.484375 0.484375l-3.640625 0q-0.484375 0 -0.484375 -0.484375l0 -32.640625q0 -0.46875 0.484375 -0.46875l3.640625 0q0.484375 0 0.484375 0.46875l0 10.703125q0 0.109375 0.0625 0.15625q0.078125 0.046875 0.171875 -0.046875q1.0625 -1.203125 2.515625 -1.84375q1.46875 -0.65625 3.109375 -0.65625q3.59375 0 5.890625 1.78125q2.3125 1.765625 3.328125 4.9375zm-5.09375 11.859375q1.203125 -2.265625 1.203125 -5.953125q0 -3.9375 -1.546875 -6.34375q-1.390625 -2.296875 -4.265625 -2.296875q-2.6875 0 -4.078125 2.4375q-1.25 2.21875 -1.25 6.15625q0 3.9375 1.15625 6.046875q1.4375 2.59375 4.21875 2.59375q3.171875 0 4.5625 -2.640625zm10.512695 15.78125q-0.34375 0 -0.34375 -0.46875l0 -2.84375q0 -0.46875 0.484375 -0.46875l0.09375 0q1.921875 -0.046875 3.03125 -0.484375q1.109375 -0.4375 1.828125 -1.609375q0.71875 -1.171875 1.390625 -3.53125q0.046875 -0.046875 0.015625 -0.15625q-0.015625 -0.125 -0.015625 -0.125l-8.015625 -23.765625l-0.046875 -0.1875q0 -0.34375 0.421875 -0.34375l3.890625 0q0.4375 0 0.578125 0.390625l5.421875 18.09375q0.046875 0.09375 0.140625 0.09375q0.09375 0 0.140625 -0.09375l5.390625 -18.09375q0.140625 -0.390625 0.5625 -0.390625l3.796875 0q0.53125 0 0.390625 0.53125l-8.734375 25.59375q-1.109375 3.296875 -2.21875 4.90625q-1.09375 1.609375 -2.875 2.28125q-1.78125 0.671875 -5.0 0.671875l-0.328125 0zm34.22931 -9.546875q-0.484375 0 -0.484375 -0.484375l0 -32.640625q0 -0.46875 0.484375 -0.46875l3.640625 0q0.484375 0 0.484375 0.46875l0 32.640625q0 0.484375 -0.484375 0.484375l-3.640625 0zm36.808167 -24.765625q3.65625 0 5.765625 2.1875q2.109375 2.171875 2.109375 6.0625l0 16.03125q0 0.484375 -0.484375 0.484375l-3.59375 0q-0.484375 0 -0.484375 -0.484375l0 -15.0625q0 -2.40625 -1.328125 -3.8125q-1.3125 -1.421875 -3.515625 -1.421875q-2.203125 0 -3.609375 1.390625q-1.390625 1.390625 -1.390625 3.75l0 15.15625q0 0.484375 -0.46875 0.484375l-3.609375 0q-0.484375 0 -0.484375 -0.484375l0 -15.0625q0 -2.40625 -1.3125 -3.8125q-1.3125 -1.421875 -3.53125 -1.421875q-2.203125 0 -3.53125 1.390625q-1.3125 1.390625 -1.3125 3.75l0 15.15625q0 0.484375 -0.484375 0.484375l-3.640625 0q-0.484375 0 -0.484375 -0.484375l0 -23.46875q0 -0.484375 0.484375 -0.484375l3.640625 0q0.484375 0 0.484375 0.484375l0 1.640625q0 0.09375 0.0625 0.140625q0.078125 0.046875 0.171875 -0.046875q2.109375 -2.546875 6.15625 -2.546875q2.4375 0 4.15625 0.9375q1.734375 0.9375 2.703125 2.75q0.140625 0.203125 0.28125 0q1.15625 -1.859375 3.046875 -2.765625q1.90625 -0.921875 4.203125 -0.921875zm34.08557 6.484375q0.90625 2.578125 0.90625 6.140625q0 3.359375 -0.765625 5.796875q-1.015625 3.21875 -3.3125 4.984375q-2.296875 1.75 -5.90625 1.75q-1.625 0 -3.09375 -0.640625q-1.46875 -0.65625 -2.515625 -1.859375q-0.09375 -0.09375 -0.171875 -0.046875q-0.078125 0.046875 -0.078125 0.140625l0 10.703125q0 0.484375 -0.46875 0.484375l-3.65625 0q-0.484375 0 -0.484375 -0.484375l0 -32.640625q0 -0.484375 0.484375 -0.484375l3.65625 0q0.46875 0 0.46875 0.484375l0 1.578125q0 0.109375 0.078125 0.15625q0.078125 0.046875 0.171875 -0.046875q1.046875 -1.203125 2.484375 -1.875q1.453125 -0.671875 3.125 -0.671875q3.453125 0 5.734375 1.703125q2.28125 1.703125 3.34375 4.828125zm-5.28125 12.375q1.53125 -2.296875 1.53125 -6.328125q0 -3.703125 -1.203125 -5.953125q-1.390625 -2.640625 -4.546875 -2.640625q-2.796875 0 -4.234375 2.59375q-1.15625 2.0625 -1.15625 6.046875q0 4.03125 1.25 6.140625q1.390625 2.453125 4.078125 2.453125q2.890625 0 4.28125 -2.3125zm22.940308 -18.765625q1.53125 0 2.78125 0.625q0.34375 0.140625 0.25 0.578125l-0.78125 3.59375q-0.046875 0.4375 -0.5625 0.296875q-0.828125 -0.34375 -1.921875 -0.34375l-0.671875 0.046875q-2.265625 0.09375 -3.734375 1.5625q-1.453125 1.46875 -1.453125 3.8125l0 14.015625q0 0.484375 -0.484375 0.484375l-3.640625 0q-0.484375 0 -0.484375 -0.484375l0 -23.46875q0 -0.484375 0.484375 -0.484375l3.640625 0q0.484375 0 0.484375 0.484375l0 2.546875q0 0.140625 0.0625 0.171875q0.078125 0.015625 0.125 -0.078125q2.15625 -3.359375 5.90625 -3.359375zm16.705261 25.0625q-3.546875 0 -6.1875 -1.796875q-2.640625 -1.8125 -3.703125 -5.03125q-0.859375 -2.59375 -0.859375 -5.84375q0 -3.421875 0.8125 -5.765625q1.0625 -3.171875 3.703125 -4.96875q2.640625 -1.796875 6.28125 -1.796875q3.453125 0 6.015625 1.796875q2.578125 1.796875 3.6875 4.921875q0.859375 2.453125 0.859375 5.75q0 3.375 -0.859375 5.90625q-1.0625 3.21875 -3.65625 5.03125q-2.59375 1.796875 -6.09375 1.796875zm0 -3.984375q1.921875 0 3.359375 -1.078125q1.4375 -1.09375 2.0625 -3.0625q0.53125 -1.8125 0.53125 -4.5q0 -2.6875 -0.484375 -4.46875q-0.625 -1.96875 -2.0625 -3.046875q-1.4375 -1.078125 -3.5 -1.078125q-1.96875 0 -3.40625 1.078125q-1.4375 1.078125 -2.0625 3.046875q-0.53125 1.671875 -0.53125 4.46875q0 2.78125 0.53125 4.5q0.578125 1.96875 2.03125 3.0625q1.46875 1.078125 3.53125 1.078125zm21.989197 3.59375q-0.4375 0 -0.578125 -0.390625l-7.828125 -23.515625l-0.046875 -0.1875q0 -0.34375 0.4375 -0.34375l4.03125 0q0.421875 0 0.578125 0.390625l5.265625 17.375q0.0625 0.09375 0.15625 0.09375q0.09375 0 0.140625 -0.09375l5.234375 -17.375q0.140625 -0.390625 0.578125 -0.390625l4.03125 0.046875q0.515625 0 0.375 0.53125l-7.765625 23.46875q-0.15625 0.390625 -0.578125 0.390625l-4.03125 0zm19.911804 -28.265625q-1.34375 0 -2.203125 -0.859375q-0.859375 -0.875 -0.859375 -2.21875q0 -1.34375 0.859375 -2.203125q0.859375 -0.875 2.203125 -0.875q1.34375 0 2.203125 0.875q0.875 0.859375 0.875 2.203125q0 1.34375 -0.875 2.21875q-0.859375 0.859375 -2.203125 0.859375zm-1.921875 28.21875q-0.46875 0 -0.46875 -0.484375l0 -23.421875q0 -0.484375 0.46875 -0.484375l3.65625 0q0.484375 0 0.484375 0.484375l0 23.421875q0 0.484375 -0.484375 0.484375l-3.65625 0zm22.27124 -24.71875q3.9375 0 6.234375 2.28125q2.3125 2.28125 2.3125 6.171875l0 15.828125q0 0.484375 -0.484375 0.484375l-3.640625 0q-0.484375 0 -0.484375 -0.484375l0 -14.921875q0 -2.40625 -1.390625 -3.890625q-1.390625 -1.484375 -3.6875 -1.484375q-2.265625 0 -3.703125 1.484375q-1.4375 1.484375 -1.4375 3.84375l0 14.96875q0 0.484375 -0.484375 0.484375l-3.640625 0q-0.484375 0 -0.484375 -0.484375l0 -23.46875q0 -0.484375 0.484375 -0.484375l3.640625 0q0.484375 0 0.484375 0.484375l0 1.734375q0 0.09375 0.0625 0.140625q0.078125 0.046875 0.125 -0.046875q2.0625 -2.640625 6.09375 -2.640625zm30.156738 0.8125q0 -0.484375 0.46875 -0.484375l3.65625 0q0.46875 0 0.46875 0.484375l0 22.703125q0 5.8125 -3.28125 8.296875q-3.28125 2.5 -8.8125 2.5q-0.765625 0 -2.390625 -0.09375q-0.484375 -0.046875 -0.484375 -0.53125l0.140625 -3.3125q0 -0.1875 0.140625 -0.328125q0.15625 -0.140625 0.390625 -0.09375q0.671875 0.046875 1.96875 0.046875q4.078125 0 5.90625 -1.515625q1.828125 -1.515625 1.828125 -5.109375l0 -0.859375q0 -0.109375 -0.078125 -0.15625q-0.078125 -0.046875 -0.171875 0.046875q-2.015625 2.359375 -5.90625 2.359375q-3.109375 0 -5.640625 -1.625q-2.515625 -1.640625 -3.46875 -4.8125q-0.625 -2.109375 -0.625 -5.84375q0 -3.984375 0.71875 -6.15625q0.90625 -2.875 3.234375 -4.625q2.328125 -1.75 5.5 -1.75q3.9375 0 6.1875 2.390625q0.09375 0.109375 0.171875 0.078125q0.078125 -0.03125 0.078125 -0.125l0 -1.484375zm-0.296875 16.125q0.140625 -0.765625 0.21875 -1.625q0.078125 -0.859375 0.078125 -2.890625q0 -2.015625 -0.078125 -2.84375q-0.078125 -0.84375 -0.265625 -1.609375q-0.390625 -1.78125 -1.734375 -2.90625q-1.34375 -1.125 -3.359375 -1.125q-2.015625 0 -3.359375 1.125q-1.34375 1.125 -1.90625 2.90625q-0.53125 1.4375 -0.53125 4.453125q0 3.3125 0.46875 4.515625q0.484375 1.78125 1.890625 2.90625q1.421875 1.125 3.4375 1.125q2.125 0 3.4375 -1.125q1.328125 -1.125 1.703125 -2.90625z" fill-rule="nonzero"/><path fill="#eaebed" d="m242.20586 282.11752q-3.453125 0 -6.125 -1.359375q-2.65625 -1.375 -4.125 -3.890625q-1.453125 -2.53125 -1.453125 -5.796875l0 -12.4375q0 -3.2500153 1.453125 -5.7187653q1.46875 -2.484375 4.125 -3.84375q2.671875 -1.375 6.125 -1.375q3.453125 0 6.09375 1.328125q2.640625 1.3125 4.109375 3.71875q1.46875 2.390625 1.46875 5.5625153l0 0.046875q0 0.234375 -0.15625 0.390625q-0.140625 0.140625 -0.328125 0.140625l-3.65625 0.1875q-0.46875 0 -0.46875 -0.4375l0 -0.140625q0 -3.0625153 -1.921875 -4.9375153q-1.921875 -1.875 -5.140625 -1.875q-3.21875 0 -5.171875 1.875q-1.9375 1.875 -1.9375 4.9375153l0 12.765625q0 3.078125 1.9375 4.953125q1.953125 1.875 5.171875 1.875q3.21875 0 5.140625 -1.875q1.921875 -1.875 1.921875 -4.953125l0 -0.09375q0 -0.421875 0.46875 -0.421875l3.65625 0.1875q0.484375 0 0.484375 0.484375q0 3.15625 -1.46875 5.59375q-1.46875 2.421875 -4.109375 3.765625q-2.640625 1.34375 -6.09375 1.34375zm26.394943 -25.25q2.9375 0 5.109375 1.03125q2.1875 1.03125 3.359375 2.875q1.1875 1.84375 1.1875 4.203125l0 16.21875q0 0.484375 -0.484375 0.484375l-3.640625 0q-0.484375 0 -0.484375 -0.484375l0 -1.71875q0 -0.25 -0.234375 -0.09375q-1.25 1.28125 -3.0625 1.984375q-1.796875 0.703125 -4.0 0.703125q-3.546875 0 -5.875 -1.796875q-2.328125 -1.8125 -2.328125 -5.453125q0 -3.75 2.609375 -5.875q2.625 -2.140625 7.328125 -2.140625l5.375 0q0.1875 0 0.1875 -0.203125l0 -1.296875q0 -2.109375 -1.234375 -3.28125q-1.21875 -1.171875 -3.703125 -1.171875q-2.015625 0 -3.296875 0.796875q-1.265625 0.78125 -1.5625 2.125q-0.140625 0.484375 -0.578125 0.4375l-3.875 -0.53125q-0.484375 -0.09375 -0.4375 -0.390625q0.390625 -2.828125 3.015625 -4.625q2.640625 -1.796875 6.625 -1.796875zm-1.234375 21.3125q2.53125 0 4.40625 -1.34375q1.875 -1.34375 1.875 -3.40625l0 -2.84375q0 -0.1875 -0.1875 -0.1875l-4.515625 0q-2.828125 0 -4.515625 1.109375q-1.671875 1.09375 -1.671875 3.0625q0 1.78125 1.265625 2.703125q1.265625 0.90625 3.34375 0.90625zm25.72229 3.78125q-2.875 0 -5.0625 -0.859375q-2.1875 -0.859375 -3.390625 -2.375q-1.203125 -1.515625 -1.203125 -3.328125l0 -0.53125q0 -0.484375 0.484375 -0.484375l3.453125 0q0.484375 0 0.484375 0.484375l0 0.234375q0 1.34375 1.453125 2.359375q1.46875 1.0 3.734375 1.0q2.15625 0 3.5 -0.9375q1.34375 -0.9375 1.34375 -2.375q0 -1.390625 -1.25 -2.078125q-1.25 -0.703125 -4.03125 -1.46875q-2.734375 -0.765625 -4.578125 -1.5625q-1.84375 -0.796875 -3.125 -2.25q-1.265625 -1.46875 -1.265625 -3.765625q0 -3.21875 2.515625 -5.109375q2.515625 -1.90625 6.703125 -1.90625q2.78125 0 4.90625 0.890625q2.140625 0.890625 3.296875 2.46875q1.15625 1.578125 1.15625 3.546875l0 0.15625q0 0.46875 -0.484375 0.46875l-3.359375 0q-0.484375 0 -0.484375 -0.46875l0 -0.15625q0 -1.390625 -1.375 -2.328125q-1.359375 -0.9375 -3.71875 -0.9375q-2.109375 0 -3.4375 0.828125q-1.3125 0.8125 -1.3125 2.203125q0 1.390625 1.265625 2.109375q1.28125 0.71875 4.109375 1.53125q2.796875 0.78125 4.640625 1.53125q1.84375 0.734375 3.140625 2.203125q1.296875 1.453125 1.296875 3.8125q0 3.265625 -2.578125 5.1875q-2.5625 1.90625 -6.828125 1.90625zm29.329193 -24.234375q0 -0.484375 0.484375 -0.484375l3.59375 0q0.484375 0 0.484375 0.484375l0 23.46875q0 0.484375 -0.484375 0.484375l-3.59375 0q-0.484375 0 -0.484375 -0.484375l0 -1.765625q0 -0.109375 -0.078125 -0.125q-0.0625 -0.03125 -0.171875 0.078125q-1.90625 2.640625 -5.890625 2.640625q-2.359375 0 -4.359375 -0.90625q-1.984375 -0.921875 -3.1875 -2.703125q-1.1875 -1.78125 -1.1875 -4.3125l0 -16.375q0 -0.484375 0.46875 -0.484375l3.609375 0q0.46875 0 0.46875 0.484375l0 14.921875q0 2.5 1.3125 3.953125q1.328125 1.4375 3.734375 1.4375q2.40625 0 3.84375 -1.46875q1.4375 -1.46875 1.4375 -3.921875l0 -14.921875zm20.199036 -0.859375q2.9375 0 5.109375 1.03125q2.1875 1.03125 3.359375 2.875q1.1875 1.84375 1.1875 4.203125l0 16.21875q0 0.484375 -0.484375 0.484375l-3.640625 0q-0.484375 0 -0.484375 -0.484375l0 -1.71875q0 -0.25 -0.234375 -0.09375q-1.25 1.28125 -3.0625 1.984375q-1.796875 0.703125 -4.0 0.703125q-3.546875 0 -5.875 -1.796875q-2.328125 -1.8125 -2.328125 -5.453125q0 -3.75 2.609375 -5.875q2.625 -2.140625 7.328125 -2.140625l5.375 0q0.1875 0 0.1875 -0.203125l0 -1.296875q0 -2.109375 -1.234375 -3.28125q-1.21875 -1.171875 -3.703125 -1.171875q-2.015625 0 -3.296875 0.796875q-1.265625 0.78125 -1.5625 2.125q-0.140625 0.484375 -0.578125 0.4375l-3.875 -0.53125q-0.484375 -0.09375 -0.4375 -0.390625q0.390625 -2.828125 3.015625 -4.625q2.640625 -1.796875 6.625 -1.796875zm-1.234375 21.3125q2.53125 0 4.40625 -1.34375q1.875 -1.34375 1.875 -3.40625l0 -2.84375q0 -0.1875 -0.1875 -0.1875l-4.515625 0q-2.828125 0 -4.515625 1.109375q-1.671875 1.09375 -1.671875 3.0625q0 1.78125 1.265625 2.703125q1.265625 0.90625 3.34375 0.90625zm17.612946 3.5q-0.484375 0 -0.484375 -0.484375l0 -32.64064q0 -0.46875 0.484375 -0.46875l3.640625 0q0.484375 0 0.484375 0.46875l0 32.64064q0 0.484375 -0.484375 0.484375l-3.640625 0zm40.130035 0q-0.390625 0 -0.53125 -0.34375l-6.71875 -14.34375q-0.046875 -0.140625 -0.203125 -0.140625l-6.90625 0q-0.1875 0 -0.1875 0.1875l0 14.15625q0 0.484375 -0.484375 0.484375l-3.640625 0q-0.484375 0 -0.484375 -0.484375l0 -32.64064q0 -0.46875 0.484375 -0.46875l12.90625 0q2.875 0 5.0625 1.203125q2.1875 1.1875 3.375 3.359375q1.203125 2.15625 1.203125 4.9843903q0 3.359375 -1.75 5.6875q-1.75 2.328125 -4.859375 3.140625q-0.203125 0.09375 -0.109375 0.25l6.96875 14.390625q0.046875 0.09375 0.046875 0.234375q0 0.34375 -0.390625 0.34375l-3.78125 0zm-14.359375 -29.60939q-0.1875 0 -0.1875 0.1875l0 10.750015q0 0.1875 0.1875 0.1875l8.015625 0q2.546875 0 4.078125 -1.5q1.546875 -1.515625 1.546875 -4.015625q0 -2.5468903 -1.546875 -4.0781403q-1.53125 -1.53125 -4.078125 -1.53125l-8.015625 0zm26.830322 1.34375q-1.34375 0 -2.203125 -0.859375q-0.859375 -0.875 -0.859375 -2.21875q0 -1.34375 0.859375 -2.203125q0.859375 -0.875 2.203125 -0.875q1.34375 0 2.203125 0.875q0.875 0.859375 0.875 2.203125q0 1.34375 -0.875 2.21875q-0.859375 0.859375 -2.203125 0.859375zm-1.921875 28.218765q-0.46875 0 -0.46875 -0.484375l0 -23.421875q0 -0.484375 0.46875 -0.484375l3.65625 0q0.484375 0 0.484375 0.484375l0 23.421875q0 0.484375 -0.484375 0.484375l-3.65625 0zm26.55252 -33.07814q0 -0.46875 0.484375 -0.46875l3.640625 0q0.484375 0 0.484375 0.46875l0 32.64064q0 0.484375 -0.484375 0.484375l-3.640625 0q-0.484375 0 -0.484375 -0.484375l0 -1.578125q0 -0.09375 -0.078125 -0.140625q-0.0625 -0.046875 -0.171875 0.046875q-1.046875 1.203125 -2.484375 1.875q-1.4375 0.671875 -3.125 0.671875q-3.453125 0 -5.734375 -1.703125q-2.28125 -1.71875 -3.34375 -4.828125q-0.90625 -2.546875 -0.90625 -6.140625q0 -3.359375 0.765625 -5.8125q1.015625 -3.171875 3.3125 -4.9375q2.3125 -1.78125 5.90625 -1.78125q1.625 0 3.09375 0.65625q1.46875 0.640625 2.515625 1.84375q0.109375 0.09375 0.171875 0.046875q0.078125 -0.046875 0.078125 -0.15625l0 -10.70314zm-1.203125 26.937515q1.109375 -2.015625 1.109375 -6.046875q0 -4.03125 -1.203125 -6.15625q-1.390625 -2.4375 -4.078125 -2.4375q-2.890625 0 -4.28125 2.296875q-1.53125 2.40625 -1.53125 6.34375q0 3.6875 1.203125 5.953125q1.390625 2.640625 4.5625 2.640625q2.78125 0 4.21875 -2.59375zm32.356537 -9.078125q0.1875 1.96875 0.140625 4.421875q0 0.46875 -0.484375 0.46875l-15.3125 0q-0.1875 0 -0.1875 0.203125q0 1.625 0.28125 2.484375q0.53125 1.921875 2.140625 3.015625q1.609375 1.078125 4.0625 1.078125q3.546875 0 5.46875 -2.9375q0.234375 -0.484375 0.625 -0.140625l2.734375 1.828125q0.328125 0.28125 0.140625 0.625q-1.34375 2.15625 -3.8125 3.40625q-2.46875 1.25 -5.59375 1.25q-3.5 0 -5.90625 -1.53125q-2.390625 -1.546875 -3.59375 -4.375q-1.15625 -2.828125 -1.15625 -6.875q0 -3.5 0.53125 -5.3125q0.859375 -3.3125 3.453125 -5.234375q2.59375 -1.921875 6.28125 -1.921875q4.859375 0 7.25 2.421875q2.40625 2.421875 2.9375 7.125zm-10.1875 -5.5625q-2.0625 0 -3.40625 1.03125q-1.34375 1.03125 -1.8125 2.75q-0.34375 1.0625 -0.4375 2.6875q0 0.203125 0.1875 0.203125l11.0 0q0.1875 0 0.1875 -0.203125q-0.09375 -1.578125 -0.28125 -2.34375q-0.484375 -1.875 -1.90625 -3.0q-1.40625 -1.125 -3.53125 -1.125zm26.837463 -3.84375q1.53125 0 2.78125 0.625q0.34375 0.140625 0.25 0.578125l-0.78125 3.59375q-0.046875 0.4375 -0.5625 0.296875q-0.828125 -0.34375 -1.921875 -0.34375l-0.671875 0.046875q-2.265625 0.09375 -3.734375 1.5625q-1.453125 1.46875 -1.453125 3.8125l0 14.015625q0 0.484375 -0.484375 0.484375l-3.640625 0q-0.484375 0 -0.484375 -0.484375l0 -23.46875q0 -0.484375 0.484375 -0.484375l3.640625 0q0.484375 0 0.484375 0.484375l0 2.546875q0 0.140625 0.0625 0.171875q0.078125 0.015625 0.125 -0.078125q2.15625 -3.359375 5.90625 -3.359375zm28.079895 25.109375q-3.453125 0 -6.125 -1.359375q-2.65625 -1.375 -4.125 -3.890625q-1.453125 -2.53125 -1.453125 -5.796875l0 -12.4375q0 -3.2500153 1.453125 -5.7187653q1.46875 -2.484375 4.125 -3.84375q2.671875 -1.375 6.125 -1.375q3.453125 0 6.09375 1.328125q2.640625 1.3125 4.109375 3.71875q1.46875 2.390625 1.46875 5.5625153l0 0.046875q0 0.234375 -0.15625 0.390625q-0.140625 0.140625 -0.328125 0.140625l-3.65625 0.1875q-0.46875 0 -0.46875 -0.4375l0 -0.140625q0 -3.0625153 -1.921875 -4.9375153q-1.921875 -1.875 -5.140625 -1.875q-3.21875 0 -5.171875 1.875q-1.9375 1.875 -1.9375 4.9375153l0 12.765625q0 3.078125 1.9375 4.953125q1.953125 1.875 5.171875 1.875q3.21875 0 5.140625 -1.875q1.921875 -1.875 1.921875 -4.953125l0 -0.09375q0 -0.421875 0.46875 -0.421875l3.65625 0.1875q0.484375 0 0.484375 0.484375q0 3.15625 -1.46875 5.59375q-1.46875 2.421875 -4.109375 3.765625q-2.640625 1.34375 -6.09375 1.34375zm27.697449 -0.046875q-3.546875 0 -6.1875 -1.796875q-2.640625 -1.8125 -3.703125 -5.03125q-0.859375 -2.59375 -0.859375 -5.84375q0 -3.421875 0.8125 -5.765625q1.0625 -3.171875 3.703125 -4.96875q2.640625 -1.796875 6.28125 -1.796875q3.453125 0 6.015625 1.796875q2.578125 1.796875 3.6875 4.921875q0.859375 2.453125 0.859375 5.75q0 3.375 -0.859375 5.90625q-1.0625 3.21875 -3.65625 5.03125q-2.59375 1.796875 -6.09375 1.796875zm0 -3.984375q1.921875 0 3.359375 -1.078125q1.4375 -1.09375 2.0625 -3.0625q0.53125 -1.8125 0.53125 -4.5q0 -2.6875 -0.484375 -4.46875q-0.625 -1.96875 -2.0625 -3.046875q-1.4375 -1.078125 -3.5 -1.078125q-1.96875 0 -3.40625 1.078125q-1.4375 1.078125 -2.0625 3.046875q-0.53125 1.671875 -0.53125 4.46875q0 2.78125 0.53125 4.5q0.578125 1.96875 2.03125 3.0625q1.46875 1.078125 3.53125 1.078125zm27.546326 -21.171875q3.9375 0 6.234375 2.28125q2.3125 2.28125 2.3125 6.171875l0 15.828125q0 0.484375 -0.484375 0.484375l-3.640625 0q-0.484375 0 -0.484375 -0.484375l0 -14.921875q0 -2.40625 -1.390625 -3.890625q-1.390625 -1.484375 -3.6875 -1.484375q-2.265625 0 -3.703125 1.484375q-1.4375 1.484375 -1.4375 3.84375l0 14.96875q0 0.484375 -0.484375 0.484375l-3.640625 0q-0.484375 0 -0.484375 -0.484375l0 -23.46875q0 -0.484375 0.484375 -0.484375l3.640625 0q0.484375 0 0.484375 0.484375l0 1.734375q0 0.09375 0.0625 0.140625q0.078125 0.046875 0.125 -0.046875q2.0625 -2.640625 6.09375 -2.640625zm20.89093 24.765625q-0.4375 0 -0.578125 -0.390625l-7.828125 -23.515625l-0.046875 -0.1875q0 -0.34375 0.4375 -0.34375l4.03125 0q0.421875 0 0.578125 0.390625l5.265625 17.375q0.0625 0.09375 0.15625 0.09375q0.09375 0 0.140625 -0.09375l5.234375 -17.375q0.140625 -0.390625 0.578125 -0.390625l4.03125 0.046875q0.515625 0 0.375 0.53125l-7.765625 23.46875q-0.15625 0.390625 -0.578125 0.390625l-4.03125 0zm35.855774 -15.265625q0.1875 1.96875 0.140625 4.421875q0 0.46875 -0.484375 0.46875l-15.3125 0q-0.1875 0 -0.1875 0.203125q0 1.625 0.28125 2.484375q0.53125 1.921875 2.140625 3.015625q1.609375 1.078125 4.0625 1.078125q3.546875 0 5.46875 -2.9375q0.234375 -0.484375 0.625 -0.140625l2.734375 1.828125q0.328125 0.28125 0.140625 0.625q-1.34375 2.15625 -3.8125 3.40625q-2.46875 1.25 -5.59375 1.25q-3.5 0 -5.90625 -1.53125q-2.390625 -1.546875 -3.59375 -4.375q-1.15625 -2.828125 -1.15625 -6.875q0 -3.5 0.53125 -5.3125q0.859375 -3.3125 3.453125 -5.234375q2.59375 -1.921875 6.28125 -1.921875q4.859375 0 7.25 2.421875q2.40625 2.421875 2.9375 7.125zm-10.1875 -5.5625q-2.0625 0 -3.40625 1.03125q-1.34375 1.03125 -1.8125 2.75q-0.34375 1.0625 -0.4375 2.6875q0 0.203125 0.1875 0.203125l11.0 0q0.1875 0 0.1875 -0.203125q-0.09375 -1.578125 -0.28125 -2.34375q-0.484375 -1.875 -1.90625 -3.0q-1.40625 -1.125 -3.53125 -1.125zm26.837402 -3.84375q1.53125 0 2.78125 0.625q0.34375 0.140625 0.25 0.578125l-0.78125 3.59375q-0.046875 0.4375 -0.5625 0.296875q-0.828125 -0.34375 -1.921875 -0.34375l-0.671875 0.046875q-2.265625 0.09375 -3.734375 1.5625q-1.453125 1.46875 -1.453125 3.8125l0 14.015625q0 0.484375 -0.484375 0.484375l-3.640625 0q-0.484375 0 -0.484375 -0.484375l0 -23.46875q0 -0.484375 0.484375 -0.484375l3.640625 0q0.484375 0 0.484375 0.484375l0 2.546875q0 0.140625 0.0625 0.171875q0.078125 0.015625 0.125 -0.078125q2.15625 -3.359375 5.90625 -3.359375zm15.458679 24.953125q-2.875 0 -5.0625 -0.859375q-2.1875 -0.859375 -3.390625 -2.375q-1.203125 -1.515625 -1.203125 -3.328125l0 -0.53125q0 -0.484375 0.484375 -0.484375l3.453125 0q0.484375 0 0.484375 0.484375l0 0.234375q0 1.34375 1.453125 2.359375q1.46875 1.0 3.734375 1.0q2.15625 0 3.5 -0.9375q1.34375 -0.9375 1.34375 -2.375q0 -1.390625 -1.25 -2.078125q-1.25 -0.703125 -4.03125 -1.46875q-2.734375 -0.765625 -4.578125 -1.5625q-1.84375 -0.796875 -3.125 -2.25q-1.265625 -1.46875 -1.265625 -3.765625q0 -3.21875 2.515625 -5.109375q2.515625 -1.90625 6.703125 -1.90625q2.78125 0 4.90625 0.890625q2.140625 0.890625 3.296875 2.46875q1.15625 1.578125 1.15625 3.546875l0 0.15625q0 0.46875 -0.484375 0.46875l-3.359375 0q-0.484375 0 -0.484375 -0.46875l0 -0.15625q0 -1.390625 -1.375 -2.328125q-1.359375 -0.9375 -3.71875 -0.9375q-2.109375 0 -3.4375 0.828125q-1.3125 0.8125 -1.3125 2.203125q0 1.390625 1.265625 2.109375q1.28125 0.71875 4.109375 1.53125q2.796875 0.78125 4.640625 1.53125q1.84375 0.734375 3.140625 2.203125q1.296875 1.453125 1.296875 3.8125q0 3.265625 -2.578125 5.1875q-2.5625 1.90625 -6.828125 1.90625zm17.563538 -28.54689q-1.34375 0 -2.203125 -0.859375q-0.859375 -0.875 -0.859375 -2.21875q0 -1.34375 0.859375 -2.203125q0.859375 -0.875 2.203125 -0.875q1.34375 0 2.203125 0.875q0.875 0.859375 0.875 2.203125q0 1.34375 -0.875 2.21875q-0.859375 0.859375 -2.203125 0.859375zm-1.921875 28.218765q-0.46875 0 -0.46875 -0.484375l0 -23.421875q0 -0.484375 0.46875 -0.484375l3.65625 0q0.484375 0 0.484375 0.484375l0 23.421875q0 0.484375 -0.484375 0.484375l-3.65625 0zm21.365051 0.4375q-3.546875 0 -6.1875 -1.796875q-2.640625 -1.8125 -3.703125 -5.03125q-0.859375 -2.59375 -0.859375 -5.84375q0 -3.421875 0.8125 -5.765625q1.0625 -3.171875 3.703125 -4.96875q2.640625 -1.796875 6.28125 -1.796875q3.453125 0 6.015625 1.796875q2.578125 1.796875 3.6875 4.921875q0.859375 2.453125 0.859375 5.75q0 3.375 -0.859375 5.90625q-1.0625 3.21875 -3.65625 5.03125q-2.59375 1.796875 -6.09375 1.796875zm0 -3.984375q1.921875 0 3.359375 -1.078125q1.4375 -1.09375 2.0625 -3.0625q0.53125 -1.8125 0.53125 -4.5q0 -2.6875 -0.484375 -4.46875q-0.625 -1.96875 -2.0625 -3.046875q-1.4375 -1.078125 -3.5 -1.078125q-1.96875 0 -3.40625 1.078125q-1.4375 1.078125 -2.0625 3.046875q-0.53125 1.671875 -0.53125 4.46875q0 2.78125 0.53125 4.5q0.578125 1.96875 2.03125 3.0625q1.46875 1.078125 3.53125 1.078125zm27.546265 -21.171875q3.9375 0 6.234375 2.28125q2.3125 2.28125 2.3125 6.171875l0 15.828125q0 0.484375 -0.484375 0.484375l-3.640625 0q-0.484375 0 -0.484375 -0.484375l0 -14.921875q0 -2.40625 -1.390625 -3.890625q-1.390625 -1.484375 -3.6875 -1.484375q-2.265625 0 -3.703125 1.484375q-1.4375 1.484375 -1.4375 3.84375l0 14.96875q0 0.484375 -0.484375 0.484375l-3.640625 0q-0.484375 0 -0.484375 -0.484375l0 -23.46875q0 -0.484375 0.484375 -0.484375l3.640625 0q0.484375 0 0.484375 0.484375l0 1.734375q0 0.09375 0.0625 0.140625q0.078125 0.046875 0.125 -0.046875q2.0625 -2.640625 6.09375 -2.640625z" fill-rule="nonzero"/><path fill="#eaebed" d="m402.5805 371.89417q-1.859375 0 -3.21875 -0.5625q-1.34375 -0.578125 -2.078125 -1.640625q-0.734375 -1.0625 -0.734375 -2.46875l0 -0.703125q0 -0.234375 0.25 -0.234375l1.75 0q0.234375 0 0.234375 0.234375l0 0.578125q0 1.21875 1.046875 2.015625q1.0625 0.796875 2.90625 0.796875q1.65625 0 2.5 -0.6875q0.84375 -0.703125 0.84375 -1.828125q0 -0.75 -0.4375 -1.28125q-0.421875 -0.53125 -1.25 -0.96875q-0.828125 -0.453125 -2.421875 -1.0625q-1.75 -0.671875 -2.765625 -1.21875q-1.015625 -0.5625 -1.6875 -1.453125q-0.671875 -0.90625 -0.671875 -2.28125q0 -2.0625 1.46875 -3.234375q1.484375 -1.171875 4.0 -1.171875q1.765625 0 3.109375 0.59375q1.359375 0.59375 2.078125 1.6875q0.734375 1.078125 0.734375 2.484375l0 0.484375q0 0.234375 -0.234375 0.234375l-1.796875 0q-0.25 0 -0.25 -0.234375l0 -0.359375q0 -1.25 -1.0 -2.078125q-0.984375 -0.828125 -2.734375 -0.828125q-1.5 0 -2.3125 0.609375q-0.8125 0.609375 -0.8125 1.765625q0 0.796875 0.40625 1.296875q0.40625 0.5 1.203125 0.90625q0.8125 0.390625 2.46875 1.015625q1.703125 0.671875 2.75 1.234375q1.0625 0.5625 1.75 1.484375q0.703125 0.921875 0.703125 2.296875q0 2.109375 -1.546875 3.34375q-1.546875 1.234375 -4.25 1.234375zm13.000336 -12.59375q1.46875 0 2.5625 0.515625q1.09375 0.515625 1.671875 1.4375q0.59375 0.921875 0.59375 2.09375l0 8.125q0 0.234375 -0.234375 0.234375l-1.828125 0q-0.25 0 -0.25 -0.234375l0 -0.875q0 -0.109375 -0.109375 -0.046875q-0.625 0.65625 -1.53125 1.0q-0.890625 0.34375 -2.0 0.34375q-1.78125 0 -2.953125 -0.890625q-1.15625 -0.90625 -1.15625 -2.734375q0 -1.859375 1.3125 -2.921875q1.3125 -1.078125 3.65625 -1.078125l2.6875 0q0.09375 0 0.09375 -0.09375l0 -0.65625q0 -1.046875 -0.609375 -1.640625q-0.609375 -0.59375 -1.859375 -0.59375q-1.0 0 -1.640625 0.40625q-0.640625 0.390625 -0.78125 1.0625q-0.0625 0.234375 -0.28125 0.21875l-1.953125 -0.265625q-0.234375 -0.046875 -0.21875 -0.1875q0.203125 -1.421875 1.515625 -2.3125q1.328125 -0.90625 3.3125 -0.90625zm-0.625 10.65625q1.28125 0 2.203125 -0.671875q0.9375 -0.671875 0.9375 -1.703125l0 -1.421875q0 -0.09375 -0.09375 -0.09375l-2.25 0q-1.421875 0 -2.265625 0.5625q-0.828125 0.546875 -0.828125 1.53125q0 0.890625 0.625 1.34375q0.640625 0.453125 1.671875 0.453125zm21.267334 -10.640625q1.828125 0 2.875 1.09375q1.0625 1.09375 1.0625 3.046875l0 8.015625q0 0.234375 -0.234375 0.234375l-1.8125 0q-0.234375 0 -0.234375 -0.234375l0 -7.546875q0 -1.1875 -0.65625 -1.890625q-0.65625 -0.71875 -1.765625 -0.71875q-1.109375 0 -1.8125 0.703125q-0.6875 0.6875 -0.6875 1.859375l0 7.59375q0 0.234375 -0.234375 0.234375l-1.796875 0q-0.25 0 -0.25 -0.234375l0 -7.546875q0 -1.1875 -0.65625 -1.890625q-0.65625 -0.71875 -1.765625 -0.71875q-1.109375 0 -1.765625 0.703125q-0.65625 0.6875 -0.65625 1.859375l0 7.59375q0 0.234375 -0.234375 0.234375l-1.828125 0q-0.234375 0 -0.234375 -0.234375l0 -11.734375q0 -0.25 0.234375 -0.25l1.828125 0q0.234375 0 0.234375 0.25l0 0.8125q0 0.046875 0.03125 0.078125q0.046875 0.015625 0.09375 -0.03125q1.046875 -1.28125 3.0625 -1.28125q1.234375 0 2.09375 0.46875q0.859375 0.46875 1.34375 1.390625q0.078125 0.09375 0.140625 0q0.578125 -0.9375 1.515625 -1.390625q0.953125 -0.46875 2.109375 -0.46875zm16.867432 4.765625q0.09375 0.984375 0.078125 2.203125q0 0.234375 -0.234375 0.234375l-7.65625 0q-0.109375 0 -0.109375 0.09375q0 0.828125 0.15625 1.25q0.265625 0.96875 1.0625 1.515625q0.796875 0.53125 2.03125 0.53125q1.765625 0 2.734375 -1.46875q0.125 -0.234375 0.3125 -0.078125l1.359375 0.921875q0.171875 0.140625 0.078125 0.3125q-0.671875 1.078125 -1.90625 1.703125q-1.234375 0.625 -2.796875 0.625q-1.75 0 -2.953125 -0.765625q-1.203125 -0.765625 -1.796875 -2.1875q-0.578125 -1.421875 -0.578125 -3.4375q0 -1.75 0.265625 -2.65625q0.4375 -1.65625 1.71875 -2.609375q1.296875 -0.96875 3.15625 -0.96875q2.421875 0 3.609375 1.21875q1.203125 1.203125 1.46875 3.5625zm-5.078125 -2.796875q-1.03125 0 -1.703125 0.515625q-0.671875 0.515625 -0.921875 1.390625q-0.15625 0.53125 -0.21875 1.34375q0 0.09375 0.109375 0.09375l5.484375 0q0.109375 0 0.109375 -0.09375q-0.0625 -0.796875 -0.15625 -1.1875q-0.234375 -0.921875 -0.953125 -1.484375q-0.703125 -0.578125 -1.75 -0.578125zm17.942108 2.796875q0.09375 0.984375 0.078125 2.203125q0 0.234375 -0.234375 0.234375l-7.65625 0q-0.109375 0 -0.109375 0.09375q0 0.828125 0.15625 1.25q0.265625 0.96875 1.0625 1.515625q0.796875 0.53125 2.03125 0.53125q1.765625 0 2.734375 -1.46875q0.125 -0.234375 0.3125 -0.078125l1.359375 0.921875q0.171875 0.140625 0.078125 0.3125q-0.671875 1.078125 -1.90625 1.703125q-1.234375 0.625 -2.796875 0.625q-1.75 0 -2.953125 -0.765625q-1.203125 -0.765625 -1.796875 -2.1875q-0.578125 -1.421875 -0.578125 -3.4375q0 -1.75 0.265625 -2.65625q0.4375 -1.65625 1.71875 -2.609375q1.296875 -0.96875 3.15625 -0.96875q2.421875 0 3.609375 1.21875q1.203125 1.203125 1.46875 3.5625zm-5.078125 -2.796875q-1.03125 0 -1.703125 0.515625q-0.671875 0.515625 -0.921875 1.390625q-0.15625 0.53125 -0.21875 1.34375q0 0.09375 0.109375 0.09375l5.484375 0q0.109375 0 0.109375 -0.09375q-0.0625 -0.796875 -0.15625 -1.1875q-0.234375 -0.921875 -0.953125 -1.484375q-0.703125 -0.578125 -1.75 -0.578125zm12.957703 10.609375q-1.828125 0 -3.125 -0.921875q-1.296875 -0.921875 -1.765625 -2.5q-0.375 -1.109375 -0.375 -2.90625q0 -1.65625 0.375 -2.90625q0.46875 -1.53125 1.78125 -2.4375q1.3125 -0.921875 3.109375 -0.921875q1.796875 0 3.140625 0.921875q1.34375 0.90625 1.75 2.296875q0.140625 0.375 0.1875 0.78125q0 0.203125 -0.203125 0.25l-1.8125 0.265625l-0.046875 0q-0.15625 0 -0.234375 -0.21875l-0.078125 -0.390625q-0.1875 -0.8125 -0.9375 -1.359375q-0.734375 -0.5625 -1.796875 -0.5625q-1.03125 0 -1.75 0.5625q-0.71875 0.546875 -0.9375 1.453125q-0.21875 0.875 -0.21875 2.28125q0 1.390625 0.21875 2.265625q0.25 0.953125 0.953125 1.515625q0.703125 0.546875 1.734375 0.546875q1.0625 0 1.8125 -0.546875q0.765625 -0.5625 0.953125 -1.453125q0.03125 -0.015625 0.015625 -0.046875q-0.015625 -0.046875 0.015625 -0.0625l0 -0.109375q0.0625 -0.1875 0.25 -0.140625l1.8125 0.296875q0.1875 0.046875 0.1875 0.1875l0 0.09375q0 0.21875 -0.125 0.53125q-0.40625 1.46875 -1.75 2.359375q-1.34375 0.875 -3.140625 0.875zm7.9677124 -0.1875q-0.234375 0 -0.234375 -0.234375l0 -16.328125q0 -0.234375 0.234375 -0.234375l1.828125 0q0.234375 0 0.234375 0.234375l0 9.25q0 0.046875 0.046875 0.078125q0.046875 0.015625 0.078125 -0.03125l4.4375 -4.828125q0.09375 -0.125 0.28125 -0.125l2.140625 0q0.140625 0 0.171875 0.09375q0.046875 0.078125 -0.046875 0.203125l-3.109375 3.5625q-0.046875 0.109375 -0.015625 0.15625l3.671875 7.921875l0.015625 0.09375q0 0.1875 -0.203125 0.1875l-1.921875 0q-0.1875 0 -0.265625 -0.1875l-2.859375 -6.53125q-0.046875 -0.125 -0.125 -0.03125l-2.25 2.5q-0.046875 0.09375 -0.046875 0.125l0 3.890625q0 0.234375 -0.234375 0.234375l-1.828125 0zm26.087952 -8.765625q-0.125 0.078125 0 0.15625q2.546875 1.078125 2.546875 4.0q0 2.203125 -1.46875 3.40625q-1.46875 1.203125 -3.8125 1.203125l-5.984375 0q-0.234375 0 -0.234375 -0.234375l0 -16.328125q0 -0.234375 0.234375 -0.234375l5.78125 0q2.5 0 3.875 1.140625q1.390625 1.140625 1.390625 3.3125q0 2.59375 -2.328125 3.578125zm-6.546875 -6.046875q-0.109375 0 -0.109375 0.09375l0 5.078125q0 0.09375 0.109375 0.09375l3.609375 0q1.40625 0 2.203125 -0.6875q0.796875 -0.703125 0.796875 -1.90625q0 -1.234375 -0.796875 -1.953125q-0.796875 -0.71875 -2.203125 -0.71875l-3.609375 0zm3.8125 12.796875q1.359375 0 2.15625 -0.75q0.8125 -0.765625 0.8125 -2.0625q0 -1.296875 -0.8125 -2.046875q-0.8125 -0.75 -2.234375 -0.75l-3.734375 0q-0.109375 0 -0.109375 0.09375l0 5.421875q0 0.09375 0.109375 0.09375l3.8125 0zm13.913452 -10.375q1.96875 0 3.125 1.140625q1.15625 1.140625 1.15625 3.09375l0 7.921875q0 0.234375 -0.25 0.234375l-1.8125 0q-0.25 0 -0.25 -0.234375l0 -7.46875q0 -1.203125 -0.703125 -1.9375q-0.6875 -0.75 -1.84375 -0.75q-1.125 0 -1.84375 0.75q-0.71875 0.734375 -0.71875 1.90625l0 7.5q0 0.234375 -0.234375 0.234375l-1.828125 0q-0.234375 0 -0.234375 -0.234375l0 -16.328125q0 -0.234375 0.234375 -0.234375l1.828125 0q0.234375 0 0.234375 0.234375l0 5.453125q0 0.046875 0.03125 0.078125q0.046875 0.015625 0.0625 -0.03125q1.03125 -1.328125 3.046875 -1.328125zm12.02356 -0.015625q1.46875 0 2.5625 0.515625q1.09375 0.515625 1.671875 1.4375q0.59375 0.921875 0.59375 2.09375l0 8.125q0 0.234375 -0.234375 0.234375l-1.828125 0q-0.25 0 -0.25 -0.234375l0 -0.875q0 -0.109375 -0.109375 -0.046875q-0.625 0.65625 -1.53125 1.0q-0.890625 0.34375 -2.0 0.34375q-1.78125 0 -2.953125 -0.890625q-1.15625 -0.90625 -1.15625 -2.734375q0 -1.859375 1.3125 -2.921875q1.3125 -1.078125 3.65625 -1.078125l2.6875 0q0.09375 0 0.09375 -0.09375l0 -0.65625q0 -1.046875 -0.609375 -1.640625q-0.609375 -0.59375 -1.859375 -0.59375q-1.0 0 -1.640625 0.40625q-0.640625 0.390625 -0.78125 1.0625q-0.0625 0.234375 -0.28125 0.21875l-1.953125 -0.265625q-0.234375 -0.046875 -0.21875 -0.1875q0.203125 -1.421875 1.515625 -2.3125q1.328125 -0.90625 3.3125 -0.90625zm-0.625 10.65625q1.28125 0 2.203125 -0.671875q0.9375 -0.671875 0.9375 -1.703125l0 -1.421875q0 -0.09375 -0.09375 -0.09375l-2.25 0q-1.421875 0 -2.265625 0.5625q-0.828125 0.546875 -0.828125 1.53125q0 0.890625 0.625 1.34375q0.640625 0.453125 1.671875 0.453125zm14.42749 -8.8125q0 0.25 -0.234375 0.25l-2.59375 0q-0.09375 0 -0.09375 0.09375l0 6.359375q0 1.0 0.453125 1.453125q0.453125 0.4375 1.40625 0.4375l0.703125 0q0.234375 0 0.234375 0.234375l0 1.5q0 0.234375 -0.234375 0.234375q-0.765625 0.046875 -1.109375 0.046875q-1.8125 0 -2.75 -0.65625q-0.921875 -0.65625 -0.921875 -2.4375l0 -7.171875q0 -0.09375 -0.09375 -0.09375l-1.453125 0q-0.25 0 -0.25 -0.25l0 -1.40625q0 -0.25 0.25 -0.25l1.453125 0q0.09375 0 0.09375 -0.09375l0 -2.828125q0 -0.25 0.25 -0.25l1.71875 0q0.25 0 0.25 0.25l0 2.828125q0 0.09375 0.09375 0.09375l2.59375 0q0.234375 0 0.234375 0.25l0 1.40625zm4.230957 -3.578125q-0.671875 0 -1.109375 -0.421875q-0.4375 -0.4375 -0.4375 -1.109375q0 -0.671875 0.4375 -1.09375q0.4375 -0.4375 1.109375 -0.4375q0.671875 0 1.09375 0.4375q0.4375 0.421875 0.4375 1.09375q0 0.671875 -0.4375 1.109375q-0.421875 0.421875 -1.09375 0.421875zm-0.96875 14.109375q-0.234375 0 -0.234375 -0.234375l0 -11.703125q0 -0.25 0.234375 -0.25l1.828125 0q0.234375 0 0.234375 0.25l0 11.703125q0 0.234375 -0.234375 0.234375l-1.828125 0zm10.151245 -12.375q1.46875 0 2.5625 0.515625q1.09375 0.515625 1.671875 1.4375q0.59375 0.921875 0.59375 2.09375l0 8.125q0 0.234375 -0.234375 0.234375l-1.828125 0q-0.25 0 -0.25 -0.234375l0 -0.875q0 -0.109375 -0.109375 -0.046875q-0.625 0.65625 -1.53125 1.0q-0.890625 0.34375 -2.0 0.34375q-1.78125 0 -2.953125 -0.890625q-1.15625 -0.90625 -1.15625 -2.734375q0 -1.859375 1.3125 -2.921875q1.3125 -1.078125 3.65625 -1.078125l2.6875 0q0.09375 0 0.09375 -0.09375l0 -0.65625q0 -1.046875 -0.609375 -1.640625q-0.609375 -0.59375 -1.859375 -0.59375q-1.0 0 -1.640625 0.40625q-0.640625 0.390625 -0.78125 1.0625q-0.0625 0.234375 -0.28125 0.21875l-1.953125 -0.265625q-0.234375 -0.046875 -0.21875 -0.1875q0.203125 -1.421875 1.515625 -2.3125q1.328125 -0.90625 3.3125 -0.90625zm-0.625 10.65625q1.28125 0 2.203125 -0.671875q0.9375 -0.671875 0.9375 -1.703125l0 -1.421875q0 -0.09375 -0.09375 -0.09375l-2.25 0q-1.421875 0 -2.265625 0.5625q-0.828125 0.546875 -0.828125 1.53125q0 0.890625 0.625 1.34375q0.640625 0.453125 1.671875 0.453125z" fill-rule="nonzero"/><path fill="#eaebed" d="m419.7018 414.0275q-1.703125 0 -3.0 -0.640625q-1.28125 -0.65625 -1.984375 -1.828125q-0.6875 -1.171875 -0.6875 -2.703125l0 -1.71875q0 -0.234375 0.25 -0.234375l1.8125 0q0.25 0 0.25 0.234375l0 1.71875q0 1.4375 0.90625 2.3125q0.921875 0.875 2.453125 0.875q1.484375 0 2.421875 -0.875q0.9375 -0.875 0.9375 -2.3125l0 -11.578125q0 -0.234375 0.234375 -0.234375l1.828125 0q0.234375 0 0.234375 0.234375l0 11.578125q0 1.53125 -0.703125 2.703125q-0.703125 1.171875 -2.0 1.828125q-1.296875 0.640625 -2.953125 0.640625zm16.583466 -12.15625q0 -0.25 0.234375 -0.25l1.796875 0q0.25 0 0.25 0.25l0 11.734375q0 0.234375 -0.25 0.234375l-1.796875 0q-0.234375 0 -0.234375 -0.234375l0 -0.890625q0 -0.046875 -0.046875 -0.0625q-0.03125 -0.015625 -0.078125 0.03125q-0.953125 1.328125 -2.953125 1.328125q-1.171875 0 -2.171875 -0.453125q-0.984375 -0.46875 -1.59375 -1.34375q-0.59375 -0.890625 -0.59375 -2.171875l0 -8.171875q0 -0.25 0.234375 -0.25l1.796875 0q0.25 0 0.25 0.25l0 7.453125q0 1.25 0.65625 1.96875q0.65625 0.71875 1.859375 0.71875q1.203125 0 1.921875 -0.71875q0.71875 -0.734375 0.71875 -1.96875l0 -7.453125zm11.083832 -0.421875q1.96875 0 3.125 1.140625q1.15625 1.140625 1.15625 3.09375l0 7.921875q0 0.234375 -0.25 0.234375l-1.8125 0q-0.25 0 -0.25 -0.234375l0 -7.46875q0 -1.203125 -0.703125 -1.9375q-0.6875 -0.75 -1.84375 -0.75q-1.125 0 -1.84375 0.75q-0.71875 0.734375 -0.71875 1.90625l0 7.5q0 0.234375 -0.234375 0.234375l-1.828125 0q-0.234375 0 -0.234375 -0.234375l0 -11.734375q0 -0.25 0.234375 -0.25l1.828125 0q0.234375 0 0.234375 0.25l0 0.859375q0 0.046875 0.03125 0.078125q0.046875 0.015625 0.0625 -0.03125q1.03125 -1.328125 3.046875 -1.328125zm17.301453 4.765625q0.09375 0.984375 0.078125 2.203125q0 0.234375 -0.234375 0.234375l-7.65625 0q-0.109375 0 -0.109375 0.09375q0 0.828125 0.15625 1.25q0.265625 0.96875 1.0625 1.515625q0.796875 0.53125 2.03125 0.53125q1.765625 0 2.734375 -1.46875q0.125 -0.234375 0.3125 -0.078125l1.359375 0.921875q0.171875 0.140625 0.078125 0.3125q-0.671875 1.078125 -1.90625 1.703125q-1.234375 0.625 -2.796875 0.625q-1.75 0 -2.953125 -0.765625q-1.203125 -0.765625 -1.796875 -2.1875q-0.578125 -1.421875 -0.578125 -3.4375q0 -1.75 0.265625 -2.65625q0.4375 -1.65625 1.71875 -2.609375q1.296875 -0.96875 3.15625 -0.96875q2.421875 0 3.609375 1.21875q1.203125 1.203125 1.46875 3.5625zm-5.078125 -2.796875q-1.03125 0 -1.703125 0.515625q-0.671875 0.515625 -0.921875 1.390625q-0.15625 0.53125 -0.21875 1.34375q0 0.09375 0.109375 0.09375l5.484375 0q0.109375 0 0.109375 -0.09375q-0.0625 -0.796875 -0.15625 -1.1875q-0.234375 -0.921875 -0.953125 -1.484375q-0.703125 -0.578125 -1.75 -0.578125zm22.054596 -3.421875q0.359375 1.0 0.359375 2.328125l0 7.390625q0 1.96875 -1.375 3.140625q-1.359375 1.171875 -3.578125 1.171875q-1.40625 0 -2.5 -0.515625q-1.09375 -0.53125 -1.703125 -1.484375q-0.59375 -0.953125 -0.59375 -2.171875l0 -0.484375q0 -0.234375 0.25 -0.234375l1.8125 0q0.25 0 0.25 0.234375l0 0.21875q0 1.078125 0.6875 1.75q0.703125 0.671875 1.796875 0.671875q1.15625 0 1.890625 -0.6875q0.75 -0.703125 0.75 -1.859375l0 -3.015625q0 -0.046875 -0.03125 -0.0625q-0.03125 -0.03125 -0.078125 0.015625q-1.03125 1.171875 -3.0 1.171875q-1.421875 0 -2.4375 -0.578125q-1.015625 -0.578125 -1.59375 -1.671875q-0.671875 -1.28125 -0.671875 -3.046875q0 -1.453125 0.453125 -2.578125q0.546875 -1.359375 1.71875 -2.09375q1.1875 -0.734375 2.84375 -0.734375q1.765625 0 2.984375 0.8125q1.234375 0.8125 1.765625 2.3125zm-2.328125 4.203125q0.375 -0.796875 0.375 -2.046875q0 -1.015625 -0.3125 -1.703125q-0.3125 -0.765625 -0.9375 -1.15625q-0.609375 -0.40625 -1.5 -0.40625q-0.890625 0 -1.5 0.40625q-0.609375 0.390625 -0.90625 1.125q-0.359375 0.75 -0.359375 1.859375q0 1.1875 0.40625 1.96875q0.75 1.390625 2.359375 1.390625q1.703125 0 2.375 -1.4375zm5.662445 11.703125q-0.125 0 -0.1875 -0.078125q-0.046875 -0.0625 -0.03125 -0.1875l0.96875 -5.328125q0.046875 -0.21875 0.25 -0.21875l1.59375 0q0.109375 0 0.171875 0.078125q0.0625 0.078125 0.046875 0.1875l-1.421875 5.328125q-0.046875 0.21875 -0.265625 0.21875l-1.125 0zm13.823456 -4.171875q-0.03125 0.046875 -0.015625 0.09375q0.03125 0.03125 0.09375 0.03125l7.21875 0q0.234375 0 0.234375 0.234375l0 1.515625q0 0.234375 -0.234375 0.234375l-10.0625 0q-0.234375 0 -0.234375 -0.234375l0 -1.46875q0 -0.171875 0.125 -0.28125q0.8125 -0.9375 3.734375 -4.40625l1.65625 -1.984375q2.234375 -2.671875 2.234375 -4.125q0 -1.125 -0.765625 -1.8125q-0.75 -0.6875 -2.0 -0.6875q-1.234375 0 -1.984375 0.703125q-0.75 0.6875 -0.71875 1.8125l0 0.71875q0 0.25 -0.234375 0.25l-1.859375 0q-0.234375 0 -0.234375 -0.25l0 -1.03125q0.046875 -1.25 0.703125 -2.203125q0.65625 -0.953125 1.78125 -1.46875q1.140625 -0.515625 2.546875 -0.515625q1.546875 0 2.6875 0.578125q1.15625 0.5625 1.78125 1.578125q0.625 1.0 0.625 2.28125q0 1.984375 -2.15625 4.703125q-0.96875 1.21875 -2.296875 2.75q-1.3125 1.515625 -2.625 2.984375zm15.524719 2.34375q-2.421875 0 -3.859375 -1.375q-1.421875 -1.375 -1.421875 -3.703125l0 -7.109375q0 -2.328125 1.421875 -3.6875q1.4375 -1.375 3.859375 -1.375q2.421875 0 3.875 1.375q1.453125 1.359375 1.453125 3.6875l0 7.109375q0 2.328125 -1.453125 3.703125q-1.453125 1.375 -3.875 1.375zm0 -1.984375q1.390625 0 2.203125 -0.796875q0.828125 -0.8125 0.828125 -2.15625l0 -7.34375q0 -1.34375 -0.828125 -2.140625q-0.8125 -0.8125 -2.203125 -0.8125q-1.34375 0 -2.15625 0.8125q-0.8125 0.796875 -0.8125 2.140625l0 7.34375q0 1.34375 0.8125 2.15625q0.8125 0.796875 2.15625 0.796875zm11.115234 -0.359375q-0.03125 0.046875 -0.015625 0.09375q0.03125 0.03125 0.09375 0.03125l7.21875 0q0.234375 0 0.234375 0.234375l0 1.515625q0 0.234375 -0.234375 0.234375l-10.0625 0q-0.234375 0 -0.234375 -0.234375l0 -1.46875q0 -0.171875 0.125 -0.28125q0.8125 -0.9375 3.734375 -4.40625l1.65625 -1.984375q2.234375 -2.671875 2.234375 -4.125q0 -1.125 -0.765625 -1.8125q-0.75 -0.6875 -2.0 -0.6875q-1.234375 0 -1.984375 0.703125q-0.75 0.6875 -0.71875 1.8125l0 0.71875q0 0.25 -0.234375 0.25l-1.859375 0q-0.234375 0 -0.234375 -0.25l0 -1.03125q0.046875 -1.25 0.703125 -2.203125q0.65625 -0.953125 1.78125 -1.46875q1.140625 -0.515625 2.546875 -0.515625q1.546875 0 2.6875 0.578125q1.15625 0.5625 1.78125 1.578125q0.625 1.0 0.625 2.28125q0 1.984375 -2.15625 4.703125q-0.96875 1.21875 -2.296875 2.75q-1.3125 1.515625 -2.625 2.984375zm19.277466 -5.859375q0.46875 1.171875 0.46875 2.71875q0 1.265625 -0.375 2.34375q-0.53125 1.484375 -1.765625 2.296875q-1.21875 0.796875 -2.9375 0.796875q-1.734375 0 -3.0 -0.875q-1.25 -0.890625 -1.75 -2.40625q-0.265625 -0.671875 -0.3125 -1.921875q0 -0.234375 0.234375 -0.234375l1.84375 0q0.25 0 0.25 0.234375q0.046875 0.859375 0.1875 1.265625q0.234375 0.890625 0.890625 1.421875q0.671875 0.53125 1.65625 0.53125q1.8125 0 2.4375 -1.65625q0.3125 -0.71875 0.3125 -1.875q0 -1.21875 -0.375 -2.1875q-0.671875 -1.484375 -2.40625 -1.484375q-0.40625 0 -1.03125 0.359375q-0.09375 0.046875 -0.140625 0.046875q-0.125 0 -0.1875 -0.125l-0.921875 -1.234375q-0.046875 -0.109375 -0.046875 -0.171875q0 -0.078125 0.078125 -0.171875l4.09375 -4.390625q0.078125 -0.125 -0.046875 -0.125l-6.375 0q-0.25 0 -0.25 -0.234375l0 -1.515625q0 -0.234375 0.25 -0.234375l9.3125 0q0.234375 0 0.234375 0.234375l0 1.734375q0 0.109375 -0.125 0.28125l-3.640625 3.984375q-0.046875 0.046875 -0.03125 0.09375q0.03125 0.03125 0.109375 0.046875q1.21875 0.125 2.046875 0.765625q0.84375 0.625 1.3125 1.6875z" fill-rule="nonzero"/><path fill="#000000" fill-opacity="0.0" d="m465.1181 318.9449l29.763794 0" fill-rule="evenodd"/><path stroke="#eaebed" stroke-width="4.0" stroke-linejoin="round" stroke-linecap="butt" d="m465.1181 318.9449l29.763794 0" fill-rule="evenodd"/></g></svg>