<svg version="1.1" viewBox="0.0 0.0 960.0 540.0" fill="none" stroke="none" stroke-linecap="square" stroke-miterlimit="10" xmlns:xlink="http://www.w3.org/1999/xlink" xmlns="http://www.w3.org/2000/svg"><clipPath id="g1f172323af3_0_3.0"><path d="m0 0l960.0 0l0 540.0l-960.0 0l0 -540.0z" clip-rule="nonzero"/></clipPath><g clip-path="url(#g1f172323af3_0_3.0)"><path fill="#292929" d="m0 0l960.0 0l0 540.0l-960.0 0z" fill-rule="evenodd"/><path fill="#2596c3" d="m960.18896 0l0 96.91338l-960.3779 0l0 -96.91338z" fill-rule="evenodd"/><path fill="#000000" fill-opacity="0.0" d="m960.0 96.91285l-960.0 0" fill-rule="evenodd"/><path stroke="#eaebed" stroke-width="8.0" stroke-linejoin="round" stroke-linecap="butt" d="m960.0 96.91285l-960.0 0" fill-rule="evenodd"/><path fill="#000000" fill-opacity="0.0" d="m24.055119 19.370079l628.28345 0l0 58.173225l-628.28345 0z" fill-rule="evenodd"/><path fill="#eaebed" d="m49.914494 37.570442q0.328125 0 0.328125 0.328125l0 2.046875q0 0.3125 -0.328125 0.3125l-6.140625 0q-0.125 0 -0.125 0.140625l0 19.265625q0 0.3125 -0.328125 0.3125l-2.421875 0q-0.328125 0 -0.328125 -0.3125l0 -19.265625q0 -0.140625 -0.125 -0.140625l-5.859375 0q-0.3125 0 -0.3125 -0.3125l0 -2.046875q0 -0.328125 0.3125 -0.328125l15.328125 0zm8.992157 5.859375q1.953125 0 3.40625 0.6875q1.46875 0.6875 2.2499962 1.921875q0.78125 1.234375 0.78125 2.796875l0 10.828125q0 0.3125 -0.328125 0.3125l-2.4218712 0q-0.328125 0 -0.328125 -0.3125l0 -1.15625q0 -0.15625 -0.15625 -0.0625q-0.828125 0.859375 -2.03125 1.328125q-1.203125 0.453125 -2.671875 0.453125q-2.375 0 -3.921875 -1.1875q-1.546875 -1.203125 -1.546875 -3.640625q0 -2.5 1.734375 -3.921875q1.75 -1.421875 4.890625 -1.421875l3.578125 0q0.125 0 0.125 -0.125l0 -0.859375q0 -1.40625 -0.8125 -2.1875q-0.8125 -0.796875 -2.484375 -0.796875q-1.34375 0 -2.1875 0.53125q-0.84375 0.53125 -1.03125 1.421875q-0.109375 0.328125 -0.390625 0.296875l-2.59375 -0.359375q-0.3125 -0.0625 -0.28125 -0.25q0.25 -1.890625 2.0 -3.09375q1.765625 -1.203125 4.421875 -1.203125zm-0.828125 14.203125q1.703125 0 2.9375 -0.890625q1.25 -0.890625 1.25 -2.265625l0 -1.890625q0 -0.125 -0.125 -0.125l-3.0 0q-1.890625 0 -3.015625 0.734375q-1.125 0.734375 -1.125 2.046875q0 1.1875 0.84375 1.796875q0.859375 0.59375 2.234375 0.59375zm24.575283 -9.71875q0.515625 1.625 0.515625 3.875q0 2.390625 -0.609375 4.09375q-0.703125 2.078125 -2.234375 3.21875q-1.515625 1.125 -3.8125 1.125q-1.125 0 -2.09375 -0.4375q-0.953125 -0.453125 -1.65625 -1.25q-0.0625 -0.0625 -0.109375 -0.03125q-0.046875 0.03125 -0.046875 0.09375l0 1.0625q0 0.3125 -0.3125 0.3125l-2.4375 0q-0.328125 0 -0.328125 -0.3125l0 -21.765625q0 -0.328125 0.328125 -0.328125l2.4375 0q0.3125 0 0.3125 0.328125l0 7.140625q0 0.0625 0.046875 0.09375q0.046875 0.03125 0.109375 -0.03125q0.703125 -0.8125 1.671875 -1.234375q0.984375 -0.4375 2.078125 -0.4375q2.390625 0 3.921875 1.1875q1.546875 1.1875 2.21875 3.296875zm-3.390625 7.90625q0.796875 -1.5 0.796875 -3.96875q0 -2.625 -1.015625 -4.234375q-0.9375 -1.53125 -2.859375 -1.53125q-1.78125 0 -2.71875 1.640625q-0.828125 1.46875 -0.828125 4.09375q0 2.625 0.765625 4.03125q0.96875 1.71875 2.8125 1.71875q2.125 0 3.046875 -1.75zm8.25853 4.15625q-0.328125 0 -0.328125 -0.3125l0 -21.765625q0 -0.328125 0.328125 -0.328125l2.421875 0q0.328125 0 0.328125 0.328125l0 21.765625q0 0.3125 -0.328125 0.3125l-2.421875 0zm20.379395 -10.171875q0.125 1.3125 0.09375 2.9375q0 0.328125 -0.3125 0.328125l-10.21875 0q-0.125 0 -0.125 0.125q0 1.078125 0.203125 1.65625q0.34375 1.28125 1.40625 2.0q1.078125 0.71875 2.71875 0.71875q2.359375 0 3.640625 -1.953125q0.15625 -0.3125 0.421875 -0.09375l1.828125 1.21875q0.21875 0.1875 0.09375 0.421875q-0.90625 1.4375 -2.5625 2.265625q-1.640625 0.828125 -3.71875 0.828125q-2.328125 0 -3.9375 -1.015625q-1.59375 -1.03125 -2.390625 -2.90625q-0.765625 -1.890625 -0.765625 -4.578125q0 -2.34375 0.34375 -3.5625q0.578125 -2.203125 2.296875 -3.484375q1.734375 -1.28125 4.203125 -1.28125q3.234375 0 4.828125 1.625q1.609375 1.609375 1.953125 4.75zm-6.78125 -3.71875q-1.375 0 -2.28125 0.6875q-0.890625 0.6875 -1.203125 1.84375q-0.234375 0.703125 -0.296875 1.796875q0 0.125 0.125 0.125l7.328125 0q0.140625 0 0.140625 -0.125q-0.0625 -1.0625 -0.203125 -1.578125q-0.3125 -1.25 -1.265625 -2.0q-0.9375 -0.75 -2.34375 -0.75zm23.802048 14.140625q-2.359375 0 -4.125 -1.1875q-1.75 -1.203125 -2.46875 -3.34375q-0.5625 -1.734375 -0.5625 -3.90625q0 -2.28125 0.53125 -3.84375q0.703125 -2.109375 2.46875 -3.3125q1.765625 -1.203125 4.1875 -1.203125q2.3125 0 4.015625 1.203125q1.71875 1.203125 2.453125 3.28125q0.578125 1.625 0.578125 3.84375q0 2.234375 -0.578125 3.9375q-0.703125 2.140625 -2.4375 3.34375q-1.71875 1.1875 -4.0625 1.1875zm0 -2.65625q1.28125 0 2.234375 -0.71875q0.96875 -0.71875 1.390625 -2.03125q0.34375 -1.21875 0.34375 -3.0q0 -1.796875 -0.3125 -2.984375q-0.421875 -1.3125 -1.390625 -2.03125q-0.953125 -0.71875 -2.328125 -0.71875q-1.3125 0 -2.28125 0.71875q-0.953125 0.71875 -1.359375 2.03125q-0.359375 1.125 -0.359375 2.984375q0 1.859375 0.359375 3.0q0.375 1.3125 1.34375 2.03125q0.984375 0.71875 2.359375 0.71875zm17.987656 -17.3125q-1.59375 0 -2.171875 0.609375q-0.578125 0.609375 -0.578125 2.3125l0 0.375q0 0.140625 0.125 0.140625l3.359375 0q0.328125 0 0.328125 0.3125l0 2.171875q0 0.328125 -0.328125 0.328125l-3.359375 0q-0.125 0 -0.125 0.125l0 13.03125q0 0.3125 -0.3125 0.3125l-2.4375 0q-0.328125 0 -0.328125 -0.3125l0 -13.03125q0 -0.125 -0.125 -0.125l-2.140625 0q-0.328125 0 -0.328125 -0.328125l0 -2.171875q0 -0.3125 0.328125 -0.3125l2.140625 0q0.125 0 0.125 -0.140625l0 -0.5625q0 -2.125 0.5 -3.265625q0.5 -1.15625 1.671875 -1.65625q1.1875 -0.5 3.34375 -0.5l1.078125 0q0.328125 0 0.328125 0.328125l0 2.046875q0 0.3125 -0.328125 0.3125l-0.765625 0zm18.565903 20.0q-2.3125 0 -4.09375 -0.90625q-1.765625 -0.90625 -2.75 -2.578125q-0.96875 -1.6875 -0.96875 -3.875l0 -8.28125q0 -2.171875 0.96875 -3.8125q0.984375 -1.65625 2.75 -2.5625q1.78125 -0.921875 4.09375 -0.921875q2.296875 0 4.046875 0.890625q1.765625 0.875 2.734375 2.46875q0.984375 1.59375 0.984375 3.71875l0 0.03125q0 0.15625 -0.09375 0.25q-0.09375 0.09375 -0.21875 0.09375l-2.4375 0.125q-0.3125 0 -0.3125 -0.28125l0 -0.09375q0 -2.046875 -1.28125 -3.296875q-1.28125 -1.25 -3.421875 -1.25q-2.140625 0 -3.4375 1.25q-1.296875 1.25 -1.296875 3.296875l0 8.515625q0 2.046875 1.296875 3.296875q1.296875 1.234375 3.4375 1.234375q2.140625 0 3.421875 -1.234375q1.28125 -1.25 1.28125 -3.296875l0 -0.078125q0 -0.28125 0.3125 -0.28125l2.4375 0.125q0.3125 0 0.3125 0.328125q0 2.109375 -0.984375 3.734375q-0.96875 1.609375 -2.734375 2.5q-1.75 0.890625 -4.046875 0.890625zm18.454529 -0.03125q-2.359375 0 -4.125 -1.1875q-1.75 -1.203125 -2.46875 -3.34375q-0.5625 -1.734375 -0.5625 -3.90625q0 -2.28125 0.53125 -3.84375q0.703125 -2.109375 2.46875 -3.3125q1.765625 -1.203125 4.1875 -1.203125q2.3125 0 4.015625 1.203125q1.71875 1.203125 2.453125 3.28125q0.578125 1.625 0.578125 3.84375q0 2.234375 -0.578125 3.9375q-0.703125 2.140625 -2.4375 3.34375q-1.71875 1.1875 -4.0625 1.1875zm0 -2.65625q1.28125 0 2.234375 -0.71875q0.96875 -0.71875 1.390625 -2.03125q0.34375 -1.21875 0.34375 -3.0q0 -1.796875 -0.3125 -2.984375q-0.421875 -1.3125 -1.390625 -2.03125q-0.953125 -0.71875 -2.328125 -0.71875q-1.3125 0 -2.28125 0.71875q-0.953125 0.71875 -1.359375 2.03125q-0.359375 1.125 -0.359375 2.984375q0 1.859375 0.359375 3.0q0.375 1.3125 1.34375 2.03125q0.984375 0.71875 2.359375 0.71875zm18.369415 -14.109375q2.625 0 4.15625 1.53125q1.546875 1.515625 1.546875 4.109375l0 10.5625q0 0.3125 -0.328125 0.3125l-2.421875 0q-0.328125 0 -0.328125 -0.3125l0 -9.953125q0 -1.609375 -0.9375 -2.59375q-0.921875 -1.0 -2.453125 -1.0q-1.5 0 -2.46875 1.0q-0.953125 0.984375 -0.953125 2.5625l0 9.984375q0 0.3125 -0.328125 0.3125l-2.421875 0q-0.328125 0 -0.328125 -0.3125l0 -15.65625q0 -0.3125 0.328125 -0.3125l2.421875 0q0.328125 0 0.328125 0.3125l0 1.15625q0 0.0625 0.046875 0.09375q0.046875 0.03125 0.078125 -0.03125q1.375 -1.765625 4.0625 -1.765625zm18.109665 2.4375q0 0.3125 -0.3125 0.3125l-3.453125 0q-0.125 0 -0.125 0.140625l0 8.46875q0 1.34375 0.59375 1.9375q0.609375 0.59375 1.890625 0.59375l0.9375 0q0.3125 0 0.3125 0.328125l0 1.984375q0 0.3125 -0.3125 0.3125q-1.03125 0.0625 -1.484375 0.0625q-2.421875 0 -3.65625 -0.875q-1.234375 -0.890625 -1.234375 -3.25l0 -9.5625q0 -0.140625 -0.125 -0.140625l-1.953125 0q-0.3125 0 -0.3125 -0.3125l0 -1.890625q0 -0.3125 0.3125 -0.3125l1.953125 0q0.125 0 0.125 -0.140625l0 -3.765625q0 -0.328125 0.328125 -0.328125l2.296875 0q0.328125 0 0.328125 0.328125l0 3.765625q0 0.140625 0.125 0.140625l3.453125 0q0.3125 0 0.3125 0.3125l0 1.890625zm16.580276 3.90625q0.125 1.3125 0.09375 2.9375q0 0.328125 -0.3125 0.328125l-10.21875 0q-0.125 0 -0.125 0.125q0 1.078125 0.203125 1.65625q0.34375 1.28125 1.40625 2.0q1.078125 0.71875 2.71875 0.71875q2.359375 0 3.640625 -1.953125q0.15625 -0.3125 0.421875 -0.09375l1.828125 1.21875q0.21875 0.1875 0.09375 0.421875q-0.90625 1.4375 -2.5625 2.265625q-1.640625 0.828125 -3.71875 0.828125q-2.328125 0 -3.9375 -1.015625q-1.59375 -1.03125 -2.390625 -2.90625q-0.765625 -1.890625 -0.765625 -4.578125q0 -2.34375 0.34375 -3.5625q0.578125 -2.203125 2.296875 -3.484375q1.734375 -1.28125 4.203125 -1.28125q3.234375 0 4.828125 1.625q1.609375 1.609375 1.953125 4.75zm-6.78125 -3.71875q-1.375 0 -2.28125 0.6875q-0.890625 0.6875 -1.203125 1.84375q-0.234375 0.703125 -0.296875 1.796875q0 0.125 0.125 0.125l7.328125 0q0.140625 0 0.140625 -0.125q-0.0625 -1.0625 -0.203125 -1.578125q-0.3125 -1.25 -1.265625 -2.0q-0.9375 -0.75 -2.34375 -0.75zm18.011414 -2.625q2.625 0 4.15625 1.53125q1.546875 1.515625 1.546875 4.109375l0 10.5625q0 0.3125 -0.328125 0.3125l-2.421875 0q-0.328125 0 -0.328125 -0.3125l0 -9.953125q0 -1.609375 -0.9375 -2.59375q-0.921875 -1.0 -2.453125 -1.0q-1.5 0 -2.46875 1.0q-0.953125 0.984375 -0.953125 2.5625l0 9.984375q0 0.3125 -0.328125 0.3125l-2.421875 0q-0.328125 0 -0.328125 -0.3125l0 -15.65625q0 -0.3125 0.328125 -0.3125l2.421875 0q0.328125 0 0.328125 0.3125l0 1.15625q0 0.0625 0.046875 0.09375q0.046875 0.03125 0.078125 -0.03125q1.375 -1.765625 4.0625 -1.765625zm18.10968 2.4375q0 0.3125 -0.3125 0.3125l-3.453125 0q-0.125 0 -0.125 0.140625l0 8.46875q0 1.34375 0.59375 1.9375q0.609375 0.59375 1.890625 0.59375l0.9375 0q0.3125 0 0.3125 0.328125l0 1.984375q0 0.3125 -0.3125 0.3125q-1.03125 0.0625 -1.484375 0.0625q-2.421875 0 -3.65625 -0.875q-1.2343903 -0.890625 -1.2343903 -3.25l0 -9.5625q0 -0.140625 -0.125 -0.140625l-1.953125 0q-0.3125 0 -0.3125 -0.3125l0 -1.890625q0 -0.3125 0.3125 -0.3125l1.953125 0q0.125 0 0.125 -0.140625l0 -3.765625q0 -0.328125 0.328125 -0.328125l2.2968903 0q0.328125 0 0.328125 0.328125l0 3.765625q0 0.140625 0.125 0.140625l3.453125 0q0.3125 0 0.3125 0.3125l0 1.890625zm9.511139 14.265625q-1.921875 0 -3.375 -0.5625q-1.453125 -0.578125 -2.265625 -1.578125q-0.796875 -1.015625 -0.796875 -2.234375l0 -0.359375q0 -0.3125 0.328125 -0.3125l2.296875 0q0.328125 0 0.328125 0.3125l0 0.15625q0 0.90625 0.96875 1.578125q0.984375 0.671875 2.484375 0.671875q1.4375 0 2.328125 -0.625q0.90625 -0.625 0.90625 -1.59375q0 -0.921875 -0.84375 -1.375q-0.828125 -0.46875 -2.6875 -0.984375q-1.8125 -0.515625 -3.046875 -1.03125q-1.234375 -0.53125 -2.09375 -1.5q-0.84375 -0.984375 -0.84375 -2.53125q0 -2.140625 1.6875 -3.40625q1.6875 -1.265625 4.46875 -1.265625q1.84375 0 3.265625 0.59375q1.4375 0.59375 2.203125 1.65625q0.765625 1.046875 0.765625 2.359375l0 0.09375q0 0.328125 -0.3125 0.328125l-2.25 0q-0.3125 0 -0.3125 -0.328125l0 -0.09375q0 -0.921875 -0.921875 -1.546875q-0.90625 -0.625 -2.46875 -0.625q-1.40625 0 -2.296875 0.546875q-0.875 0.546875 -0.875 1.46875q0 0.921875 0.84375 1.40625q0.84375 0.484375 2.734375 1.03125q1.859375 0.5 3.09375 1.0q1.234375 0.5 2.09375 1.484375q0.859375 0.96875 0.859375 2.53125q0 2.171875 -1.71875 3.453125q-1.703125 1.28125 -4.546875 1.28125z" fill-rule="nonzero"/><path fill="#000000" fill-opacity="0.0" d="m48.404198 132.60892l628.2835 0l0 372.2205l-628.2835 0z" fill-rule="evenodd"/><path fill="#eaebed" d="m56.732323 158.19937l16.140625 0l-6.15625 -6.140625l5.109375 0l8.21875 8.015625l-8.21875 8.015625l-5.109375 0l6.15625 -6.140625l-16.140625 0l0 -3.75z" fill-rule="nonzero"/><path fill="#eaebed" d="m113.66982 169.88687q-1.953125 0 -3.453125 -0.796875q-1.484375 -0.796875 -2.3125 -2.25q-0.828125 -1.453125 -0.828125 -3.34375l0 -6.34375q0 -1.890625 0.828125 -3.328125q0.828125 -1.4375 2.3125 -2.234375q1.5 -0.8125 3.453125 -0.8125q1.96875 0 3.453125 0.8125q1.5 0.796875 2.328125 2.234375q0.828125 1.4375 0.828125 3.328125l0 6.34375q0 1.890625 -0.828125 3.34375q-0.828125 1.453125 -2.328125 2.25q-1.484375 0.796875 -3.453125 0.796875zm0 -2.203125q1.8125 0 2.921875 -1.125q1.125 -1.125 1.125 -2.953125l0 -6.484375q0 -1.859375 -1.125 -2.984375q-1.109375 -1.140625 -2.921875 -1.140625q-1.8125 0 -2.921875 1.140625q-1.109375 1.125 -1.109375 2.984375l0 6.484375q0 1.828125 1.109375 2.953125q1.109375 1.125 2.921875 1.125zm21.142632 -8.078125q0.421875 1.359375 0.421875 3.21875q0 2.0 -0.515625 3.421875q-0.578125 1.734375 -1.84375 2.6875q-1.265625 0.9375 -3.1875 0.9375q-0.9375 0 -1.7343826 -0.375q-0.796875 -0.375 -1.390625 -1.046875q-0.046875 -0.046875 -0.09375 -0.015625q-0.03125 0.015625 -0.03125 0.078125l0 0.875q0 0.265625 -0.265625 0.265625l-2.03125 0q-0.265625 0 -0.265625 -0.265625l0 -18.125q0 -0.265625 0.265625 -0.265625l2.03125 0q0.265625 0 0.265625 0.265625l0 5.9375q0 0.0625 0.03125 0.09375q0.046875 0.015625 0.09375 -0.03125q0.59375 -0.671875 1.40625 -1.03125q0.8125076 -0.359375 1.7187576 -0.359375q2.0 0 3.28125 0.984375q1.28125 0.984375 1.84375 2.75zm-2.828125 6.578125q0.65625 -1.25 0.65625 -3.296875q0 -2.1875 -0.84375 -3.53125q-0.78125 -1.265625 -2.375 -1.265625q-1.5000076 0 -2.2656326 1.359375q-0.6875 1.21875 -0.6875 3.40625q0 2.1875 0.640625 3.359375q0.796875 1.4375 2.3437576 1.4375q1.75 0 2.53125 -1.46875zm7.9595947 -12.234375q-0.734375 0 -1.21875 -0.46875q-0.484375 -0.484375 -0.484375 -1.234375q0 -0.75 0.484375 -1.21875q0.484375 -0.484375 1.21875 -0.484375q0.78125 0 1.25 0.46875q0.46875 0.46875 0.46875 1.234375q0 0.75 -0.484375 1.234375q-0.484375 0.46875 -1.234375 0.46875zm-4.125 21.21875q-0.265625 0 -0.265625 -0.265625l0 -1.65625q0 -0.265625 0.265625 -0.265625q1.515625 0 2.1875 -0.609375q0.6875 -0.609375 0.6875 -1.953125l-0.015625 -14.0625q0 -0.265625 0.265625 -0.265625l2.015625 0q0.265625 0 0.265625 0.265625l0 14.046875q0 1.75 -0.53125 2.78125q-0.53125 1.046875 -1.703125 1.53125q-1.171875 0.484375 -3.171875 0.453125zm20.360733 -14.0q0.109375 1.09375 0.078125 2.453125q0 0.28125 -0.265625 0.28125l-8.5 0q-0.109375 0 -0.109375 0.09375q0 0.90625 0.171875 1.390625q0.28125 1.0625 1.171875 1.671875q0.90625 0.59375 2.265625 0.59375q1.96875 0 3.03125 -1.625q0.140625 -0.265625 0.34375 -0.078125l1.53125 1.015625q0.171875 0.15625 0.078125 0.34375q-0.75 1.203125 -2.125 1.890625q-1.375 0.6875 -3.109375 0.6875q-1.9375 0 -3.28125 -0.84375q-1.328125 -0.859375 -2.0 -2.421875q-0.625 -1.578125 -0.625 -3.8125q0 -1.953125 0.28125 -2.96875q0.484375 -1.84375 1.921875 -2.90625q1.4375 -1.0625 3.5 -1.0625q2.6875 0 4.015625 1.34375q1.34375 1.34375 1.625 3.953125zm-5.640625 -3.078125q-1.15625 0 -1.90625 0.578125q-0.734375 0.5625 -1.0 1.515625q-0.1875 0.59375 -0.25 1.5q0 0.109375 0.109375 0.109375l6.109375 0q0.109375 0 0.109375 -0.109375q-0.0625 -0.875 -0.171875 -1.3125q-0.265625 -1.03125 -1.046875 -1.65625q-0.78125 -0.625 -1.953125 -0.625zm14.381454 11.78125q-2.015625 0 -3.453125 -1.03125q-1.4375 -1.03125 -1.984375 -2.78125q-0.390625 -1.234375 -0.390625 -3.234375q0 -1.828125 0.390625 -3.21875q0.546875 -1.703125 1.984375 -2.71875q1.453125 -1.015625 3.453125 -1.015625q2.0 0 3.484375 1.015625q1.5 1.015625 1.953125 2.5625q0.171875 0.421875 0.21875 0.875q0 0.21875 -0.234375 0.265625l-2.0 0.296875l-0.0625 0q-0.1875 0 -0.265625 -0.25l-0.078125 -0.421875q-0.203125 -0.90625 -1.03125 -1.515625q-0.828125 -0.609375 -2.0 -0.609375q-1.15625 0 -1.953125 0.609375q-0.796875 0.609375 -1.03125 1.625q-0.25 0.953125 -0.25 2.53125q0 1.546875 0.25 2.5q0.265625 1.078125 1.046875 1.6875q0.78125 0.609375 1.9375 0.609375q1.171875 0 2.0 -0.609375q0.84375 -0.609375 1.0625 -1.609375q0.03125 -0.015625 0.015625 -0.046875q-0.015625 -0.046875 0.015625 -0.078125l0 -0.109375q0.078125 -0.21875 0.28125 -0.15625l2.0 0.3125q0.21875 0.0625 0.21875 0.21875l0 0.109375q0 0.234375 -0.140625 0.578125q-0.453125 1.625 -1.953125 2.625q-1.484375 0.984375 -3.484375 0.984375zm15.286758 -11.953125q0 0.265625 -0.265625 0.265625l-2.890625 0q-0.109375 0 -0.109375 0.109375l0 7.0625q0 1.125 0.5 1.625q0.515625 0.484375 1.59375 0.484375l0.765625 0q0.265625 0 0.265625 0.265625l0 1.65625q0 0.265625 -0.265625 0.265625q-0.859375 0.046875 -1.21875 0.046875q-2.03125 0 -3.0625 -0.71875q-1.015625 -0.734375 -1.015625 -2.71875l0 -7.96875q0 -0.109375 -0.109375 -0.109375l-1.625 0q-0.265625 0 -0.265625 -0.265625l0 -1.5625q0 -0.265625 0.265625 -0.265625l1.625 0q0.109375 0 0.109375 -0.109375l0 -3.140625q0 -0.28125 0.265625 -0.28125l1.90625 0q0.265625 0 0.265625 0.28125l0 3.140625q0 0.109375 0.109375 0.109375l2.890625 0q0.265625 0 0.265625 0.265625l0 1.5625zm4.6798706 -3.96875q-0.734375 0 -1.21875 -0.46875q-0.484375 -0.484375 -0.484375 -1.234375q0 -0.75 0.484375 -1.21875q0.484375 -0.484375 1.21875 -0.484375q0.75 0 1.234375 0.484375q0.484375 0.46875 0.484375 1.21875q0 0.75 -0.484375 1.234375q-0.484375 0.46875 -1.234375 0.46875zm-1.0625 15.671875q-0.265625 0 -0.265625 -0.265625l0 -13.0q0 -0.265625 0.265625 -0.265625l2.03125 0q0.265625 0 0.265625 0.265625l0 13.0q0 0.265625 -0.265625 0.265625l-2.03125 0zm9.8910675 0.03125q-0.234375 0 -0.3125 -0.21875l-4.359375 -13.0625l-0.015625 -0.09375q0 -0.1875 0.234375 -0.1875l2.234375 0q0.25 0 0.328125 0.203125l2.9375 9.65625q0.015625 0.046875 0.0625 0.046875q0.0625 0 0.09375 -0.046875l2.90625 -9.65625q0.078125 -0.203125 0.3125 -0.203125l2.25 0.015625q0.28125 0 0.203125 0.296875l-4.3125 13.03125q-0.078125 0.21875 -0.328125 0.21875l-2.234375 0zm19.907745 -8.484375q0.109375 1.09375 0.078125 2.453125q0 0.28125 -0.265625 0.28125l-8.5 0q-0.109375 0 -0.109375 0.09375q0 0.90625 0.171875 1.390625q0.28125 1.0625 1.171875 1.671875q0.90625 0.59375 2.265625 0.59375q1.96875 0 3.03125 -1.625q0.140625 -0.265625 0.34375 -0.078125l1.53125 1.015625q0.171875 0.15625 0.078125 0.34375q-0.75 1.203125 -2.125 1.890625q-1.375 0.6875 -3.109375 0.6875q-1.9375 0 -3.28125 -0.84375q-1.328125 -0.859375 -2.0 -2.421875q-0.625 -1.578125 -0.625 -3.8125q0 -1.953125 0.28125 -2.96875q0.484375 -1.84375 1.921875 -2.90625q1.4375 -1.0625 3.5 -1.0625q2.6875 0 4.015625 1.34375q1.34375 1.34375 1.625 3.953125zm-5.640625 -3.078125q-1.15625 0 -1.90625 0.578125q-0.734375 0.5625 -1.0 1.515625q-0.1875 0.59375 -0.25 1.5q0 0.109375 0.109375 0.109375l6.109375 0q0.109375 0 0.109375 -0.109375q-0.0625 -0.875 -0.171875 -1.3125q-0.265625 -1.03125 -1.046875 -1.65625q-0.78125 -0.625 -1.953125 -0.625z" fill-rule="nonzero"/><path fill="#eaebed" d="m56.732323 203.5327l16.140625 0l-6.15625 -6.140625l5.109375 0l8.21875 8.015625l-8.21875 8.015625l-5.109375 0l6.15625 -6.140625l-16.140625 0l0 -3.75z" fill-rule="nonzero"/><path fill="#eaebed" d="m118.91982 214.98582q-0.234375 0 -0.328125 -0.21875l-0.953125 -3.109375q-0.03125 -0.078125 -0.109375 -0.078125l-7.484375 0q-0.078125 0 -0.109375 0.078125l-0.953125 3.109375q-0.09375 0.21875 -0.328125 0.21875l-2.15625 0q-0.296875 0 -0.21875 -0.296875l5.84375 -18.15625q0.078125 -0.203125 0.3125 -0.203125l2.671875 0q0.234375 0 0.3125 0.203125l5.890625 18.15625l0.03125 0.109375q0 0.1875 -0.234375 0.1875l-2.1875 0zm-8.3125 -5.578125q-0.03125 0.0625 0 0.109375q0.046875 0.03125 0.09375 0.03125l6.140625 0q0.046875 0 0.078125 -0.03125q0.046875 -0.046875 0.03125 -0.109375l-3.09375 -9.875q-0.03125 -0.0625 -0.09375 -0.0625q-0.046875 0 -0.0625 0.0625l-3.09375 9.875zm19.512138 -8.171875q2.1875 0 3.453125 1.265625q1.28125 1.265625 1.28125 3.421875l0 8.796875q0 0.265625 -0.265625 0.265625l-2.015625 0q-0.265625 0 -0.265625 -0.265625l0 -8.296875q0 -1.328125 -0.78125 -2.15625q-0.765625 -0.828125 -2.046875 -0.828125q-1.25 0 -2.0625076 0.828125q-0.796875 0.828125 -0.796875 2.140625l0 8.3125q0 0.265625 -0.265625 0.265625l-2.03125 0q-0.265625 0 -0.265625 -0.265625l0 -13.03125q0 -0.265625 0.265625 -0.265625l2.03125 0q0.265625 0 0.265625 0.265625l0 0.953125q0 0.0625 0.03125 0.09375q0.046875 0.015625 0.078125 -0.03125q1.140625 -1.46875 3.3906326 -1.46875zm13.353882 -0.03125q1.625 0 2.828125 0.578125q1.21875 0.5625 1.875 1.59375q0.65625 1.03125 0.65625 2.328125l0 9.015625q0 0.265625 -0.265625 0.265625l-2.03125 0q-0.265625 0 -0.265625 -0.265625l0 -0.953125q0 -0.140625 -0.140625 -0.0625q-0.6875 0.71875 -1.6875 1.109375q-1.0 0.390625 -2.21875 0.390625q-1.984375 0 -3.28125 -1.0q-1.28125 -1.0 -1.28125 -3.03125q0 -2.078125 1.453125 -3.265625q1.453125 -1.1875 4.0625 -1.1875l2.984375 0q0.109375 0 0.109375 -0.109375l0 -0.71875q0 -1.171875 -0.6875 -1.8125q-0.671875 -0.65625 -2.0625 -0.65625q-1.125 0 -1.828125 0.4375q-0.703125 0.4375 -0.859375 1.1875q-0.078125 0.265625 -0.328125 0.234375l-2.15625 -0.296875q-0.265625 -0.046875 -0.234375 -0.203125q0.203125 -1.578125 1.671875 -2.578125q1.46875 -1.0 3.6875 -1.0zm-0.703125 11.828125q1.421875 0 2.453125 -0.734375q1.046875 -0.75 1.046875 -1.890625l0 -1.578125q0 -0.109375 -0.109375 -0.109375l-2.5 0q-1.578125 0 -2.515625 0.625q-0.921875 0.609375 -0.921875 1.703125q0 0.984375 0.703125 1.484375q0.703125 0.5 1.84375 0.5zm9.781235 1.953125q-0.265625 0 -0.265625 -0.265625l0 -18.125q0 -0.265625 0.265625 -0.265625l2.03125 0q0.265625 0 0.265625 0.265625l0 18.125q0 0.265625 -0.265625 0.265625l-2.03125 0zm5.6079407 5.296875q-0.1875 0 -0.1875 -0.265625l0 -1.5625q0 -0.265625 0.265625 -0.265625l0.046875 0q1.078125 -0.03125 1.6875 -0.28125q0.609375 -0.234375 1.0 -0.890625q0.40625 -0.640625 0.78125 -1.953125q0.03125 -0.03125 0.015625 -0.09375q-0.015625 -0.0625 -0.015625 -0.0625l-4.453125 -13.203125l-0.015625 -0.09375q0 -0.1875 0.234375 -0.1875l2.15625 0q0.234375 0 0.328125 0.203125l3.0 10.046875q0.03125 0.0625 0.078125 0.0625q0.0625 0 0.09375 -0.0625l2.984375 -10.046875q0.078125 -0.203125 0.3125 -0.203125l2.109375 0q0.296875 0 0.21875 0.28125l-4.859375 14.21875q-0.609375 1.828125 -1.234375 2.71875q-0.609375 0.90625 -1.59375 1.265625q-0.984375 0.375 -2.765625 0.375l-0.1875 0zm17.006851 -5.140625q-1.609375 0 -2.828125 -0.46875q-1.203125 -0.484375 -1.875 -1.328125q-0.65625 -0.84375 -0.65625 -1.84375l0 -0.296875q0 -0.265625 0.265625 -0.265625l1.921875 0q0.265625 0 0.265625 0.265625l0 0.125q0 0.75 0.8125 1.3125q0.8125 0.5625 2.0625 0.5625q1.203125 0 1.9375 -0.515625q0.75 -0.53125 0.75 -1.328125q0 -0.765625 -0.6875 -1.15625q-0.6875 -0.390625 -2.234375 -0.8125q-1.53125 -0.4375 -2.5625 -0.875q-1.015625 -0.4375 -1.71875 -1.25q-0.703125 -0.8125 -0.703125 -2.09375q0 -1.78125 1.390625 -2.828125q1.40625 -1.0625 3.71875 -1.0625q1.546875 0 2.734375 0.5q1.1875 0.484375 1.828125 1.375q0.640625 0.875 0.640625 1.96875l0 0.078125q0 0.265625 -0.265625 0.265625l-1.875 0q-0.265625 0 -0.265625 -0.265625l0 -0.078125q0 -0.78125 -0.765625 -1.296875q-0.75 -0.515625 -2.046875 -0.515625q-1.1875 0 -1.921875 0.453125q-0.71875 0.453125 -0.71875 1.21875q0 0.78125 0.703125 1.1875q0.703125 0.390625 2.28125 0.84375q1.546875 0.421875 2.5625 0.84375q1.03125 0.40625 1.75 1.21875q0.71875 0.8125 0.71875 2.125q0 1.8125 -1.421875 2.875q-1.421875 1.0625 -3.796875 1.0625zm9.747177 -15.859375q-0.734375 0 -1.21875 -0.46875q-0.484375 -0.484375 -0.484375 -1.234375q0 -0.75 0.484375 -1.21875q0.484375 -0.484375 1.21875 -0.484375q0.75 0 1.234375 0.484375q0.484375 0.46875 0.484375 1.21875q0 0.75 -0.484375 1.234375q-0.484375 0.46875 -1.234375 0.46875zm-1.0625 15.671875q-0.265625 0 -0.265625 -0.265625l0 -13.0q0 -0.265625 0.265625 -0.265625l2.03125 0q0.265625 0 0.265625 0.265625l0 13.0q0 0.265625 -0.265625 0.265625l-2.03125 0zm11.0941925 0.1875q-1.609375 0 -2.828125 -0.46875q-1.203125 -0.484375 -1.875 -1.328125q-0.65625 -0.84375 -0.65625 -1.84375l0 -0.296875q0 -0.265625 0.265625 -0.265625l1.921875 0q0.265625 0 0.265625 0.265625l0 0.125q0 0.75 0.8125 1.3125q0.8125 0.5625 2.0625 0.5625q1.203125 0 1.9375 -0.515625q0.75 -0.53125 0.75 -1.328125q0 -0.765625 -0.6875 -1.15625q-0.6875 -0.390625 -2.234375 -0.8125q-1.53125 -0.4375 -2.5625 -0.875q-1.015625 -0.4375 -1.71875 -1.25q-0.703125 -0.8125 -0.703125 -2.09375q0 -1.78125 1.390625 -2.828125q1.40625 -1.0625 3.71875 -1.0625q1.546875 0 2.734375 0.5q1.1875 0.484375 1.828125 1.375q0.640625 0.875 0.640625 1.96875l0 0.078125q0 0.265625 -0.265625 0.265625l-1.875 0q-0.265625 0 -0.265625 -0.265625l0 -0.078125q0 -0.78125 -0.765625 -1.296875q-0.75 -0.515625 -2.046875 -0.515625q-1.1875 0 -1.921875 0.453125q-0.71875 0.453125 -0.71875 1.21875q0 0.78125 0.703125 1.1875q0.703125 0.390625 2.28125 0.84375q1.546875 0.421875 2.5625 0.84375q1.03125 0.40625 1.75 1.21875q0.71875 0.8125 0.71875 2.125q0 1.8125 -1.421875 2.875q-1.421875 1.0625 -3.796875 1.0625z" fill-rule="nonzero"/><path fill="#eaebed" d="m107.94486 253.28792q-0.265625 0 -0.265625 -0.265625l0 -1.6875q0 -0.265625 0.265625 -0.265625l8.234375 0q0.265625 0 0.265625 0.265625l0 1.6875q0 0.265625 -0.265625 0.265625l-8.234375 0z" fill-rule="nonzero"/><path fill="#eaebed" d="m154.23233 260.31915q-0.21875 0 -0.296875 -0.1875l-3.734375 -7.9687347q-0.03125 -0.078125 -0.109375 -0.078125l-3.84375 0q-0.09375 0 -0.09375 0.109375l0 7.8593597q0 0.265625 -0.265625 0.265625l-2.03125 0q-0.265625 0 -0.265625 -0.265625l0 -18.124985q0 -0.265625 0.265625 -0.265625l7.171875 0q1.59375 0 2.796875 0.671875q1.21875 0.65625 1.890625 1.859375q0.671875 1.203125 0.671875 2.765625q0 1.875 -0.984375 3.171875q-0.96875 1.28125 -2.703125 1.734375q-0.09375 0.0625 -0.046875 0.140625l3.859375 7.9999847q0.03125 0.046875 0.03125 0.125q0 0.1875 -0.21875 0.1875l-2.09375 0zm-7.984375 -16.45311q-0.09375 0 -0.09375 0.109375l0 5.96875q0 0.109375 0.09375 0.109375l4.453125 0q1.421875 0 2.265625 -0.828125q0.859375 -0.84375 0.859375 -2.234375q0 -1.40625 -0.859375 -2.265625q-0.84375 -0.859375 -2.265625 -0.859375l-4.453125 0zm14.902725 0.75q-0.734375 0 -1.21875 -0.46875q-0.484375 -0.484375 -0.484375 -1.234375q0 -0.75 0.484375 -1.21875q0.484375 -0.484375 1.21875 -0.484375q0.75 0 1.234375 0.484375q0.484375 0.46875 0.484375 1.21875q0 0.75 -0.484375 1.234375q-0.484375 0.46875 -1.234375 0.46875zm-1.0625 15.67186q-0.265625 0 -0.265625 -0.265625l0 -12.999985q0 -0.265625 0.265625 -0.265625l2.03125 0q0.265625 0 0.265625 0.265625l0 12.999985q0 0.265625 -0.265625 0.265625l-2.03125 0zm14.7504425 -18.35936q0 -0.265625 0.265625 -0.265625l2.015625 0q0.265625 0 0.265625 0.265625l0 18.124985q0 0.265625 -0.265625 0.265625l-2.015625 0q-0.265625 0 -0.265625 -0.265625l0 -0.875q0 -0.0625 -0.046875 -0.078125q-0.046875 -0.03125 -0.09375 0.015625q-0.59375 0.671875 -1.390625 1.046875q-0.796875 0.375 -1.734375 0.375q-1.90625 0 -3.1875 -0.9375q-1.265625 -0.953125 -1.84375 -2.6875q-0.5 -1.4218597 -0.5 -3.4218597q0 -1.859375 0.421875 -3.21875q0.5625 -1.765625 1.828125 -2.75q1.28125 -0.984375 3.28125 -0.984375q0.90625 0 1.71875 0.359375q0.8125 0.359375 1.40625 1.03125q0.046875 0.046875 0.09375 0.03125q0.046875 -0.03125 0.046875 -0.09375l0 -5.9375zm-0.671875 14.95311q0.609375 -1.1249847 0.609375 -3.3593597q0 -2.234375 -0.671875 -3.40625q-0.765625 -1.359375 -2.265625 -1.359375q-1.59375 0 -2.359375 1.265625q-0.859375 1.34375 -0.859375 3.53125q0 2.046875 0.671875 3.2968597q0.765625 1.46875 2.53125 1.46875q1.546875 0 2.34375 -1.4375zm17.959595 -5.0468597q0.109375 1.09375 0.078125 2.453125q0 0.28125 -0.265625 0.28125l-8.5 0q-0.109375 0 -0.109375 0.09375q0 0.90625 0.171875 1.3906097q0.28125 1.0625 1.171875 1.671875q0.90625 0.59375 2.265625 0.59375q1.96875 0 3.03125 -1.625q0.140625 -0.265625 0.34375 -0.078125l1.53125 1.015625q0.171875 0.15625 0.078125 0.34375q-0.75 1.203125 -2.125 1.890625q-1.375 0.6875 -3.109375 0.6875q-1.9375 0 -3.28125 -0.84375q-1.328125 -0.859375 -2.0 -2.421875q-0.625 -1.5781097 -0.625 -3.8124847q0 -1.953125 0.28125 -2.96875q0.484375 -1.84375 1.921875 -2.90625q1.4375 -1.0625 3.5 -1.0625q2.6875 0 4.015625 1.34375q1.34375 1.34375 1.625 3.953125zm-5.640625 -3.078125q-1.15625 0 -1.90625 0.578125q-0.734375 0.5625 -1.0 1.515625q-0.1875 0.59375 -0.25 1.5q0 0.109375 0.109375 0.109375l6.109375 0q0.109375 0 0.109375 -0.109375q-0.0625 -0.875 -0.171875 -1.3125q-0.265625 -1.03125 -1.046875 -1.65625q-0.78125 -0.625 -1.953125 -0.625zm14.897079 -2.140625q0.84375 0 1.546875 0.34375q0.1875 0.078125 0.125 0.328125l-0.421875 2.0q-0.03125 0.234375 -0.3125 0.15625q-0.453125 -0.1875 -1.078125 -0.1875l-0.375 0.03125q-1.25 0.046875 -2.0625 0.859375q-0.8125 0.8125 -0.8125 2.125l0 7.7812347q0 0.265625 -0.265625 0.265625l-2.03125 0q-0.265625 0 -0.265625 -0.265625l0 -13.031235q0 -0.265625 0.265625 -0.265625l2.03125 0q0.265625 0 0.265625 0.265625l0 1.40625q0 0.078125 0.03125 0.09375q0.046875 0.015625 0.078125 -0.03125q1.203125 -1.875 3.28125 -1.875zm8.584213 13.85936q-1.609375 0 -2.828125 -0.46875q-1.203125 -0.484375 -1.875 -1.328125q-0.65625 -0.84375 -0.65625 -1.84375l0 -0.296875q0 -0.265625 0.265625 -0.265625l1.921875 0q0.265625 0 0.265625 0.265625l0 0.125q0 0.75 0.8125 1.3125q0.8125 0.5625 2.0625 0.5625q1.203125 0 1.9375 -0.515625q0.75 -0.53125 0.75 -1.328125q0 -0.76560974 -0.6875 -1.1562347q-0.6875 -0.390625 -2.234375 -0.8125q-1.53125 -0.4375 -2.5625 -0.875q-1.015625 -0.4375 -1.71875 -1.25q-0.703125 -0.8125 -0.703125 -2.09375q0 -1.78125 1.390625 -2.828125q1.40625 -1.0625 3.71875 -1.0625q1.546875 0 2.734375 0.5q1.1875 0.484375 1.828125 1.375q0.640625 0.875 0.640625 1.96875l0 0.078125q0 0.265625 -0.265625 0.265625l-1.875 0q-0.265625 0 -0.265625 -0.265625l0 -0.078125q0 -0.78125 -0.765625 -1.296875q-0.75 -0.515625 -2.046875 -0.515625q-1.1875 0 -1.921875 0.453125q-0.71875 0.453125 -0.71875 1.21875q0 0.78125 0.703125 1.1875q0.703125 0.390625 2.28125 0.84375q1.546875 0.421875 2.5625 0.84375q1.03125 0.40625 1.75 1.21875q0.71875 0.8125 0.71875 2.1249847q0 1.8125 -1.421875 2.875q-1.421875 1.0625 -3.796875 1.0625zm14.262802 -13.906235q2.1875 0 3.453125 1.265625q1.28125 1.265625 1.28125 3.421875l0 8.79686q0 0.265625 -0.265625 0.265625l-2.015625 0q-0.265625 0 -0.265625 -0.265625l0 -8.29686q0 -1.328125 -0.78125 -2.15625q-0.765625 -0.828125 -2.046875 -0.828125q-1.25 0 -2.0625 0.828125q-0.796875 0.828125 -0.796875 2.140625l0 8.312485q0 0.265625 -0.265625 0.265625l-2.03125 0q-0.265625 0 -0.265625 -0.265625l0 -18.124985q0 -0.265625 0.265625 -0.265625l2.03125 0q0.265625 0 0.265625 0.265625l0 6.046875q0 0.0625 0.03125 0.09375q0.046875 0.015625 0.078125 -0.03125q1.140625 -1.46875 3.390625 -1.46875zm9.932007 -1.953125q-0.734375 0 -1.21875 -0.46875q-0.484375 -0.484375 -0.484375 -1.234375q0 -0.75 0.484375 -1.21875q0.484375 -0.484375 1.21875 -0.484375q0.75 0 1.234375 0.484375q0.484375 0.46875 0.484375 1.21875q0 0.75 -0.484375 1.234375q-0.484375 0.46875 -1.234375 0.46875zm-1.0625 15.67186q-0.265625 0 -0.265625 -0.265625l0 -12.999985q0 -0.265625 0.265625 -0.265625l2.03125 0q0.265625 0 0.265625 0.265625l0 12.999985q0 0.265625 -0.265625 0.265625l-2.03125 0zm17.328568 -10.124985q0.5 1.4375 0.5 3.40625q0 1.875 -0.421875 3.2343597q-0.5625 1.78125 -1.84375 2.765625q-1.265625 0.96875 -3.265625 0.96875q-0.90625 0 -1.734375 -0.359375q-0.8125 -0.359375 -1.390625 -1.03125q-0.046875 -0.046875 -0.09375 -0.015625q-0.046875 0.015625 -0.046875 0.0625l0 5.953125q0 0.265625 -0.265625 0.265625l-2.015625 0q-0.265625 0 -0.265625 -0.265625l0 -18.124985q0 -0.265625 0.265625 -0.265625l2.015625 0q0.265625 0 0.265625 0.265625l0 0.875q0 0.046875 0.046875 0.078125q0.046875 0.03125 0.09375 -0.03125q0.578125 -0.65625 1.375 -1.03125q0.8125 -0.375 1.75 -0.375q1.90625 0 3.171875 0.953125q1.265625 0.9375 1.859375 2.671875zm-2.9375 6.8749847q0.859375 -1.2812347 0.859375 -3.5156097q0 -2.046875 -0.671875 -3.3125q-0.765625 -1.453125 -2.53125 -1.453125q-1.546875 0 -2.34375 1.4375q-0.640625 1.140625 -0.640625 3.359375q0 2.234375 0.6875 3.4062347q0.78125 1.359375 2.28125 1.359375q1.59375 0 2.359375 -1.28125zm23.095978 -6.7656097q0.421875 1.359375 0.421875 3.21875q0 2.0 -0.515625 3.4218597q-0.578125 1.734375 -1.84375 2.6875q-1.265625 0.9375 -3.1875 0.9375q-0.9375 0 -1.734375 -0.375q-0.796875 -0.375 -1.390625 -1.046875q-0.046875 -0.046875 -0.09375 -0.015625q-0.03125 0.015625 -0.03125 0.078125l0 0.875q0 0.265625 -0.265625 0.265625l-2.03125 0q-0.265625 0 -0.265625 -0.265625l0 -18.124985q0 -0.265625 0.265625 -0.265625l2.03125 0q0.265625 0 0.265625 0.265625l0 5.9375q0 0.0625 0.03125 0.09375q0.046875 0.015625 0.09375 -0.03125q0.59375 -0.671875 1.40625 -1.03125q0.8125 -0.359375 1.71875 -0.359375q2.0 0 3.28125 0.984375q1.28125 0.984375 1.84375 2.75zm-2.828125 6.5781097q0.65625 -1.2499847 0.65625 -3.2968597q0 -2.1875 -0.84375 -3.53125q-0.78125 -1.265625 -2.375 -1.265625q-1.5 0 -2.265625 1.359375q-0.6875 1.21875 -0.6875 3.40625q0 2.1875 0.640625 3.3593597q0.796875 1.4375 2.34375 1.4375q1.75 0 2.53125 -1.46875zm5.836273 8.765625q-0.1875 0 -0.1875 -0.265625l0 -1.5625q0 -0.265625 0.265625 -0.265625l0.046875 0q1.078125 -0.03125 1.6875 -0.28125q0.609375 -0.234375 1.0 -0.890625q0.40625 -0.640625 0.78125 -1.953125q0.03125 -0.03125 0.015625 -0.09375q-0.015625 -0.0625 -0.015625 -0.0625l-4.453125 -13.20311l-0.015625 -0.09375q0 -0.1875 0.234375 -0.1875l2.15625 0q0.234375 0 0.328125 0.203125l3.0 10.04686q0.03125 0.0625 0.078125 0.0625q0.0625 0 0.09375 -0.0625l2.984375 -10.04686q0.078125 -0.203125 0.3125 -0.203125l2.109375 0q0.296875 0 0.21875 0.28125l-4.859375 14.218735q-0.609375 1.828125 -1.234375 2.71875q-0.609375 0.90625 -1.59375 1.265625q-0.984375 0.375 -2.765625 0.375l-0.1875 0zm22.550812 -5.296875q-0.25 0 -0.296875 -0.21875l-5.015625 -18.14061l-0.015625 -0.09375q0 -0.203125 0.265625 -0.203125l2.15625 0q0.234375 0 0.296875 0.234375l3.484375 13.28125q0.03125 0.046875 0.0625 0.046875q0.046875 0 0.078125 -0.046875l3.296875 -13.28125q0.0625 -0.234375 0.296875 -0.234375l2.109375 0q0.234375 0 0.296875 0.234375l3.484375 13.296875q0.03125 0.0625 0.046875 0.0625q0.03125 0 0.0625 -0.0625l3.515625 -13.296875q0.046875 -0.234375 0.296875 -0.234375l2.015625 0q0.140625 0 0.203125 0.078125q0.078125 0.078125 0.046875 0.21875l-4.828125 18.124985q-0.046875 0.234375 -0.296875 0.234375l-2.046875 0q-0.234375 0 -0.296875 -0.234375l-3.484375 -13.76561q-0.03125 -0.078125 -0.0625 -0.078125q-0.015625 0 -0.046875 0.078125l-3.390625 13.76561q-0.03125 0.234375 -0.296875 0.234375l-1.9375 0zm28.834503 -8.48436q0.109375 1.09375 0.078125 2.453125q0 0.28125 -0.265625 0.28125l-8.5 0q-0.109375 0 -0.109375 0.09375q0 0.90625 0.171875 1.3906097q0.28125 1.0625 1.171875 1.671875q0.90625 0.59375 2.265625 0.59375q1.96875 0 3.03125 -1.625q0.140625 -0.265625 0.34375 -0.078125l1.53125 1.015625q0.171875 0.15625 0.078125 0.34375q-0.75 1.203125 -2.125 1.890625q-1.375 0.6875 -3.109375 0.6875q-1.9375 0 -3.28125 -0.84375q-1.328125 -0.859375 -2.0 -2.421875q-0.625 -1.5781097 -0.625 -3.8124847q0 -1.953125 0.28125 -2.96875q0.484375 -1.84375 1.921875 -2.90625q1.4375 -1.0625 3.5 -1.0625q2.6875 0 4.015625 1.34375q1.34375 1.34375 1.625 3.953125zm-5.640625 -3.078125q-1.15625 0 -1.90625 0.578125q-0.734375 0.5625 -1.0 1.515625q-0.1875 0.59375 -0.25 1.5q0 0.109375 0.109375 0.109375l6.109375 0q0.109375 0 0.109375 -0.109375q-0.0625 -0.875 -0.171875 -1.3125q-0.265625 -1.03125 -1.046875 -1.65625q-0.78125 -0.625 -1.953125 -0.625zm19.928345 3.078125q0.109375 1.09375 0.078125 2.453125q0 0.28125 -0.265625 0.28125l-8.5 0q-0.109375 0 -0.109375 0.09375q0 0.90625 0.171875 1.3906097q0.28125 1.0625 1.171875 1.671875q0.90625 0.59375 2.265625 0.59375q1.96875 0 3.03125 -1.625q0.140625 -0.265625 0.34375 -0.078125l1.53125 1.015625q0.171875 0.15625 0.078125 0.34375q-0.75 1.203125 -2.125 1.890625q-1.375 0.6875 -3.109375 0.6875q-1.9375 0 -3.28125 -0.84375q-1.328125 -0.859375 -2.0 -2.421875q-0.625 -1.5781097 -0.625 -3.8124847q0 -1.953125 0.28125 -2.96875q0.484375 -1.84375 1.921875 -2.90625q1.4375 -1.0625 3.5 -1.0625q2.6875 0 4.015625 1.34375q1.34375 1.34375 1.625 3.953125zm-5.640625 -3.078125q-1.15625 0 -1.90625 0.578125q-0.734375 0.5625 -1.0 1.515625q-0.1875 0.59375 -0.25 1.5q0 0.109375 0.109375 0.109375l6.109375 0q0.109375 0 0.109375 -0.109375q-0.0625 -0.875 -0.171875 -1.3125q-0.265625 -1.03125 -1.046875 -1.65625q-0.78125 -0.625 -1.953125 -0.625zm9.209564 11.562485q-0.265625 0 -0.265625 -0.265625l0 -18.124985q0 -0.265625 0.265625 -0.265625l2.03125 0q0.265625 0 0.265625 0.265625l0 10.265625q0 0.046875 0.046875 0.078125q0.0625 0.015625 0.09375 -0.03125l4.921875 -5.359375q0.109375 -0.125 0.328125 -0.125l2.375 0q0.15625 0 0.1875 0.09375q0.046875 0.09375 -0.0625 0.21875l-3.4375 3.96875q-0.046875 0.109375 -0.03125 0.171875l4.078125 8.79686l0.03125 0.09375q0 0.21875 -0.234375 0.21875l-2.140625 0q-0.203125 0 -0.28125 -0.21875l-3.171875 -7.2499847q-0.0625 -0.125 -0.140625 -0.015625l-2.5 2.765625q-0.0625 0.109375 -0.0625 0.140625l0 4.3124847q0 0.265625 -0.265625 0.265625l-2.03125 0zm21.046478 -18.39061q0 -0.265625 0.265625 -0.265625l2.015625 0q0.265625 0 0.265625 0.265625l0 18.124985q0 0.265625 -0.265625 0.265625l-2.015625 0q-0.265625 0 -0.265625 -0.265625l0 -0.875q0 -0.0625 -0.046875 -0.078125q-0.046875 -0.03125 -0.09375 0.015625q-0.59375 0.671875 -1.390625 1.046875q-0.796875 0.375 -1.734375 0.375q-1.90625 0 -3.1875 -0.9375q-1.265625 -0.953125 -1.84375 -2.6875q-0.5 -1.4218597 -0.5 -3.4218597q0 -1.859375 0.421875 -3.21875q0.5625 -1.765625 1.828125 -2.75q1.28125 -0.984375 3.28125 -0.984375q0.90625 0 1.71875 0.359375q0.8125 0.359375 1.40625 1.03125q0.046875 0.046875 0.09375 0.03125q0.046875 -0.03125 0.046875 -0.09375l0 -5.9375zm-0.671875 14.95311q0.609375 -1.1249847 0.609375 -3.3593597q0 -2.234375 -0.671875 -3.40625q-0.765625 -1.359375 -2.265625 -1.359375q-1.59375 0 -2.359375 1.265625q-0.859375 1.34375 -0.859375 3.53125q0 2.046875 0.671875 3.2968597q0.765625 1.46875 2.53125 1.46875q1.546875 0 2.34375 -1.4375zm11.94397 -10.343735q1.625 0 2.828125 0.578125q1.21875 0.5625 1.875 1.59375q0.65625 1.03125 0.65625 2.328125l0 9.01561q0 0.265625 -0.265625 0.265625l-2.03125 0q-0.265625 0 -0.265625 -0.265625l0 -0.953125q0 -0.140625 -0.140625 -0.0625q-0.6875 0.71875 -1.6875 1.109375q-1.0 0.390625 -2.21875 0.390625q-1.984375 0 -3.28125 -1.0q-1.28125 -1.0 -1.28125 -3.03125q0 -2.0781097 1.453125 -3.2656097q1.453125 -1.1875 4.0625 -1.1875l2.984375 0q0.109375 0 0.109375 -0.109375l0 -0.71875q0 -1.171875 -0.6875 -1.8125q-0.671875 -0.65625 -2.0625 -0.65625q-1.125 0 -1.828125 0.4375q-0.703125 0.4375 -0.859375 1.1875q-0.078125 0.265625 -0.328125 0.234375l-2.15625 -0.296875q-0.265625 -0.046875 -0.234375 -0.203125q0.203125 -1.578125 1.671875 -2.578125q1.46875 -1.0 3.6875 -1.0zm-0.703125 11.82811q1.421875 0 2.453125 -0.734375q1.046875 -0.75 1.046875 -1.8906097l0 -1.578125q0 -0.109375 -0.109375 -0.109375l-2.5 0q-1.578125 0 -2.515625 0.625q-0.921875 0.609375 -0.921875 1.7031097q0 0.984375 0.703125 1.484375q0.703125 0.5 1.84375 0.5zm8.884979 7.25q-0.1875 0 -0.1875 -0.265625l0 -1.5625q0 -0.265625 0.265625 -0.265625l0.046875 0q1.078125 -0.03125 1.6875 -0.28125q0.609375 -0.234375 1.0 -0.890625q0.40625 -0.640625 0.78125 -1.953125q0.03125 -0.03125 0.015625 -0.09375q-0.015625 -0.0625 -0.015625 -0.0625l-4.453125 -13.20311l-0.015625 -0.09375q0 -0.1875 0.234375 -0.1875l2.15625 0q0.234375 0 0.328125 0.203125l3.0 10.04686q0.03125 0.0625 0.078125 0.0625q0.0625 0 0.09375 -0.0625l2.984375 -10.04686q0.078125 -0.203125 0.3125 -0.203125l2.109375 0q0.296875 0 0.21875 0.28125l-4.859375 14.218735q-0.609375 1.828125 -1.234375 2.71875q-0.609375 0.90625 -1.59375 1.265625q-0.984375 0.375 -2.765625 0.375l-0.1875 0z" fill-rule="nonzero"/><path fill="#eaebed" d="m107.94486 298.62125q-0.265625 0 -0.265625 -0.265625l0 -1.6875q0 -0.265625 0.265625 -0.265625l8.234375 0q0.265625 0 0.265625 0.265625l0 1.6875q0 0.265625 -0.265625 0.265625l-8.234375 0z" fill-rule="nonzero"/><path fill="#eaebed" d="m154.23233 305.6525q-0.21875 0 -0.296875 -0.1875l-3.734375 -7.96875q-0.03125 -0.078125 -0.109375 -0.078125l-3.84375 0q-0.09375 0 -0.09375 0.109375l0 7.859375q0 0.265625 -0.265625 0.265625l-2.03125 0q-0.265625 0 -0.265625 -0.265625l0 -18.125q0 -0.265625 0.265625 -0.265625l7.171875 0q1.59375 0 2.796875 0.671875q1.21875 0.65625 1.890625 1.859375q0.671875 1.203125 0.671875 2.765625q0 1.875 -0.984375 3.171875q-0.96875 1.28125 -2.703125 1.734375q-0.09375 0.0625 -0.046875 0.140625l3.859375 8.0q0.03125 0.046875 0.03125 0.125q0 0.1875 -0.21875 0.1875l-2.09375 0zm-7.984375 -16.453125q-0.09375 0 -0.09375 0.109375l0 5.96875q0 0.109375 0.09375 0.109375l4.453125 0q1.421875 0 2.265625 -0.828125q0.859375 -0.84375 0.859375 -2.234375q0 -1.40625 -0.859375 -2.265625q-0.84375 -0.859375 -2.265625 -0.859375l-4.453125 0zm14.902725 0.75q-0.734375 0 -1.21875 -0.46875q-0.484375 -0.484375 -0.484375 -1.234375q0 -0.75 0.484375 -1.21875q0.484375 -0.484375 1.21875 -0.484375q0.75 0 1.234375 0.484375q0.484375 0.46875 0.484375 1.21875q0 0.75 -0.484375 1.234375q-0.484375 0.46875 -1.234375 0.46875zm-1.0625 15.671875q-0.265625 0 -0.265625 -0.265625l0 -13.0q0 -0.265625 0.265625 -0.265625l2.03125 0q0.265625 0 0.265625 0.265625l0 13.0q0 0.265625 -0.265625 0.265625l-2.03125 0zm14.7504425 -18.359375q0 -0.265625 0.265625 -0.265625l2.015625 0q0.265625 0 0.265625 0.265625l0 18.125q0 0.265625 -0.265625 0.265625l-2.015625 0q-0.265625 0 -0.265625 -0.265625l0 -0.875q0 -0.0625 -0.046875 -0.078125q-0.046875 -0.03125 -0.09375 0.015625q-0.59375 0.671875 -1.390625 1.046875q-0.796875 0.375 -1.734375 0.375q-1.90625 0 -3.1875 -0.9375q-1.265625 -0.953125 -1.84375 -2.6875q-0.5 -1.421875 -0.5 -3.421875q0 -1.859375 0.421875 -3.21875q0.5625 -1.765625 1.828125 -2.75q1.28125 -0.984375 3.28125 -0.984375q0.90625 0 1.71875 0.359375q0.8125 0.359375 1.40625 1.03125q0.046875 0.046875 0.09375 0.03125q0.046875 -0.03125 0.046875 -0.09375l0 -5.9375zm-0.671875 14.953125q0.609375 -1.125 0.609375 -3.359375q0 -2.234375 -0.671875 -3.40625q-0.765625 -1.359375 -2.265625 -1.359375q-1.59375 0 -2.359375 1.265625q-0.859375 1.34375 -0.859375 3.53125q0 2.046875 0.671875 3.296875q0.765625 1.46875 2.53125 1.46875q1.546875 0 2.34375 -1.4375zm17.959595 -5.046875q0.109375 1.09375 0.078125 2.453125q0 0.28125 -0.265625 0.28125l-8.5 0q-0.109375 0 -0.109375 0.09375q0 0.90625 0.171875 1.390625q0.28125 1.0625 1.171875 1.671875q0.90625 0.59375 2.265625 0.59375q1.96875 0 3.03125 -1.625q0.140625 -0.265625 0.34375 -0.078125l1.53125 1.015625q0.171875 0.15625 0.078125 0.34375q-0.75 1.203125 -2.125 1.890625q-1.375 0.6875 -3.109375 0.6875q-1.9375 0 -3.28125 -0.84375q-1.328125 -0.859375 -2.0 -2.421875q-0.625 -1.578125 -0.625 -3.8125q0 -1.953125 0.28125 -2.96875q0.484375 -1.84375 1.921875 -2.90625q1.4375 -1.0625 3.5 -1.0625q2.6875 0 4.015625 1.34375q1.34375 1.34375 1.625 3.953125zm-5.640625 -3.078125q-1.15625 0 -1.90625 0.578125q-0.734375 0.5625 -1.0 1.515625q-0.1875 0.59375 -0.25 1.5q0 0.109375 0.109375 0.109375l6.109375 0q0.109375 0 0.109375 -0.109375q-0.0625 -0.875 -0.171875 -1.3125q-0.265625 -1.03125 -1.046875 -1.65625q-0.78125 -0.625 -1.953125 -0.625zm14.897079 -2.140625q0.84375 0 1.546875 0.34375q0.1875 0.078125 0.125 0.328125l-0.421875 2.0q-0.03125 0.234375 -0.3125 0.15625q-0.453125 -0.1875 -1.078125 -0.1875l-0.375 0.03125q-1.25 0.046875 -2.0625 0.859375q-0.8125 0.8125 -0.8125 2.125l0 7.78125q0 0.265625 -0.265625 0.265625l-2.03125 0q-0.265625 0 -0.265625 -0.265625l0 -13.03125q0 -0.265625 0.265625 -0.265625l2.03125 0q0.265625 0 0.265625 0.265625l0 1.40625q0 0.078125 0.03125 0.09375q0.046875 0.015625 0.078125 -0.03125q1.203125 -1.875 3.28125 -1.875zm8.584213 13.859375q-1.609375 0 -2.828125 -0.46875q-1.203125 -0.484375 -1.875 -1.328125q-0.65625 -0.84375 -0.65625 -1.84375l0 -0.296875q0 -0.265625 0.265625 -0.265625l1.921875 0q0.265625 0 0.265625 0.265625l0 0.125q0 0.75 0.8125 1.3125q0.8125 0.5625 2.0625 0.5625q1.203125 0 1.9375 -0.515625q0.75 -0.53125 0.75 -1.328125q0 -0.765625 -0.6875 -1.15625q-0.6875 -0.390625 -2.234375 -0.8125q-1.53125 -0.4375 -2.5625 -0.875q-1.015625 -0.4375 -1.71875 -1.25q-0.703125 -0.8125 -0.703125 -2.09375q0 -1.78125 1.390625 -2.828125q1.40625 -1.0625 3.71875 -1.0625q1.546875 0 2.734375 0.5q1.1875 0.484375 1.828125 1.375q0.640625 0.875 0.640625 1.96875l0 0.078125q0 0.265625 -0.265625 0.265625l-1.875 0q-0.265625 0 -0.265625 -0.265625l0 -0.078125q0 -0.78125 -0.765625 -1.296875q-0.75 -0.515625 -2.046875 -0.515625q-1.1875 0 -1.921875 0.453125q-0.71875 0.453125 -0.71875 1.21875q0 0.78125 0.703125 1.1875q0.703125 0.390625 2.28125 0.84375q1.546875 0.421875 2.5625 0.84375q1.03125 0.40625 1.75 1.21875q0.71875 0.8125 0.71875 2.125q0 1.8125 -1.421875 2.875q-1.421875 1.0625 -3.796875 1.0625zm14.262802 -13.90625q2.1875 0 3.453125 1.265625q1.28125 1.265625 1.28125 3.421875l0 8.796875q0 0.265625 -0.265625 0.265625l-2.015625 0q-0.265625 0 -0.265625 -0.265625l0 -8.296875q0 -1.328125 -0.78125 -2.15625q-0.765625 -0.828125 -2.046875 -0.828125q-1.25 0 -2.0625 0.828125q-0.796875 0.828125 -0.796875 2.140625l0 8.3125q0 0.265625 -0.265625 0.265625l-2.03125 0q-0.265625 0 -0.265625 -0.265625l0 -18.125q0 -0.265625 0.265625 -0.265625l2.03125 0q0.265625 0 0.265625 0.265625l0 6.046875q0 0.0625 0.03125 0.09375q0.046875 0.015625 0.078125 -0.03125q1.140625 -1.46875 3.390625 -1.46875zm9.932007 -1.953125q-0.734375 0 -1.21875 -0.46875q-0.484375 -0.484375 -0.484375 -1.234375q0 -0.75 0.484375 -1.21875q0.484375 -0.484375 1.21875 -0.484375q0.75 0 1.234375 0.484375q0.484375 0.46875 0.484375 1.21875q0 0.75 -0.484375 1.234375q-0.484375 0.46875 -1.234375 0.46875zm-1.0625 15.671875q-0.265625 0 -0.265625 -0.265625l0 -13.0q0 -0.265625 0.265625 -0.265625l2.03125 0q0.265625 0 0.265625 0.265625l0 13.0q0 0.265625 -0.265625 0.265625l-2.03125 0zm17.328568 -10.125q0.5 1.4375 0.5 3.40625q0 1.875 -0.421875 3.234375q-0.5625 1.78125 -1.84375 2.765625q-1.265625 0.96875 -3.265625 0.96875q-0.90625 0 -1.734375 -0.359375q-0.8125 -0.359375 -1.390625 -1.03125q-0.046875 -0.046875 -0.09375 -0.015625q-0.046875 0.015625 -0.046875 0.0625l0 5.953125q0 0.265625 -0.265625 0.265625l-2.015625 0q-0.265625 0 -0.265625 -0.265625l0 -18.125q0 -0.265625 0.265625 -0.265625l2.015625 0q0.265625 0 0.265625 0.265625l0 0.875q0 0.046875 0.046875 0.078125q0.046875 0.03125 0.09375 -0.03125q0.578125 -0.65625 1.375 -1.03125q0.8125 -0.375 1.75 -0.375q1.90625 0 3.171875 0.953125q1.265625 0.9375 1.859375 2.671875zm-2.9375 6.875q0.859375 -1.28125 0.859375 -3.515625q0 -2.046875 -0.671875 -3.3125q-0.765625 -1.453125 -2.53125 -1.453125q-1.546875 0 -2.34375 1.4375q-0.640625 1.140625 -0.640625 3.359375q0 2.234375 0.6875 3.40625q0.78125 1.359375 2.28125 1.359375q1.59375 0 2.359375 -1.28125zm23.095978 -6.765625q0.421875 1.359375 0.421875 3.21875q0 2.0 -0.515625 3.421875q-0.578125 1.734375 -1.84375 2.6875q-1.265625 0.9375 -3.1875 0.9375q-0.9375 0 -1.734375 -0.375q-0.796875 -0.375 -1.390625 -1.046875q-0.046875 -0.046875 -0.09375 -0.015625q-0.03125 0.015625 -0.03125 0.078125l0 0.875q0 0.265625 -0.265625 0.265625l-2.03125 0q-0.265625 0 -0.265625 -0.265625l0 -18.125q0 -0.265625 0.265625 -0.265625l2.03125 0q0.265625 0 0.265625 0.265625l0 5.9375q0 0.0625 0.03125 0.09375q0.046875 0.015625 0.09375 -0.03125q0.59375 -0.671875 1.40625 -1.03125q0.8125 -0.359375 1.71875 -0.359375q2.0 0 3.28125 0.984375q1.28125 0.984375 1.84375 2.75zm-2.828125 6.578125q0.65625 -1.25 0.65625 -3.296875q0 -2.1875 -0.84375 -3.53125q-0.78125 -1.265625 -2.375 -1.265625q-1.5 0 -2.265625 1.359375q-0.6875 1.21875 -0.6875 3.40625q0 2.1875 0.640625 3.359375q0.796875 1.4375 2.34375 1.4375q1.75 0 2.53125 -1.46875zm5.836273 8.765625q-0.1875 0 -0.1875 -0.265625l0 -1.5625q0 -0.265625 0.265625 -0.265625l0.046875 0q1.078125 -0.03125 1.6875 -0.28125q0.609375 -0.234375 1.0 -0.890625q0.40625 -0.640625 0.78125 -1.953125q0.03125 -0.03125 0.015625 -0.09375q-0.015625 -0.0625 -0.015625 -0.0625l-4.453125 -13.203125l-0.015625 -0.09375q0 -0.1875 0.234375 -0.1875l2.15625 0q0.234375 0 0.328125 0.203125l3.0 10.046875q0.03125 0.0625 0.078125 0.0625q0.0625 0 0.09375 -0.0625l2.984375 -10.046875q0.078125 -0.203125 0.3125 -0.203125l2.109375 0q0.296875 0 0.21875 0.28125l-4.859375 14.21875q-0.609375 1.828125 -1.234375 2.71875q-0.609375 0.90625 -1.59375 1.265625q-0.984375 0.375 -2.765625 0.375l-0.1875 0zm30.816437 -23.796875q0.125 -0.15625 0.3125 -0.15625l2.03125 0q0.265625 0 0.265625 0.265625l0 18.125q0 0.265625 -0.265625 0.265625l-2.03125 0q-0.265625 0 -0.265625 -0.265625l0 -13.65625q0 -0.078125 -0.0625 -0.09375q-0.046875 -0.03125 -0.0625 0.046875l-3.8125 5.8125q-0.109375 0.15625 -0.328125 0.15625l-1.015625 0q-0.1875 0 -0.3125 -0.15625l-3.84375 -5.765625q-0.03125 -0.078125 -0.078125 -0.046875q-0.046875 0.03125 -0.046875 0.109375l0 13.59375q0 0.265625 -0.265625 0.265625l-2.03125 0q-0.265625 0 -0.265625 -0.265625l0 -18.125q0 -0.265625 0.265625 -0.265625l2.03125 0q0.203125 0 0.3125 0.15625l4.671875 6.984375q0.015625 0.03125 0.0625 0.03125q0.0625 0 0.09375 -0.03125l4.640625 -6.984375zm12.199768 18.71875q-1.96875 0 -3.4375 -1.0q-1.46875 -1.0 -2.046875 -2.796875q-0.484375 -1.4375 -0.484375 -3.25q0 -1.890625 0.453125 -3.1875q0.59375 -1.765625 2.046875 -2.765625q1.46875 -1.0 3.5 -1.0q1.921875 0 3.34375 1.0q1.421875 1.0 2.046875 2.734375q0.46875 1.359375 0.46875 3.203125q0 1.859375 -0.46875 3.265625q-0.59375 1.796875 -2.03125 2.796875q-1.4375 1.0 -3.390625 1.0zm0 -2.21875q1.078125 0 1.875 -0.59375q0.796875 -0.609375 1.140625 -1.703125q0.296875 -1.0 0.296875 -2.5q0 -1.5 -0.265625 -2.484375q-0.34375 -1.09375 -1.15625 -1.6875q-0.796875 -0.59375 -1.9375 -0.59375q-1.09375 0 -1.890625 0.59375q-0.796875 0.59375 -1.15625 1.6875q-0.28125 0.9375 -0.28125 2.484375q0 1.546875 0.28125 2.5q0.328125 1.09375 1.140625 1.703125q0.8125 0.59375 1.953125 0.59375zm15.309784 -11.75q2.1875 0 3.453125 1.265625q1.28125 1.265625 1.28125 3.421875l0 8.796875q0 0.265625 -0.265625 0.265625l-2.015625 0q-0.265625 0 -0.265625 -0.265625l0 -8.296875q0 -1.328125 -0.78125 -2.15625q-0.765625 -0.828125 -2.046875 -0.828125q-1.25 0 -2.0625 0.828125q-0.796875 0.828125 -0.796875 2.140625l0 8.3125q0 0.265625 -0.265625 0.265625l-2.03125 0q-0.265625 0 -0.265625 -0.265625l0 -13.03125q0 -0.265625 0.265625 -0.265625l2.03125 0q0.265625 0 0.265625 0.265625l0 0.953125q0 0.0625 0.03125 0.09375q0.046875 0.015625 0.078125 -0.03125q1.140625 -1.46875 3.390625 -1.46875zm15.088257 2.015625q0 0.265625 -0.265625 0.265625l-2.890625 0q-0.109375 0 -0.109375 0.109375l0 7.0625q0 1.125 0.5 1.625q0.515625 0.484375 1.59375 0.484375l0.765625 0q0.265625 0 0.265625 0.265625l0 1.65625q0 0.265625 -0.265625 0.265625q-0.859375 0.046875 -1.21875 0.046875q-2.03125 0 -3.0625 -0.71875q-1.015625 -0.734375 -1.015625 -2.71875l0 -7.96875q0 -0.109375 -0.109375 -0.109375l-1.625 0q-0.265625 0 -0.265625 -0.265625l0 -1.5625q0 -0.265625 0.265625 -0.265625l1.625 0q0.109375 0 0.109375 -0.109375l0 -3.140625q0 -0.28125 0.265625 -0.28125l1.90625 0q0.265625 0 0.265625 0.28125l0 3.140625q0 0.109375 0.109375 0.109375l2.890625 0q0.265625 0 0.265625 0.265625l0 1.5625zm9.195496 -2.015625q2.1875 0 3.453125 1.265625q1.28125 1.265625 1.28125 3.421875l0 8.796875q0 0.265625 -0.265625 0.265625l-2.015625 0q-0.265625 0 -0.265625 -0.265625l0 -8.296875q0 -1.328125 -0.78125 -2.15625q-0.765625 -0.828125 -2.046875 -0.828125q-1.25 0 -2.0625 0.828125q-0.796875 0.828125 -0.796875 2.140625l0 8.3125q0 0.265625 -0.265625 0.265625l-2.03125 0q-0.265625 0 -0.265625 -0.265625l0 -18.125q0 -0.265625 0.265625 -0.265625l2.03125 0q0.265625 0 0.265625 0.265625l0 6.046875q0 0.0625 0.03125 0.09375q0.046875 0.015625 0.078125 -0.03125q1.140625 -1.46875 3.390625 -1.46875z" fill-rule="nonzero"/><path fill="#eaebed" d="m107.94486 343.95456q-0.265625 0 -0.265625 -0.265625l0 -1.6875q0 -0.265625 0.265625 -0.265625l8.234375 0q0.265625 0 0.265625 0.265625l0 1.6875q0 0.265625 -0.265625 0.265625l-8.234375 0z" fill-rule="nonzero"/><path fill="#eaebed" d="m154.23233 350.9858q-0.21875 0 -0.296875 -0.1875l-3.734375 -7.96875q-0.03125 -0.078125 -0.109375 -0.078125l-3.84375 0q-0.09375 0 -0.09375 0.109375l0 7.859375q0 0.265625 -0.265625 0.265625l-2.03125 0q-0.265625 0 -0.265625 -0.265625l0 -18.125q0 -0.265625 0.265625 -0.265625l7.171875 0q1.59375 0 2.796875 0.671875q1.21875 0.65625 1.890625 1.859375q0.671875 1.203125 0.671875 2.765625q0 1.875 -0.984375 3.171875q-0.96875 1.28125 -2.703125 1.734375q-0.09375 0.0625 -0.046875 0.140625l3.859375 8.0q0.03125 0.046875 0.03125 0.125q0 0.1875 -0.21875 0.1875l-2.09375 0zm-7.984375 -16.453125q-0.09375 0 -0.09375 0.109375l0 5.96875q0 0.109375 0.09375 0.109375l4.453125 0q1.421875 0 2.265625 -0.828125q0.859375 -0.84375 0.859375 -2.234375q0 -1.40625 -0.859375 -2.265625q-0.84375 -0.859375 -2.265625 -0.859375l-4.453125 0zm14.902725 0.75q-0.734375 0 -1.21875 -0.46875q-0.484375 -0.484375 -0.484375 -1.234375q0 -0.75 0.484375 -1.21875q0.484375 -0.484375 1.21875 -0.484375q0.75 0 1.234375 0.484375q0.484375 0.46875 0.484375 1.21875q0 0.75 -0.484375 1.234375q-0.484375 0.46875 -1.234375 0.46875zm-1.0625 15.671875q-0.265625 0 -0.265625 -0.265625l0 -13.0q0 -0.265625 0.265625 -0.265625l2.03125 0q0.265625 0 0.265625 0.265625l0 13.0q0 0.265625 -0.265625 0.265625l-2.03125 0zm14.7504425 -18.359375q0 -0.265625 0.265625 -0.265625l2.015625 0q0.265625 0 0.265625 0.265625l0 18.125q0 0.265625 -0.265625 0.265625l-2.015625 0q-0.265625 0 -0.265625 -0.265625l0 -0.875q0 -0.0625 -0.046875 -0.078125q-0.046875 -0.03125 -0.09375 0.015625q-0.59375 0.671875 -1.390625 1.046875q-0.796875 0.375 -1.734375 0.375q-1.90625 0 -3.1875 -0.9375q-1.265625 -0.953125 -1.84375 -2.6875q-0.5 -1.421875 -0.5 -3.421875q0 -1.859375 0.421875 -3.21875q0.5625 -1.765625 1.828125 -2.75q1.28125 -0.984375 3.28125 -0.984375q0.90625 0 1.71875 0.359375q0.8125 0.359375 1.40625 1.03125q0.046875 0.046875 0.09375 0.03125q0.046875 -0.03125 0.046875 -0.09375l0 -5.9375zm-0.671875 14.953125q0.609375 -1.125 0.609375 -3.359375q0 -2.234375 -0.671875 -3.40625q-0.765625 -1.359375 -2.265625 -1.359375q-1.59375 0 -2.359375 1.265625q-0.859375 1.34375 -0.859375 3.53125q0 2.046875 0.671875 3.296875q0.765625 1.46875 2.53125 1.46875q1.546875 0 2.34375 -1.4375zm17.959595 -5.046875q0.109375 1.09375 0.078125 2.453125q0 0.28125 -0.265625 0.28125l-8.5 0q-0.109375 0 -0.109375 0.09375q0 0.90625 0.171875 1.390625q0.28125 1.0625 1.171875 1.671875q0.90625 0.59375 2.265625 0.59375q1.96875 0 3.03125 -1.625q0.140625 -0.265625 0.34375 -0.078125l1.53125 1.015625q0.171875 0.15625 0.078125 0.34375q-0.75 1.203125 -2.125 1.890625q-1.375 0.6875 -3.109375 0.6875q-1.9375 0 -3.28125 -0.84375q-1.328125 -0.859375 -2.0 -2.421875q-0.625 -1.578125 -0.625 -3.8125q0 -1.953125 0.28125 -2.96875q0.484375 -1.84375 1.921875 -2.90625q1.4375 -1.0625 3.5 -1.0625q2.6875 0 4.015625 1.34375q1.34375 1.34375 1.625 3.953125zm-5.640625 -3.078125q-1.15625 0 -1.90625 0.578125q-0.734375 0.5625 -1.0 1.515625q-0.1875 0.59375 -0.25 1.5q0 0.109375 0.109375 0.109375l6.109375 0q0.109375 0 0.109375 -0.109375q-0.0625 -0.875 -0.171875 -1.3125q-0.265625 -1.03125 -1.046875 -1.65625q-0.78125 -0.625 -1.953125 -0.625zm14.897079 -2.140625q0.84375 0 1.546875 0.34375q0.1875 0.078125 0.125 0.328125l-0.421875 2.0q-0.03125 0.234375 -0.3125 0.15625q-0.453125 -0.1875 -1.078125 -0.1875l-0.375 0.03125q-1.25 0.046875 -2.0625 0.859375q-0.8125 0.8125 -0.8125 2.125l0 7.78125q0 0.265625 -0.265625 0.265625l-2.03125 0q-0.265625 0 -0.265625 -0.265625l0 -13.03125q0 -0.265625 0.265625 -0.265625l2.03125 0q0.265625 0 0.265625 0.265625l0 1.40625q0 0.078125 0.03125 0.09375q0.046875 0.015625 0.078125 -0.03125q1.203125 -1.875 3.28125 -1.875zm8.584213 13.859375q-1.609375 0 -2.828125 -0.46875q-1.203125 -0.484375 -1.875 -1.328125q-0.65625 -0.84375 -0.65625 -1.84375l0 -0.296875q0 -0.265625 0.265625 -0.265625l1.921875 0q0.265625 0 0.265625 0.265625l0 0.125q0 0.75 0.8125 1.3125q0.8125 0.5625 2.0625 0.5625q1.203125 0 1.9375 -0.515625q0.75 -0.53125 0.75 -1.328125q0 -0.765625 -0.6875 -1.15625q-0.6875 -0.390625 -2.234375 -0.8125q-1.53125 -0.4375 -2.5625 -0.875q-1.015625 -0.4375 -1.71875 -1.25q-0.703125 -0.8125 -0.703125 -2.09375q0 -1.78125 1.390625 -2.828125q1.40625 -1.0625 3.71875 -1.0625q1.546875 0 2.734375 0.5q1.1875 0.484375 1.828125 1.375q0.640625 0.875 0.640625 1.96875l0 0.078125q0 0.265625 -0.265625 0.265625l-1.875 0q-0.265625 0 -0.265625 -0.265625l0 -0.078125q0 -0.78125 -0.765625 -1.296875q-0.75 -0.515625 -2.046875 -0.515625q-1.1875 0 -1.921875 0.453125q-0.71875 0.453125 -0.71875 1.21875q0 0.78125 0.703125 1.1875q0.703125 0.390625 2.28125 0.84375q1.546875 0.421875 2.5625 0.84375q1.03125 0.40625 1.75 1.21875q0.71875 0.8125 0.71875 2.125q0 1.8125 -1.421875 2.875q-1.421875 1.0625 -3.796875 1.0625zm14.262802 -13.90625q2.1875 0 3.453125 1.265625q1.28125 1.265625 1.28125 3.421875l0 8.796875q0 0.265625 -0.265625 0.265625l-2.015625 0q-0.265625 0 -0.265625 -0.265625l0 -8.296875q0 -1.328125 -0.78125 -2.15625q-0.765625 -0.828125 -2.046875 -0.828125q-1.25 0 -2.0625 0.828125q-0.796875 0.828125 -0.796875 2.140625l0 8.3125q0 0.265625 -0.265625 0.265625l-2.03125 0q-0.265625 0 -0.265625 -0.265625l0 -18.125q0 -0.265625 0.265625 -0.265625l2.03125 0q0.265625 0 0.265625 0.265625l0 6.046875q0 0.0625 0.03125 0.09375q0.046875 0.015625 0.078125 -0.03125q1.140625 -1.46875 3.390625 -1.46875zm9.932007 -1.953125q-0.734375 0 -1.21875 -0.46875q-0.484375 -0.484375 -0.484375 -1.234375q0 -0.75 0.484375 -1.21875q0.484375 -0.484375 1.21875 -0.484375q0.75 0 1.234375 0.484375q0.484375 0.46875 0.484375 1.21875q0 0.75 -0.484375 1.234375q-0.484375 0.46875 -1.234375 0.46875zm-1.0625 15.671875q-0.265625 0 -0.265625 -0.265625l0 -13.0q0 -0.265625 0.265625 -0.265625l2.03125 0q0.265625 0 0.265625 0.265625l0 13.0q0 0.265625 -0.265625 0.265625l-2.03125 0zm17.328568 -10.125q0.5 1.4375 0.5 3.40625q0 1.875 -0.421875 3.234375q-0.5625 1.78125 -1.84375 2.765625q-1.265625 0.96875 -3.265625 0.96875q-0.90625 0 -1.734375 -0.359375q-0.8125 -0.359375 -1.390625 -1.03125q-0.046875 -0.046875 -0.09375 -0.015625q-0.046875 0.015625 -0.046875 0.0625l0 5.953125q0 0.265625 -0.265625 0.265625l-2.015625 0q-0.265625 0 -0.265625 -0.265625l0 -18.125q0 -0.265625 0.265625 -0.265625l2.015625 0q0.265625 0 0.265625 0.265625l0 0.875q0 0.046875 0.046875 0.078125q0.046875 0.03125 0.09375 -0.03125q0.578125 -0.65625 1.375 -1.03125q0.8125 -0.375 1.75 -0.375q1.90625 0 3.171875 0.953125q1.265625 0.9375 1.859375 2.671875zm-2.9375 6.875q0.859375 -1.28125 0.859375 -3.515625q0 -2.046875 -0.671875 -3.3125q-0.765625 -1.453125 -2.53125 -1.453125q-1.546875 0 -2.34375 1.4375q-0.640625 1.140625 -0.640625 3.359375q0 2.234375 0.6875 3.40625q0.78125 1.359375 2.28125 1.359375q1.59375 0 2.359375 -1.28125zm23.095978 -6.765625q0.421875 1.359375 0.421875 3.21875q0 2.0 -0.515625 3.421875q-0.578125 1.734375 -1.84375 2.6875q-1.265625 0.9375 -3.1875 0.9375q-0.9375 0 -1.734375 -0.375q-0.796875 -0.375 -1.390625 -1.046875q-0.046875 -0.046875 -0.09375 -0.015625q-0.03125 0.015625 -0.03125 0.078125l0 0.875q0 0.265625 -0.265625 0.265625l-2.03125 0q-0.265625 0 -0.265625 -0.265625l0 -18.125q0 -0.265625 0.265625 -0.265625l2.03125 0q0.265625 0 0.265625 0.265625l0 5.9375q0 0.0625 0.03125 0.09375q0.046875 0.015625 0.09375 -0.03125q0.59375 -0.671875 1.40625 -1.03125q0.8125 -0.359375 1.71875 -0.359375q2.0 0 3.28125 0.984375q1.28125 0.984375 1.84375 2.75zm-2.828125 6.578125q0.65625 -1.25 0.65625 -3.296875q0 -2.1875 -0.84375 -3.53125q-0.78125 -1.265625 -2.375 -1.265625q-1.5 0 -2.265625 1.359375q-0.6875 1.21875 -0.6875 3.40625q0 2.1875 0.640625 3.359375q0.796875 1.4375 2.34375 1.4375q1.75 0 2.53125 -1.46875zm5.836273 8.765625q-0.1875 0 -0.1875 -0.265625l0 -1.5625q0 -0.265625 0.265625 -0.265625l0.046875 0q1.078125 -0.03125 1.6875 -0.28125q0.609375 -0.234375 1.0 -0.890625q0.40625 -0.640625 0.78125 -1.953125q0.03125 -0.03125 0.015625 -0.09375q-0.015625 -0.0625 -0.015625 -0.0625l-4.453125 -13.203125l-0.015625 -0.09375q0 -0.1875 0.234375 -0.1875l2.15625 0q0.234375 0 0.328125 0.203125l3.0 10.046875q0.03125 0.0625 0.078125 0.0625q0.0625 0 0.09375 -0.0625l2.984375 -10.046875q0.078125 -0.203125 0.3125 -0.203125l2.109375 0q0.296875 0 0.21875 0.28125l-4.859375 14.21875q-0.609375 1.828125 -1.234375 2.71875q-0.609375 0.90625 -1.59375 1.265625q-0.984375 0.375 -2.765625 0.375l-0.1875 0zm24.488312 -5.078125q-2.046875 0 -3.5625 -0.640625q-1.5 -0.640625 -2.3125 -1.8125q-0.8125 -1.171875 -0.8125 -2.75l0 -0.765625q0 -0.28125 0.265625 -0.28125l1.953125 0q0.265625 0 0.265625 0.28125l0 0.625q0 1.359375 1.171875 2.25q1.171875 0.875 3.21875 0.875q1.84375 0 2.765625 -0.765625q0.9375 -0.78125 0.9375 -2.03125q0 -0.828125 -0.484375 -1.40625q-0.46875 -0.59375 -1.390625 -1.078125q-0.921875 -0.5 -2.671875 -1.203125q-1.953125 -0.734375 -3.09375 -1.34375q-1.125 -0.625 -1.875 -1.625q-0.734375 -1.0 -0.734375 -2.515625q0 -2.296875 1.625 -3.59375q1.640625 -1.3125 4.453125 -1.3125q1.96875 0 3.453125 0.671875q1.5 0.65625 2.3125 1.859375q0.8125 1.203125 0.8125 2.78125l0 0.53125q0 0.265625 -0.265625 0.265625l-2.0 0q-0.265625 0 -0.265625 -0.265625l0 -0.40625q0 -1.390625 -1.109375 -2.296875q-1.109375 -0.921875 -3.046875 -0.921875q-1.65625 0 -2.5625 0.6875q-0.90625 0.671875 -0.90625 1.953125q0 0.875 0.453125 1.4375q0.453125 0.5625 1.34375 1.0q0.890625 0.4375 2.734375 1.125q1.890625 0.75 3.0625 1.375q1.171875 0.625 1.9375 1.65625q0.78125 1.03125 0.78125 2.546875q0 2.34375 -1.71875 3.71875q-1.71875 1.375 -4.734375 1.375zm16.298798 -11.953125q0 0.265625 -0.265625 0.265625l-2.890625 0q-0.109375 0 -0.109375 0.109375l0 7.0625q0 1.125 0.5 1.625q0.515625 0.484375 1.59375 0.484375l0.765625 0q0.265625 0 0.265625 0.265625l0 1.65625q0 0.265625 -0.265625 0.265625q-0.859375 0.046875 -1.21875 0.046875q-2.03125 0 -3.0625 -0.71875q-1.015625 -0.734375 -1.015625 -2.71875l0 -7.96875q0 -0.109375 -0.109375 -0.109375l-1.625 0q-0.265625 0 -0.265625 -0.265625l0 -1.5625q0 -0.265625 0.265625 -0.265625l1.625 0q0.109375 0 0.109375 -0.109375l0 -3.140625q0 -0.28125 0.265625 -0.28125l1.90625 0q0.265625 0 0.265625 0.28125l0 3.140625q0 0.109375 0.109375 0.109375l2.890625 0q0.265625 0 0.265625 0.265625l0 1.5625zm8.101746 -2.046875q1.625 0 2.828125 0.578125q1.21875 0.5625 1.875 1.59375q0.65625 1.03125 0.65625 2.328125l0 9.015625q0 0.265625 -0.265625 0.265625l-2.03125 0q-0.265625 0 -0.265625 -0.265625l0 -0.953125q0 -0.140625 -0.140625 -0.0625q-0.6875 0.71875 -1.6875 1.109375q-1.0 0.390625 -2.21875 0.390625q-1.984375 0 -3.28125 -1.0q-1.28125 -1.0 -1.28125 -3.03125q0 -2.078125 1.453125 -3.265625q1.453125 -1.1875 4.0625 -1.1875l2.984375 0q0.109375 0 0.109375 -0.109375l0 -0.71875q0 -1.171875 -0.6875 -1.8125q-0.671875 -0.65625 -2.0625 -0.65625q-1.125 0 -1.828125 0.4375q-0.703125 0.4375 -0.859375 1.1875q-0.078125 0.265625 -0.328125 0.234375l-2.15625 -0.296875q-0.265625 -0.046875 -0.234375 -0.203125q0.203125 -1.578125 1.671875 -2.578125q1.46875 -1.0 3.6875 -1.0zm-0.703125 11.828125q1.421875 0 2.453125 -0.734375q1.046875 -0.75 1.046875 -1.890625l0 -1.578125q0 -0.109375 -0.109375 -0.109375l-2.5 0q-1.578125 0 -2.515625 0.625q-0.921875 0.609375 -0.921875 1.703125q0 0.984375 0.703125 1.484375q0.703125 0.5 1.84375 0.5zm15.46875 -11.75q0.84375 0 1.546875 0.34375q0.1875 0.078125 0.125 0.328125l-0.421875 2.0q-0.03125 0.234375 -0.3125 0.15625q-0.453125 -0.1875 -1.078125 -0.1875l-0.375 0.03125q-1.25 0.046875 -2.0625 0.859375q-0.8125 0.8125 -0.8125 2.125l0 7.78125q0 0.265625 -0.265625 0.265625l-2.03125 0q-0.265625 0 -0.265625 -0.265625l0 -13.03125q0 -0.265625 0.265625 -0.265625l2.03125 0q0.265625 0 0.265625 0.265625l0 1.40625q0 0.078125 0.03125 0.09375q0.046875 0.015625 0.078125 -0.03125q1.203125 -1.875 3.28125 -1.875zm10.932739 1.96875q0 0.265625 -0.265625 0.265625l-2.890625 0q-0.109375 0 -0.109375 0.109375l0 7.0625q0 1.125 0.5 1.625q0.515625 0.484375 1.59375 0.484375l0.765625 0q0.265625 0 0.265625 0.265625l0 1.65625q0 0.265625 -0.265625 0.265625q-0.859375 0.046875 -1.21875 0.046875q-2.03125 0 -3.0625 -0.71875q-1.015625 -0.734375 -1.015625 -2.71875l0 -7.96875q0 -0.109375 -0.109375 -0.109375l-1.625 0q-0.265625 0 -0.265625 -0.265625l0 -1.5625q0 -0.265625 0.265625 -0.265625l1.625 0q0.109375 0 0.109375 -0.109375l0 -3.140625q0 -0.28125 0.265625 -0.28125l1.90625 0q0.265625 0 0.265625 0.28125l0 3.140625q0 0.109375 0.109375 0.109375l2.890625 0q0.265625 0 0.265625 0.265625l0 1.5625zm14.542358 11.953125q-2.046875 0 -3.5625 -0.640625q-1.5 -0.640625 -2.3125 -1.8125q-0.8125 -1.171875 -0.8125 -2.75l0 -0.765625q0 -0.28125 0.265625 -0.28125l1.953125 0q0.265625 0 0.265625 0.28125l0 0.625q0 1.359375 1.171875 2.25q1.171875 0.875 3.21875 0.875q1.84375 0 2.765625 -0.765625q0.9375 -0.78125 0.9375 -2.03125q0 -0.828125 -0.484375 -1.40625q-0.46875 -0.59375 -1.390625 -1.078125q-0.921875 -0.5 -2.671875 -1.203125q-1.953125 -0.734375 -3.09375 -1.34375q-1.125 -0.625 -1.875 -1.625q-0.734375 -1.0 -0.734375 -2.515625q0 -2.296875 1.625 -3.59375q1.640625 -1.3125 4.453125 -1.3125q1.96875 0 3.453125 0.671875q1.5 0.65625 2.3125 1.859375q0.8125 1.203125 0.8125 2.78125l0 0.53125q0 0.265625 -0.265625 0.265625l-2.0 0q-0.265625 0 -0.265625 -0.265625l0 -0.40625q0 -1.390625 -1.109375 -2.296875q-1.109375 -0.921875 -3.046875 -0.921875q-1.65625 0 -2.5625 0.6875q-0.90625 0.671875 -0.90625 1.953125q0 0.875 0.453125 1.4375q0.453125 0.5625 1.34375 1.0q0.890625 0.4375 2.734375 1.125q1.890625 0.75 3.0625 1.375q1.171875 0.625 1.9375 1.65625q0.78125 1.03125 0.78125 2.546875q0 2.34375 -1.71875 3.71875q-1.71875 1.375 -4.734375 1.375zm16.298828 -11.953125q0 0.265625 -0.265625 0.265625l-2.890625 0q-0.109375 0 -0.109375 0.109375l0 7.0625q0 1.125 0.5 1.625q0.515625 0.484375 1.59375 0.484375l0.765625 0q0.265625 0 0.265625 0.265625l0 1.65625q0 0.265625 -0.265625 0.265625q-0.859375 0.046875 -1.21875 0.046875q-2.03125 0 -3.0625 -0.71875q-1.015625 -0.734375 -1.015625 -2.71875l0 -7.96875q0 -0.109375 -0.109375 -0.109375l-1.625 0q-0.265625 0 -0.265625 -0.265625l0 -1.5625q0 -0.265625 0.265625 -0.265625l1.625 0q0.109375 0 0.109375 -0.109375l0 -3.140625q0 -0.28125 0.265625 -0.28125l1.90625 0q0.265625 0 0.265625 0.28125l0 3.140625q0 0.109375 0.109375 0.109375l2.890625 0q0.265625 0 0.265625 0.265625l0 1.5625zm8.101746 -2.046875q1.625 0 2.828125 0.578125q1.21875 0.5625 1.875 1.59375q0.65625 1.03125 0.65625 2.328125l0 9.015625q0 0.265625 -0.265625 0.265625l-2.03125 0q-0.265625 0 -0.265625 -0.265625l0 -0.953125q0 -0.140625 -0.140625 -0.0625q-0.6875 0.71875 -1.6875 1.109375q-1.0 0.390625 -2.21875 0.390625q-1.984375 0 -3.28125 -1.0q-1.28125 -1.0 -1.28125 -3.03125q0 -2.078125 1.453125 -3.265625q1.453125 -1.1875 4.0625 -1.1875l2.984375 0q0.109375 0 0.109375 -0.109375l0 -0.71875q0 -1.171875 -0.6875 -1.8125q-0.671875 -0.65625 -2.0625 -0.65625q-1.125 0 -1.828125 0.4375q-0.703125 0.4375 -0.859375 1.1875q-0.078125 0.265625 -0.328125 0.234375l-2.15625 -0.296875q-0.265625 -0.046875 -0.234375 -0.203125q0.203125 -1.578125 1.671875 -2.578125q1.46875 -1.0 3.6875 -1.0zm-0.703125 11.828125q1.421875 0 2.453125 -0.734375q1.046875 -0.75 1.046875 -1.890625l0 -1.578125q0 -0.109375 -0.109375 -0.109375l-2.5 0q-1.578125 0 -2.515625 0.625q-0.921875 0.609375 -0.921875 1.703125q0 0.984375 0.703125 1.484375q0.703125 0.5 1.84375 0.5zm16.032043 -9.78125q0 0.265625 -0.265625 0.265625l-2.890625 0q-0.109375 0 -0.109375 0.109375l0 7.0625q0 1.125 0.5 1.625q0.515625 0.484375 1.59375 0.484375l0.765625 0q0.265625 0 0.265625 0.265625l0 1.65625q0 0.265625 -0.265625 0.265625q-0.859375 0.046875 -1.21875 0.046875q-2.03125 0 -3.0625 -0.71875q-1.015625 -0.734375 -1.015625 -2.71875l0 -7.96875q0 -0.109375 -0.109375 -0.109375l-1.625 0q-0.265625 0 -0.265625 -0.265625l0 -1.5625q0 -0.265625 0.265625 -0.265625l1.625 0q0.109375 0 0.109375 -0.109375l0 -3.140625q0 -0.28125 0.265625 -0.28125l1.90625 0q0.265625 0 0.265625 0.28125l0 3.140625q0 0.109375 0.109375 0.109375l2.890625 0q0.265625 0 0.265625 0.265625l0 1.5625zm4.6798706 -3.96875q-0.734375 0 -1.21875 -0.46875q-0.484375 -0.484375 -0.484375 -1.234375q0 -0.75 0.484375 -1.21875q0.484375 -0.484375 1.21875 -0.484375q0.75 0 1.234375 0.484375q0.484375 0.46875 0.484375 1.21875q0 0.75 -0.484375 1.234375q-0.484375 0.46875 -1.234375 0.46875zm-1.0625 15.671875q-0.265625 0 -0.265625 -0.265625l0 -13.0q0 -0.265625 0.265625 -0.265625l2.03125 0q0.265625 0 0.265625 0.265625l0 13.0q0 0.265625 -0.265625 0.265625l-2.03125 0zm11.859802 0.25q-1.96875 0 -3.4375 -1.0q-1.46875 -1.0 -2.046875 -2.796875q-0.484375 -1.4375 -0.484375 -3.25q0 -1.890625 0.453125 -3.1875q0.59375 -1.765625 2.046875 -2.765625q1.46875 -1.0 3.5 -1.0q1.921875 0 3.34375 1.0q1.421875 1.0 2.046875 2.734375q0.46875 1.359375 0.46875 3.203125q0 1.859375 -0.46875 3.265625q-0.59375 1.796875 -2.03125 2.796875q-1.4375 1.0 -3.390625 1.0zm0 -2.21875q1.078125 0 1.875 -0.59375q0.796875 -0.609375 1.140625 -1.703125q0.296875 -1.0 0.296875 -2.5q0 -1.5 -0.265625 -2.484375q-0.34375 -1.09375 -1.15625 -1.6875q-0.796875 -0.59375 -1.9375 -0.59375q-1.09375 0 -1.890625 0.59375q-0.796875 0.59375 -1.15625 1.6875q-0.28125 0.9375 -0.28125 2.484375q0 1.546875 0.28125 2.5q0.328125 1.09375 1.140625 1.703125q0.8125 0.59375 1.953125 0.59375zm15.309784 -11.75q2.1875 0 3.453125 1.265625q1.28125 1.265625 1.28125 3.421875l0 8.796875q0 0.265625 -0.265625 0.265625l-2.015625 0q-0.265625 0 -0.265625 -0.265625l0 -8.296875q0 -1.328125 -0.78125 -2.15625q-0.765625 -0.828125 -2.046875 -0.828125q-1.25 0 -2.0625 0.828125q-0.796875 0.828125 -0.796875 2.140625l0 8.3125q0 0.265625 -0.265625 0.265625l-2.03125 0q-0.265625 0 -0.265625 -0.265625l0 -13.03125q0 -0.265625 0.265625 -0.265625l2.03125 0q0.265625 0 0.265625 0.265625l0 0.953125q0 0.0625 0.03125 0.09375q0.046875 0.015625 0.078125 -0.03125q1.140625 -1.46875 3.390625 -1.46875z" fill-rule="nonzero"/><path fill="#eaebed" d="m56.732323 384.866l16.140625 0l-6.15625 -6.140625l5.109375 0l8.21875 8.015625l-8.21875 8.015625l-5.109375 0l6.15625 -6.140625l-16.140625 0l0 -3.75z" fill-rule="nonzero"/><path fill="#eaebed" d="m119.95107 379.60037q0 0.265625 -0.265625 0.265625l-9.4375 0q-0.09375 0 -0.09375 0.109375l0 5.734375q0 0.109375 0.09375 0.109375l6.484375 0q0.265625 0 0.265625 0.265625l0 1.671875q0 0.265625 -0.265625 0.265625l-6.484375 0q-0.09375 0 -0.09375 0.109375l0 7.921875q0 0.265625 -0.265625 0.265625l-2.03125 0q-0.265625 0 -0.265625 -0.265625l0 -18.125q0 -0.265625 0.265625 -0.265625l11.828125 0q0.265625 0 0.265625 0.265625l0 1.671875zm3.920105 1.015625q-0.734375 0 -1.21875 -0.46875q-0.484375 -0.484375 -0.484375 -1.234375q0 -0.75 0.484375 -1.21875q0.484375 -0.484375 1.21875 -0.484375q0.75 0 1.234375 0.484375q0.484375 0.46875 0.484375 1.21875q0 0.75 -0.484375 1.234375q-0.484375 0.46875 -1.234375 0.46875zm-1.0625 15.671875q-0.265625 0 -0.265625 -0.265625l0 -13.0q0 -0.265625 0.265625 -0.265625l2.03125 0q0.265625 0 0.265625 0.265625l0 13.0q0 0.265625 -0.265625 0.265625l-2.03125 0zm12.37545 -13.71875q2.1875 0 3.453125 1.265625q1.28125 1.265625 1.28125 3.421875l0 8.796875q0 0.265625 -0.265625 0.265625l-2.015625 0q-0.265625 0 -0.265625 -0.265625l0 -8.296875q0 -1.328125 -0.78125 -2.15625q-0.765625 -0.828125 -2.046875 -0.828125q-1.25 0 -2.0625 0.828125q-0.796875 0.828125 -0.796875 2.140625l0 8.3125q0 0.265625 -0.265625 0.265625l-2.03125 0q-0.265625 0 -0.265625 -0.265625l0 -13.03125q0 -0.265625 0.265625 -0.265625l2.03125 0q0.265625 0 0.265625 0.265625l0 0.953125q0 0.0625 0.03125 0.09375q0.046875 0.015625 0.078125 -0.03125q1.140625 -1.46875 3.390625 -1.46875zm16.662628 -4.640625q0 -0.265625 0.265625 -0.265625l2.015625 0q0.265625 0 0.265625 0.265625l0 18.125q0 0.265625 -0.265625 0.265625l-2.015625 0q-0.265625 0 -0.265625 -0.265625l0 -0.875q0 -0.0625 -0.046875 -0.078125q-0.046875 -0.03125 -0.09375 0.015625q-0.59375 0.671875 -1.390625 1.046875q-0.796875 0.375 -1.734375 0.375q-1.90625 0 -3.1875 -0.9375q-1.265625 -0.953125 -1.84375 -2.6875q-0.5 -1.421875 -0.5 -3.421875q0 -1.859375 0.421875 -3.21875q0.5625 -1.765625 1.828125 -2.75q1.28125 -0.984375 3.28125 -0.984375q0.90625 0 1.71875 0.359375q0.8125 0.359375 1.40625 1.03125q0.046875 0.046875 0.09375 0.03125q0.046875 -0.03125 0.046875 -0.09375l0 -5.9375zm-0.671875 14.953125q0.609375 -1.125 0.609375 -3.359375q0 -2.234375 -0.671875 -3.40625q-0.765625 -1.359375 -2.265625 -1.359375q-1.59375 0 -2.359375 1.265625q-0.859375 1.34375 -0.859375 3.53125q0 2.046875 0.671875 3.296875q0.765625 1.46875 2.53125 1.46875q1.546875 0 2.34375 -1.4375zm8.522095 -12.265625q-0.734375 0 -1.21875 -0.46875q-0.484375 -0.484375 -0.484375 -1.234375q0 -0.75 0.484375 -1.21875q0.484375 -0.484375 1.21875 -0.484375q0.75 0 1.234375 0.484375q0.484375 0.46875 0.484375 1.21875q0 0.75 -0.484375 1.234375q-0.484375 0.46875 -1.234375 0.46875zm-1.0625 15.671875q-0.265625 0 -0.265625 -0.265625l0 -13.0q0 -0.265625 0.265625 -0.265625l2.03125 0q0.265625 0 0.265625 0.265625l0 13.0q0 0.265625 -0.265625 0.265625l-2.03125 0zm12.3754425 -13.71875q2.1875 0 3.453125 1.265625q1.28125 1.265625 1.28125 3.421875l0 8.796875q0 0.265625 -0.265625 0.265625l-2.015625 0q-0.265625 0 -0.265625 -0.265625l0 -8.296875q0 -1.328125 -0.78125 -2.15625q-0.765625 -0.828125 -2.046875 -0.828125q-1.25 0 -2.0625 0.828125q-0.796875 0.828125 -0.796875 2.140625l0 8.3125q0 0.265625 -0.265625 0.265625l-2.03125 0q-0.265625 0 -0.265625 -0.265625l0 -13.03125q0 -0.265625 0.265625 -0.265625l2.03125 0q0.265625 0 0.265625 0.265625l0 0.953125q0 0.0625 0.03125 0.09375q0.046875 0.015625 0.078125 -0.03125q1.140625 -1.46875 3.390625 -1.46875zm16.728882 0.453125q0 -0.265625 0.265625 -0.265625l2.03125 0q0.265625 0 0.265625 0.265625l0 12.609375q0 3.21875 -1.828125 4.59375q-1.828125 1.390625 -4.890625 1.390625q-0.421875 0 -1.328125 -0.046875q-0.265625 -0.03125 -0.265625 -0.296875l0.078125 -1.828125q0 -0.109375 0.078125 -0.1875q0.078125 -0.078125 0.21875 -0.0625q0.375 0.03125 1.09375 0.03125q2.265625 0 3.265625 -0.84375q1.015625 -0.84375 1.015625 -2.828125l0 -0.484375q0 -0.0625 -0.046875 -0.078125q-0.03125 -0.03125 -0.078125 0.015625q-1.125 1.3125 -3.28125 1.3125q-1.734375 0 -3.140625 -0.90625q-1.390625 -0.90625 -1.921875 -2.671875q-0.34375 -1.171875 -0.34375 -3.25q0 -2.203125 0.390625 -3.40625q0.515625 -1.59375 1.796875 -2.5625q1.296875 -0.984375 3.0625 -0.984375q2.1875 0 3.4375 1.328125q0.046875 0.0625 0.078125 0.046875q0.046875 -0.015625 0.046875 -0.0625l0 -0.828125zm-0.15625 8.953125q0.078125 -0.421875 0.109375 -0.90625q0.046875 -0.484375 0.046875 -1.59375q0 -1.125 -0.046875 -1.59375q-0.03125 -0.46875 -0.140625 -0.890625q-0.203125 -0.984375 -0.953125 -1.609375q-0.75 -0.625 -1.859375 -0.625q-1.125 0 -1.875 0.625q-0.75 0.625 -1.0625 1.609375q-0.296875 0.796875 -0.296875 2.484375q0 1.828125 0.265625 2.5q0.265625 0.984375 1.046875 1.609375q0.796875 0.625 1.921875 0.625q1.171875 0 1.90625 -0.625q0.734375 -0.625 0.9375 -1.609375zm10.908035 4.5q-1.609375 0 -2.828125 -0.46875q-1.203125 -0.484375 -1.875 -1.328125q-0.65625 -0.84375 -0.65625 -1.84375l0 -0.296875q0 -0.265625 0.265625 -0.265625l1.921875 0q0.265625 0 0.265625 0.265625l0 0.125q0 0.75 0.8125 1.3125q0.8125 0.5625 2.0625 0.5625q1.203125 0 1.9375 -0.515625q0.75 -0.53125 0.75 -1.328125q0 -0.765625 -0.6875 -1.15625q-0.6875 -0.390625 -2.234375 -0.8125q-1.53125 -0.4375 -2.5625 -0.875q-1.015625 -0.4375 -1.71875 -1.25q-0.703125 -0.8125 -0.703125 -2.09375q0 -1.78125 1.390625 -2.828125q1.40625 -1.0625 3.71875 -1.0625q1.546875 0 2.734375 0.5q1.1875 0.484375 1.828125 1.375q0.640625 0.875 0.640625 1.96875l0 0.078125q0 0.265625 -0.265625 0.265625l-1.875 0q-0.265625 0 -0.265625 -0.265625l0 -0.078125q0 -0.78125 -0.765625 -1.296875q-0.75 -0.515625 -2.046875 -0.515625q-1.1875 0 -1.921875 0.453125q-0.71875 0.453125 -0.71875 1.21875q0 0.78125 0.703125 1.1875q0.703125 0.390625 2.28125 0.84375q1.546875 0.421875 2.5625 0.84375q1.03125 0.40625 1.75 1.21875q0.71875 0.8125 0.71875 2.125q0 1.8125 -1.421875 2.875q-1.421875 1.0625 -3.796875 1.0625z" fill-rule="nonzero"/><path fill="#eaebed" d="m56.732323 430.19934l16.140625 0l-6.15625 -6.140625l5.109375 0l8.21875 8.015625l-8.21875 8.015625l-5.109375 0l6.15625 -6.140625l-16.140625 0l0 -3.75z" fill-rule="nonzero"/><path fill="#eaebed" d="m107.85732 441.65247q-0.265625 0 -0.265625 -0.265625l0 -18.125q0 -0.265625 0.265625 -0.265625l2.03125 0q0.265625 0 0.265625 0.265625l0 16.078125q0 0.09375 0.09375 0.09375l9.203125 0q0.265625 0 0.265625 0.265625l0 1.6875q0 0.265625 -0.265625 0.265625l-11.59375 0zm16.147125 -15.703125q-0.734375 0 -1.21875 -0.46875q-0.484375 -0.484375 -0.484375 -1.234375q0 -0.75 0.484375 -1.21875q0.484375 -0.484375 1.21875 -0.484375q0.75 0 1.234375 0.484375q0.484375 0.46875 0.484375 1.21875q0 0.75 -0.484375 1.234375q-0.484375 0.46875 -1.234375 0.46875zm-1.0625 15.671875q-0.265625 0 -0.265625 -0.265625l0 -13.0q0 -0.265625 0.265625 -0.265625l2.03125 0q0.265625 0 0.265625 0.265625l0 13.0q0 0.265625 -0.265625 0.265625l-2.03125 0zm20.422325 -13.71875q2.03125 0 3.203125 1.21875q1.171875 1.203125 1.171875 3.359375l0 8.90625q0 0.265625 -0.265625 0.265625l-2.0 0q-0.265625 0 -0.265625 -0.265625l0 -8.375q0 -1.328125 -0.734375 -2.109375q-0.734375 -0.796875 -1.96875 -0.796875q-1.21875 0 -2.0 0.78125q-0.765625 0.765625 -0.765625 2.078125l0 8.421875q0 0.265625 -0.265625 0.265625l-2.0 0q-0.265625 0 -0.265625 -0.265625l0 -8.375q0 -1.328125 -0.734375 -2.109375q-0.734375 -0.796875 -1.953125 -0.796875q-1.234375 0 -1.96875 0.78125q-0.734375 0.765625 -0.734375 2.078125l0 8.421875q0 0.265625 -0.265625 0.265625l-2.03125 0q-0.265625 0 -0.265625 -0.265625l0 -13.03125q0 -0.265625 0.265625 -0.265625l2.03125 0q0.265625 0 0.265625 0.265625l0 0.90625q0 0.046875 0.03125 0.078125q0.046875 0.03125 0.109375 -0.03125q1.171875 -1.40625 3.40625 -1.40625q1.359375 0 2.3125 0.515625q0.96875 0.515625 1.5 1.53125q0.078125 0.109375 0.15625 0q0.640625 -1.03125 1.6875 -1.53125q1.0625 -0.515625 2.34375 -0.515625zm9.455475 -1.953125q-0.734375 0 -1.21875 -0.46875q-0.484375 -0.484375 -0.484375 -1.234375q0 -0.75 0.484375 -1.21875q0.484375 -0.484375 1.21875 -0.484375q0.75 0 1.234375 0.484375q0.484375 0.46875 0.484375 1.21875q0 0.75 -0.484375 1.234375q-0.484375 0.46875 -1.234375 0.46875zm-1.0625 15.671875q-0.265625 0 -0.265625 -0.265625l0 -13.0q0 -0.265625 0.265625 -0.265625l2.03125 0q0.265625 0 0.265625 0.265625l0 13.0q0 0.265625 -0.265625 0.265625l-2.03125 0zm13.0160675 -11.703125q0 0.265625 -0.265625 0.265625l-2.890625 0q-0.109375 0 -0.109375 0.109375l0 7.0625q0 1.125 0.5 1.625q0.515625 0.484375 1.59375 0.484375l0.765625 0q0.265625 0 0.265625 0.265625l0 1.65625q0 0.265625 -0.265625 0.265625q-0.859375 0.046875 -1.21875 0.046875q-2.03125 0 -3.0625 -0.71875q-1.015625 -0.734375 -1.015625 -2.71875l0 -7.96875q0 -0.109375 -0.109375 -0.109375l-1.625 0q-0.265625 0 -0.265625 -0.265625l0 -1.5625q0 -0.265625 0.265625 -0.265625l1.625 0q0.109375 0 0.109375 -0.109375l0 -3.140625q0 -0.28125 0.265625 -0.28125l1.90625 0q0.265625 0 0.265625 0.28125l0 3.140625q0 0.109375 0.109375 0.109375l2.890625 0q0.265625 0 0.265625 0.265625l0 1.5625zm8.101746 -2.046875q1.625 0 2.828125 0.578125q1.21875 0.5625 1.875 1.59375q0.65625 1.03125 0.65625 2.328125l0 9.015625q0 0.265625 -0.265625 0.265625l-2.03125 0q-0.265625 0 -0.265625 -0.265625l0 -0.953125q0 -0.140625 -0.140625 -0.0625q-0.6875 0.71875 -1.6875 1.109375q-1.0 0.390625 -2.21875 0.390625q-1.984375 0 -3.28125 -1.0q-1.28125 -1.0 -1.28125 -3.03125q0 -2.078125 1.453125 -3.265625q1.453125 -1.1875 4.0625 -1.1875l2.984375 0q0.109375 0 0.109375 -0.109375l0 -0.71875q0 -1.171875 -0.6875 -1.8125q-0.671875 -0.65625 -2.0625 -0.65625q-1.125 0 -1.828125 0.4375q-0.703125 0.4375 -0.859375 1.1875q-0.078125 0.265625 -0.328125 0.234375l-2.15625 -0.296875q-0.265625 -0.046875 -0.234375 -0.203125q0.203125 -1.578125 1.671875 -2.578125q1.46875 -1.0 3.6875 -1.0zm-0.703125 11.828125q1.421875 0 2.453125 -0.734375q1.046875 -0.75 1.046875 -1.890625l0 -1.578125q0 -0.109375 -0.109375 -0.109375l-2.5 0q-1.578125 0 -2.515625 0.625q-0.921875 0.609375 -0.921875 1.703125q0 0.984375 0.703125 1.484375q0.703125 0.5 1.84375 0.5zm16.032059 -9.78125q0 0.265625 -0.265625 0.265625l-2.890625 0q-0.109375 0 -0.109375 0.109375l0 7.0625q0 1.125 0.5 1.625q0.515625 0.484375 1.59375 0.484375l0.765625 0q0.265625 0 0.265625 0.265625l0 1.65625q0 0.265625 -0.265625 0.265625q-0.859375 0.046875 -1.21875 0.046875q-2.03125 0 -3.0625 -0.71875q-1.015625 -0.734375 -1.015625 -2.71875l0 -7.96875q0 -0.109375 -0.109375 -0.109375l-1.625 0q-0.265625 0 -0.265625 -0.265625l0 -1.5625q0 -0.265625 0.265625 -0.265625l1.625 0q0.109375 0 0.109375 -0.109375l0 -3.140625q0 -0.28125 0.265625 -0.28125l1.90625 0q0.265625 0 0.265625 0.28125l0 3.140625q0 0.109375 0.109375 0.109375l2.890625 0q0.265625 0 0.265625 0.265625l0 1.5625zm4.6798706 -3.96875q-0.734375 0 -1.21875 -0.46875q-0.484375 -0.484375 -0.484375 -1.234375q0 -0.75 0.484375 -1.21875q0.484375 -0.484375 1.21875 -0.484375q0.75 0 1.234375 0.484375q0.484375 0.46875 0.484375 1.21875q0 0.75 -0.484375 1.234375q-0.484375 0.46875 -1.234375 0.46875zm-1.0625 15.671875q-0.265625 0 -0.265625 -0.265625l0 -13.0q0 -0.265625 0.265625 -0.265625l2.03125 0q0.265625 0 0.265625 0.265625l0 13.0q0 0.265625 -0.265625 0.265625l-2.03125 0zm11.8598175 0.25q-1.96875 0 -3.4375 -1.0q-1.46875 -1.0 -2.046875 -2.796875q-0.484375 -1.4375 -0.484375 -3.25q0 -1.890625 0.453125 -3.1875q0.59375 -1.765625 2.046875 -2.765625q1.46875 -1.0 3.5 -1.0q1.921875 0 3.34375 1.0q1.421875 1.0 2.046875 2.734375q0.46875 1.359375 0.46875 3.203125q0 1.859375 -0.46875 3.265625q-0.59375 1.796875 -2.03125 2.796875q-1.4375 1.0 -3.390625 1.0zm0 -2.21875q1.078125 0 1.875 -0.59375q0.796875 -0.609375 1.140625 -1.703125q0.296875 -1.0 0.296875 -2.5q0 -1.5 -0.265625 -2.484375q-0.34375 -1.09375 -1.15625 -1.6875q-0.796875 -0.59375 -1.9375 -0.59375q-1.09375 0 -1.890625 0.59375q-0.796875 0.59375 -1.15625 1.6875q-0.28125 0.9375 -0.28125 2.484375q0 1.546875 0.28125 2.5q0.328125 1.09375 1.140625 1.703125q0.8125 0.59375 1.953125 0.59375zm15.309784 -11.75q2.1875 0 3.453125 1.265625q1.28125 1.265625 1.28125 3.421875l0 8.796875q0 0.265625 -0.265625 0.265625l-2.015625 0q-0.265625 0 -0.265625 -0.265625l0 -8.296875q0 -1.328125 -0.78125 -2.15625q-0.765625 -0.828125 -2.046875 -0.828125q-1.25 0 -2.0625 0.828125q-0.796875 0.828125 -0.796875 2.140625l0 8.3125q0 0.265625 -0.265625 0.265625l-2.03125 0q-0.265625 0 -0.265625 -0.265625l0 -13.03125q0 -0.265625 0.265625 -0.265625l2.03125 0q0.265625 0 0.265625 0.265625l0 0.953125q0 0.0625 0.03125 0.09375q0.046875 0.015625 0.078125 -0.03125q1.140625 -1.46875 3.390625 -1.46875zm13.166382 13.90625q-1.609375 0 -2.828125 -0.46875q-1.203125 -0.484375 -1.875 -1.328125q-0.65625 -0.84375 -0.65625 -1.84375l0 -0.296875q0 -0.265625 0.265625 -0.265625l1.921875 0q0.265625 0 0.265625 0.265625l0 0.125q0 0.75 0.8125 1.3125q0.8125 0.5625 2.0625 0.5625q1.203125 0 1.9375 -0.515625q0.75 -0.53125 0.75 -1.328125q0 -0.765625 -0.6875 -1.15625q-0.6875 -0.390625 -2.234375 -0.8125q-1.53125 -0.4375 -2.5625 -0.875q-1.015625 -0.4375 -1.71875 -1.25q-0.703125 -0.8125 -0.703125 -2.09375q0 -1.78125 1.390625 -2.828125q1.40625 -1.0625 3.71875 -1.0625q1.546875 0 2.734375 0.5q1.1875 0.484375 1.828125 1.375q0.640625 0.875 0.640625 1.96875l0 0.078125q0 0.265625 -0.265625 0.265625l-1.875 0q-0.265625 0 -0.265625 -0.265625l0 -0.078125q0 -0.78125 -0.765625 -1.296875q-0.75 -0.515625 -2.046875 -0.515625q-1.1875 0 -1.921875 0.453125q-0.71875 0.453125 -0.71875 1.21875q0 0.78125 0.703125 1.1875q0.703125 0.390625 2.28125 0.84375q1.546875 0.421875 2.5625 0.84375q1.03125 0.40625 1.75 1.21875q0.71875 0.8125 0.71875 2.125q0 1.8125 -1.421875 2.875q-1.421875 1.0625 -3.796875 1.0625z" fill-rule="nonzero"/><path fill="#eaebed" d="m56.732323 475.53268l16.140625 0l-6.15625 -6.140625l5.109375 0l8.21875 8.015625l-8.21875 8.015625l-5.109375 0l6.15625 -6.140625l-16.140625 0l0 -3.75z" fill-rule="nonzero"/><path fill="#eaebed" d="m118.23232 486.9858q-0.21875 0 -0.296875 -0.1875l-3.734375 -7.96875q-0.03125 -0.078125 -0.109375 -0.078125l-3.84375 0q-0.09375 0 -0.09375 0.109375l0 7.859375q0 0.265625 -0.265625 0.265625l-2.03125 0q-0.265625 0 -0.265625 -0.265625l0 -18.125q0 -0.265625 0.265625 -0.265625l7.171875 0q1.59375 0 2.796875 0.671875q1.21875 0.65625 1.890625 1.859375q0.671875 1.203125 0.671875 2.765625q0 1.875 -0.984375 3.171875q-0.96875 1.28125 -2.703125 1.734375q-0.09375 0.0625 -0.046875 0.140625l3.859375 8.0q0.03125 0.046875 0.03125 0.125q0 0.1875 -0.21875 0.1875l-2.09375 0zm-7.984375 -16.453125q-0.09375 0 -0.09375 0.109375l0 5.96875q0 0.109375 0.09375 0.109375l4.453125 0q1.421875 0 2.265625 -0.828125q0.859375 -0.84375 0.859375 -2.234375q0 -1.40625 -0.859375 -2.265625q-0.84375 -0.859375 -2.265625 -0.859375l-4.453125 0zm24.233559 7.96875q0.109375 1.09375 0.078125 2.453125q0 0.28125 -0.265625 0.28125l-8.500008 0q-0.109375 0 -0.109375 0.09375q0 0.90625 0.171875 1.390625q0.28125 1.0625 1.171875 1.671875q0.90625 0.59375 2.2656326 0.59375q1.96875 0 3.03125 -1.625q0.140625 -0.265625 0.34375 -0.078125l1.53125 1.015625q0.171875 0.15625 0.078125 0.34375q-0.75 1.203125 -2.125 1.890625q-1.375 0.6875 -3.109375 0.6875q-1.9375076 0 -3.2812576 -0.84375q-1.328125 -0.859375 -2.0 -2.421875q-0.625 -1.578125 -0.625 -3.8125q0 -1.953125 0.28125 -2.96875q0.484375 -1.84375 1.921875 -2.90625q1.4375 -1.0625 3.5000076 -1.0625q2.6875 0 4.015625 1.34375q1.34375 1.34375 1.625 3.953125zm-5.640625 -3.078125q-1.1562576 0 -1.9062576 0.578125q-0.734375 0.5625 -1.0 1.515625q-0.1875 0.59375 -0.25 1.5q0 0.109375 0.109375 0.109375l6.1093826 0q0.109375 0 0.109375 -0.109375q-0.0625 -0.875 -0.171875 -1.3125q-0.265625 -1.03125 -1.046875 -1.65625q-0.78125 -0.625 -1.953125 -0.625zm14.381454 11.78125q-2.015625 0 -3.453125 -1.03125q-1.4375 -1.03125 -1.984375 -2.78125q-0.390625 -1.234375 -0.390625 -3.234375q0 -1.828125 0.390625 -3.21875q0.546875 -1.703125 1.984375 -2.71875q1.453125 -1.015625 3.453125 -1.015625q2.0 0 3.484375 1.015625q1.5 1.015625 1.953125 2.5625q0.171875 0.421875 0.21875 0.875q0 0.21875 -0.234375 0.265625l-2.0 0.296875l-0.0625 0q-0.1875 0 -0.265625 -0.25l-0.078125 -0.421875q-0.203125 -0.90625 -1.03125 -1.515625q-0.828125 -0.609375 -2.0 -0.609375q-1.15625 0 -1.953125 0.609375q-0.796875 0.609375 -1.03125 1.625q-0.25 0.953125 -0.25 2.53125q0 1.546875 0.25 2.5q0.265625 1.078125 1.046875 1.6875q0.78125 0.609375 1.9375 0.609375q1.171875 0 2.0 -0.609375q0.84375 -0.609375 1.0625 -1.609375q0.03125 -0.015625 0.015625 -0.046875q-0.015625 -0.046875 0.015625 -0.078125l0 -0.109375q0.078125 -0.21875 0.28125 -0.15625l2.0 0.3125q0.21875 0.0625 0.21875 0.21875l0 0.109375q0 0.234375 -0.140625 0.578125q-0.453125 1.625 -1.953125 2.625q-1.484375 0.984375 -3.484375 0.984375zm14.023834 0q-1.96875 0 -3.4375 -1.0q-1.46875 -1.0 -2.046875 -2.796875q-0.484375 -1.4375 -0.484375 -3.25q0 -1.890625 0.453125 -3.1875q0.59375 -1.765625 2.046875 -2.765625q1.46875 -1.0 3.5 -1.0q1.921875 0 3.34375 1.0q1.421875 1.0 2.046875 2.734375q0.46875 1.359375 0.46875 3.203125q0 1.859375 -0.46875 3.265625q-0.59375 1.796875 -2.03125 2.796875q-1.4375 1.0 -3.390625 1.0zm0 -2.21875q1.078125 0 1.875 -0.59375q0.796875 -0.609375 1.140625 -1.703125q0.296875 -1.0 0.296875 -2.5q0 -1.5 -0.265625 -2.484375q-0.34375 -1.09375 -1.15625 -1.6875q-0.796875 -0.59375 -1.9375 -0.59375q-1.09375 0 -1.890625 0.59375q-0.796875 0.59375 -1.15625 1.6875q-0.28125 0.9375 -0.28125 2.484375q0 1.546875 0.28125 2.5q0.328125 1.09375 1.140625 1.703125q0.8125 0.59375 1.953125 0.59375zm23.356659 -11.75q2.03125 0 3.203125 1.21875q1.171875 1.203125 1.171875 3.359375l0 8.90625q0 0.265625 -0.265625 0.265625l-2.0 0q-0.265625 0 -0.265625 -0.265625l0 -8.375q0 -1.328125 -0.734375 -2.109375q-0.734375 -0.796875 -1.96875 -0.796875q-1.21875 0 -2.0 0.78125q-0.765625 0.765625 -0.765625 2.078125l0 8.421875q0 0.265625 -0.265625 0.265625l-2.0 0q-0.265625 0 -0.265625 -0.265625l0 -8.375q0 -1.328125 -0.734375 -2.109375q-0.734375 -0.796875 -1.953125 -0.796875q-1.234375 0 -1.96875 0.78125q-0.734375 0.765625 -0.734375 2.078125l0 8.421875q0 0.265625 -0.265625 0.265625l-2.03125 0q-0.265625 0 -0.265625 -0.265625l0 -13.03125q0 -0.265625 0.265625 -0.265625l2.03125 0q0.265625 0 0.265625 0.265625l0 0.90625q0 0.046875 0.03125 0.078125q0.046875 0.03125 0.109375 -0.03125q1.171875 -1.40625 3.40625 -1.40625q1.359375 0 2.3125 0.515625q0.96875 0.515625 1.5 1.53125q0.078125 0.109375 0.15625 0q0.640625 -1.03125 1.6875 -1.53125q1.0625 -0.515625 2.34375 -0.515625zm22.017975 0q2.03125 0 3.203125 1.21875q1.171875 1.203125 1.171875 3.359375l0 8.90625q0 0.265625 -0.265625 0.265625l-2.0 0q-0.265625 0 -0.265625 -0.265625l0 -8.375q0 -1.328125 -0.734375 -2.109375q-0.734375 -0.796875 -1.96875 -0.796875q-1.21875 0 -2.0 0.78125q-0.765625 0.765625 -0.765625 2.078125l0 8.421875q0 0.265625 -0.265625 0.265625l-2.0 0q-0.265625 0 -0.265625 -0.265625l0 -8.375q0 -1.328125 -0.734375 -2.109375q-0.734375 -0.796875 -1.953125 -0.796875q-1.234375 0 -1.96875 0.78125q-0.734375 0.765625 -0.734375 2.078125l0 8.421875q0 0.265625 -0.265625 0.265625l-2.03125 0q-0.265625 0 -0.265625 -0.265625l0 -13.03125q0 -0.265625 0.265625 -0.265625l2.03125 0q0.265625 0 0.265625 0.265625l0 0.90625q0 0.046875 0.03125 0.078125q0.046875 0.03125 0.109375 -0.03125q1.171875 -1.40625 3.40625 -1.40625q1.359375 0 2.3125 0.515625q0.96875 0.515625 1.5 1.53125q0.078125 0.109375 0.15625 0q0.640625 -1.03125 1.6875 -1.53125q1.0625 -0.515625 2.34375 -0.515625zm18.732971 5.265625q0.109375 1.09375 0.078125 2.453125q0 0.28125 -0.265625 0.28125l-8.5 0q-0.109375 0 -0.109375 0.09375q0 0.90625 0.171875 1.390625q0.28125 1.0625 1.171875 1.671875q0.90625 0.59375 2.265625 0.59375q1.96875 0 3.03125 -1.625q0.140625 -0.265625 0.34375 -0.078125l1.53125 1.015625q0.171875 0.15625 0.078125 0.34375q-0.75 1.203125 -2.125 1.890625q-1.375 0.6875 -3.109375 0.6875q-1.9375 0 -3.28125 -0.84375q-1.328125 -0.859375 -2.0 -2.421875q-0.625 -1.578125 -0.625 -3.8125q0 -1.953125 0.28125 -2.96875q0.484375 -1.84375 1.921875 -2.90625q1.4375 -1.0625 3.5 -1.0625q2.6875 0 4.015625 1.34375q1.34375 1.34375 1.625 3.953125zm-5.640625 -3.078125q-1.15625 0 -1.90625 0.578125q-0.734375 0.5625 -1.0 1.515625q-0.1875 0.59375 -0.25 1.5q0 0.109375 0.109375 0.109375l6.109375 0q0.109375 0 0.109375 -0.109375q-0.0625 -0.875 -0.171875 -1.3125q-0.265625 -1.03125 -1.046875 -1.65625q-0.78125 -0.625 -1.953125 -0.625zm15.006454 -2.1875q2.1875 0 3.453125 1.265625q1.28125 1.265625 1.28125 3.421875l0 8.796875q0 0.265625 -0.265625 0.265625l-2.015625 0q-0.265625 0 -0.265625 -0.265625l0 -8.296875q0 -1.328125 -0.78125 -2.15625q-0.765625 -0.828125 -2.046875 -0.828125q-1.25 0 -2.0625 0.828125q-0.796875 0.828125 -0.796875 2.140625l0 8.3125q0 0.265625 -0.265625 0.265625l-2.03125 0q-0.265625 0 -0.265625 -0.265625l0 -13.03125q0 -0.265625 0.265625 -0.265625l2.03125 0q0.265625 0 0.265625 0.265625l0 0.953125q0 0.0625 0.03125 0.09375q0.046875 0.015625 0.078125 -0.03125q1.140625 -1.46875 3.390625 -1.46875zm16.662628 -4.640625q0 -0.265625 0.265625 -0.265625l2.015625 0q0.265625 0 0.265625 0.265625l0 18.125q0 0.265625 -0.265625 0.265625l-2.015625 0q-0.265625 0 -0.265625 -0.265625l0 -0.875q0 -0.0625 -0.046875 -0.078125q-0.046875 -0.03125 -0.09375 0.015625q-0.59375 0.671875 -1.390625 1.046875q-0.796875 0.375 -1.734375 0.375q-1.90625 0 -3.1875 -0.9375q-1.265625 -0.953125 -1.84375 -2.6875q-0.5 -1.421875 -0.5 -3.421875q0 -1.859375 0.421875 -3.21875q0.5625 -1.765625 1.828125 -2.75q1.28125 -0.984375 3.28125 -0.984375q0.90625 0 1.71875 0.359375q0.8125 0.359375 1.40625 1.03125q0.046875 0.046875 0.09375 0.03125q0.046875 -0.03125 0.046875 -0.09375l0 -5.9375zm-0.671875 14.953125q0.609375 -1.125 0.609375 -3.359375q0 -2.234375 -0.671875 -3.40625q-0.765625 -1.359375 -2.265625 -1.359375q-1.59375 0 -2.359375 1.265625q-0.859375 1.34375 -0.859375 3.53125q0 2.046875 0.671875 3.296875q0.765625 1.46875 2.53125 1.46875q1.546875 0 2.34375 -1.4375zm11.94397 -10.34375q1.625 0 2.828125 0.578125q1.21875 0.5625 1.875 1.59375q0.65625 1.03125 0.65625 2.328125l0 9.015625q0 0.265625 -0.265625 0.265625l-2.03125 0q-0.265625 0 -0.265625 -0.265625l0 -0.953125q0 -0.140625 -0.140625 -0.0625q-0.6875 0.71875 -1.6875 1.109375q-1.0 0.390625 -2.21875 0.390625q-1.984375 0 -3.28125 -1.0q-1.28125 -1.0 -1.28125 -3.03125q0 -2.078125 1.453125 -3.265625q1.453125 -1.1875 4.0625 -1.1875l2.984375 0q0.109375 0 0.109375 -0.109375l0 -0.71875q0 -1.171875 -0.6875 -1.8125q-0.671875 -0.65625 -2.0625 -0.65625q-1.125 0 -1.828125 0.4375q-0.703125 0.4375 -0.859375 1.1875q-0.078125 0.265625 -0.328125 0.234375l-2.15625 -0.296875q-0.265625 -0.046875 -0.234375 -0.203125q0.203125 -1.578125 1.671875 -2.578125q1.46875 -1.0 3.6875 -1.0zm-0.703125 11.828125q1.421875 0 2.453125 -0.734375q1.046875 -0.75 1.046875 -1.890625l0 -1.578125q0 -0.109375 -0.109375 -0.109375l-2.5 0q-1.578125 0 -2.515625 0.625q-0.921875 0.609375 -0.921875 1.703125q0 0.984375 0.703125 1.484375q0.703125 0.5 1.84375 0.5zm16.032043 -9.78125q0 0.265625 -0.265625 0.265625l-2.890625 0q-0.109375 0 -0.109375 0.109375l0 7.0625q0 1.125 0.5 1.625q0.515625 0.484375 1.59375 0.484375l0.765625 0q0.265625 0 0.265625 0.265625l0 1.65625q0 0.265625 -0.265625 0.265625q-0.859375 0.046875 -1.21875 0.046875q-2.03125 0 -3.0625 -0.71875q-1.015625 -0.734375 -1.015625 -2.71875l0 -7.96875q0 -0.109375 -0.109375 -0.109375l-1.625 0q-0.265625 0 -0.265625 -0.265625l0 -1.5625q0 -0.265625 0.265625 -0.265625l1.625 0q0.109375 0 0.109375 -0.109375l0 -3.140625q0 -0.28125 0.265625 -0.28125l1.90625 0q0.265625 0 0.265625 0.28125l0 3.140625q0 0.109375 0.109375 0.109375l2.890625 0q0.265625 0 0.265625 0.265625l0 1.5625zm4.6798706 -3.96875q-0.734375 0 -1.21875 -0.46875q-0.484375 -0.484375 -0.484375 -1.234375q0 -0.75 0.484375 -1.21875q0.484375 -0.484375 1.21875 -0.484375q0.75 0 1.234375 0.484375q0.484375 0.46875 0.484375 1.21875q0 0.75 -0.484375 1.234375q-0.484375 0.46875 -1.234375 0.46875zm-1.0625 15.671875q-0.265625 0 -0.265625 -0.265625l0 -13.0q0 -0.265625 0.265625 -0.265625l2.03125 0q0.265625 0 0.265625 0.265625l0 13.0q0 0.265625 -0.265625 0.265625l-2.03125 0zm11.859833 0.25q-1.96875 0 -3.4375 -1.0q-1.46875 -1.0 -2.046875 -2.796875q-0.484375 -1.4375 -0.484375 -3.25q0 -1.890625 0.453125 -3.1875q0.59375 -1.765625 2.046875 -2.765625q1.46875 -1.0 3.5 -1.0q1.921875 0 3.34375 1.0q1.421875 1.0 2.046875 2.734375q0.46875 1.359375 0.46875 3.203125q0 1.859375 -0.46875 3.265625q-0.59375 1.796875 -2.03125 2.796875q-1.4375 1.0 -3.390625 1.0zm0 -2.21875q1.078125 0 1.875 -0.59375q0.796875 -0.609375 1.140625 -1.703125q0.296875 -1.0 0.296875 -2.5q0 -1.5 -0.265625 -2.484375q-0.34375 -1.09375 -1.15625 -1.6875q-0.796875 -0.59375 -1.9375 -0.59375q-1.09375 0 -1.890625 0.59375q-0.796875 0.59375 -1.15625 1.6875q-0.28125 0.9375 -0.28125 2.484375q0 1.546875 0.28125 2.5q0.328125 1.09375 1.140625 1.703125q0.8125 0.59375 1.953125 0.59375zm15.309784 -11.75q2.1875 0 3.453125 1.265625q1.28125 1.265625 1.28125 3.421875l0 8.796875q0 0.265625 -0.265625 0.265625l-2.015625 0q-0.265625 0 -0.265625 -0.265625l0 -8.296875q0 -1.328125 -0.78125 -2.15625q-0.765625 -0.828125 -2.046875 -0.828125q-1.25 0 -2.0625 0.828125q-0.796875 0.828125 -0.796875 2.140625l0 8.3125q0 0.265625 -0.265625 0.265625l-2.03125 0q-0.265625 0 -0.265625 -0.265625l0 -13.03125q0 -0.265625 0.265625 -0.265625l2.03125 0q0.265625 0 0.265625 0.265625l0 0.953125q0 0.0625 0.03125 0.09375q0.046875 0.015625 0.078125 -0.03125q1.140625 -1.46875 3.390625 -1.46875zm13.166382 13.90625q-1.609375 0 -2.828125 -0.46875q-1.203125 -0.484375 -1.875 -1.328125q-0.65625 -0.84375 -0.65625 -1.84375l0 -0.296875q0 -0.265625 0.265625 -0.265625l1.921875 0q0.265625 0 0.265625 0.265625l0 0.125q0 0.75 0.8125 1.3125q0.8125 0.5625 2.0625 0.5625q1.203125 0 1.9375 -0.515625q0.75 -0.53125 0.75 -1.328125q0 -0.765625 -0.6875 -1.15625q-0.6875 -0.390625 -2.234375 -0.8125q-1.53125 -0.4375 -2.5625 -0.875q-1.015625 -0.4375 -1.71875 -1.25q-0.703125 -0.8125 -0.703125 -2.09375q0 -1.78125 1.390625 -2.828125q1.40625 -1.0625 3.71875 -1.0625q1.546875 0 2.734375 0.5q1.1875 0.484375 1.828125 1.375q0.640625 0.875 0.640625 1.96875l0 0.078125q0 0.265625 -0.265625 0.265625l-1.875 0q-0.265625 0 -0.265625 -0.265625l0 -0.078125q0 -0.78125 -0.765625 -1.296875q-0.75 -0.515625 -2.046875 -0.515625q-1.1875 0 -1.921875 0.453125q-0.71875 0.453125 -0.71875 1.21875q0 0.78125 0.703125 1.1875q0.703125 0.390625 2.28125 0.84375q1.546875 0.421875 2.5625 0.84375q1.03125 0.40625 1.75 1.21875q0.71875 0.8125 0.71875 2.125q0 1.8125 -1.421875 2.875q-1.421875 1.0625 -3.796875 1.0625z" fill-rule="nonzero"/></g></svg>