<svg version="1.1" viewBox="0.0 0.0 960.0 540.0" fill="none" stroke="none" stroke-linecap="square" stroke-miterlimit="10" xmlns:xlink="http://www.w3.org/1999/xlink" xmlns="http://www.w3.org/2000/svg"><clipPath id="g250a85dbee7_0_112.0"><path d="m0 0l960.0 0l0 540.0l-960.0 0l0 -540.0z" clip-rule="nonzero"/></clipPath><g clip-path="url(#g250a85dbee7_0_112.0)"><path fill="#292929" d="m0 0l960.0 0l0 540.0l-960.0 0z" fill-rule="evenodd"/><path fill="#000000" fill-opacity="0.0" d="m165.85826 127.25984l628.28345 0l0 285.4803l-628.28345 0z" fill-rule="evenodd"/><path fill="#eaebed" d="m369.86264 248.24312q0.640625 0 0.640625 0.640625l0 4.09375q0 0.640625 -0.640625 0.640625l-12.296875 0q-0.25 0 -0.25 0.25l0 38.531265q0 0.640625 -0.640625 0.640625l-4.859375 0q-0.640625 0 -0.640625 -0.640625l0 -38.531265q0 -0.25 -0.265625 -0.25l-11.703125 0q-0.640625 0 -0.640625 -0.640625l0 -4.09375q0 -0.640625 0.640625 -0.640625l30.65625 0zm22.017181 11.76564q5.234375 0 8.3125 3.046875q3.078125 3.046875 3.078125 8.21875l0 21.125q0 0.640625 -0.640625 0.640625l-4.875 0q-0.640625 0 -0.640625 -0.640625l0 -19.90625q0 -3.203125 -1.859375 -5.1875q-1.84375 -1.984375 -4.921875 -1.984375q-3.0 0 -4.921875 1.984375q-1.921875 1.984375 -1.921875 5.125l0 19.96875q0 0.640625 -0.640625 0.640625l-4.859375 0q-0.640625 0 -0.640625 -0.640625l0 -43.51564q0 -0.640625 0.640625 -0.640625l4.859375 0q0.640625 0 0.640625 0.640625l0 14.531265q0 0.125 0.09375 0.1875q0.09375 0.0625 0.15625 -0.0625q2.75 -3.53125 8.140625 -3.53125zm32.062927 -0.0625q3.890625 0 6.796875 1.375q2.921875 1.375 4.484375 3.84375q1.578125 2.46875 1.578125 5.609375l0 21.625q0 0.640625 -0.640625 0.640625l-4.859375 0q-0.640625 0 -0.640625 -0.640625l0 -2.296875q0 -0.328125 -0.328125 -0.140625q-1.65625 1.734375 -4.0625 2.671875q-2.40625 0.921875 -5.34375 0.921875q-4.734375 0 -7.84375 -2.390625q-3.09375 -2.40625 -3.09375 -7.28125q0 -4.984375 3.484375 -7.828125q3.484375 -2.859375 9.765625 -2.859375l7.15625 0q0.265625 0 0.265625 -0.25l0 -1.734375q0 -2.8125 -1.640625 -4.375q-1.625 -1.578125 -4.953125 -1.578125q-2.6875 0 -4.390625 1.0625q-1.6875 1.0625 -2.078125 2.84375q-0.1875 0.640625 -0.765625 0.578125l-5.1875 -0.703125q-0.640625 -0.125 -0.578125 -0.515625q0.515625 -3.765625 4.03125 -6.171875q3.53125 -2.40625 8.84375 -2.40625zm-1.671875 28.421875q3.390625 0 5.890625 -1.78125q2.5 -1.796875 2.5 -4.5625l0 -3.765625q0 -0.265625 -0.265625 -0.265625l-6.015625 0q-3.765625 0 -6.015625 1.484375q-2.234375 1.46875 -2.234375 4.09375q0 2.359375 1.6875 3.578125q1.703125 1.21875 4.453125 1.21875zm37.384827 -28.359375q5.234375 0 8.3125 3.046875q3.078125 3.046875 3.078125 8.21875l0 21.125q0 0.640625 -0.640625 0.640625l-4.875 0q-0.640625 0 -0.640625 -0.640625l0 -19.90625q0 -3.203125 -1.859375 -5.1875q-1.84375 -1.984375 -4.921875 -1.984375q-3.0 0 -4.921875 1.984375q-1.921875 1.984375 -1.921875 5.125l0 19.96875q0 0.640625 -0.640625 0.640625l-4.859375 0q-0.640625 0 -0.640625 -0.640625l0 -31.296875q0 -0.640625 0.640625 -0.640625l4.859375 0q0.640625 0 0.640625 0.640625l0 2.3125q0 0.125 0.09375 0.1875q0.09375 0.0625 0.15625 -0.0625q2.75 -3.53125 8.140625 -3.53125zm20.733307 33.03125q-0.640625 0 -0.640625 -0.640625l0 -43.51564q0 -0.640625 0.640625 -0.640625l4.859375 0q0.640625 0 0.640625 0.640625l0 24.64064q0 0.125 0.125 0.1875q0.125 0.0625 0.1875 -0.0625l11.84375 -12.859375q0.265625 -0.328125 0.765625 -0.328125l5.703125 0q0.375 0 0.46875 0.234375q0.109375 0.21875 -0.15625 0.53125l-8.25 9.546875q-0.125 0.25 -0.0625 0.375l9.796875 21.125l0.0625 0.25q0 0.515625 -0.578125 0.515625l-5.125 0q-0.515625 0 -0.703125 -0.515625l-7.609375 -17.40625q-0.140625 -0.3125 -0.328125 -0.0625l-6.015625 6.65625q-0.125 0.25 -0.125 0.3125l0 10.375q0 0.640625 -0.640625 0.640625l-4.859375 0zm56.6929 -0.0625q-0.640625 0 -0.640625 -0.640625l0 -17.984375q0 -0.25 -0.0625 -0.328125l-13.3125 -25.01564q-0.0625 -0.125 -0.0625 -0.328125q0 -0.4375 0.515625 -0.4375l5.25 0q0.578125 0 0.765625 0.4375l9.796875 18.76564q0.0625 0.125 0.1875 0.125q0.125 0 0.1875 -0.125l9.796875 -18.76564q0.1875 -0.4375 0.765625 -0.4375l5.3125 0q0.328125 0 0.484375 0.21875q0.15625 0.21875 -0.03125 0.546875l-13.375 25.01564q-0.0625 0.078125 -0.0625 0.328125l0 17.984375q0 0.640625 -0.640625 0.640625l-4.875 0zm34.634827 0.578125q-4.734375 0 -8.265625 -2.390625q-3.515625 -2.40625 -4.921875 -6.703125q-1.15625 -3.453125 -1.15625 -7.8125q0 -4.53125 1.09375 -7.671875q1.40625 -4.21875 4.921875 -6.625q3.515625 -2.40625 8.390625 -2.40625q4.609375 0 8.03125 2.40625q3.421875 2.40625 4.890625 6.5625q1.15625 3.265625 1.15625 7.671875q0 4.484375 -1.15625 7.875q-1.40625 4.296875 -4.859375 6.703125q-3.453125 2.390625 -8.125 2.390625zm0 -5.3125q2.5625 0 4.46875 -1.4375q1.921875 -1.453125 2.765625 -4.0625q0.703125 -2.4375 0.703125 -6.015625q0 -3.59375 -0.640625 -5.953125q-0.84375 -2.625 -2.765625 -4.0625q-1.90625 -1.453125 -4.671875 -1.453125q-2.609375 0 -4.53125 1.453125q-1.921875 1.4375 -2.75 4.0625q-0.71875 2.234375 -0.71875 5.953125q0 3.703125 0.71875 6.015625q0.765625 2.609375 2.71875 4.0625q1.953125 1.4375 4.703125 1.4375zm41.598083 -27.140625q0 -0.640625 0.640625 -0.640625l4.796875 0q0.640625 0 0.640625 0.640625l0 31.296875q0 0.640625 -0.640625 0.640625l-4.796875 0q-0.640625 0 -0.640625 -0.640625l0 -2.375q0 -0.125 -0.09375 -0.15625q-0.09375 -0.03125 -0.234375 0.09375q-2.5625 3.53125 -7.859375 3.53125q-3.140625 0 -5.796875 -1.21875q-2.65625 -1.21875 -4.265625 -3.578125q-1.59375 -2.375 -1.59375 -5.765625l0 -21.828125q0 -0.640625 0.640625 -0.640625l4.796875 0q0.640625 0 0.640625 0.640625l0 19.90625q0 3.328125 1.75 5.25q1.765625 1.921875 4.96875 1.921875q3.203125 0 5.125 -1.953125q1.921875 -1.953125 1.921875 -5.21875l0 -19.90625z" fill-rule="nonzero"/></g></svg>